<svg xmlns="http://www.w3.org/2000/svg" width="24.013" height="30" viewBox="0 0 24.013 30">
  <g id="add-to-cart" transform="translate(-77 -77)">
    <g id="add_shopping_cart-24px" transform="translate(77 81)">
      <rect id="Rectángulo_413" data-name="Rectángulo 413" width="24" height="24" fill="none"/>
      <path id="Trazado_5190" data-name="Trazado 5190" d="M12.844,10.687h0a1.214,1.214,0,0,0,1.211-1.211V7.054h2.422a1.214,1.214,0,0,0,1.211-1.211h0a1.214,1.214,0,0,0-1.211-1.211H14.054V2.211A1.214,1.214,0,0,0,12.844,1h0a1.214,1.214,0,0,0-1.211,1.211V4.633H9.211A1.214,1.214,0,0,0,8,5.844H8A1.214,1.214,0,0,0,9.211,7.054h2.422V9.476A1.214,1.214,0,0,0,12.844,10.687Z" transform="translate(-0.844 8.156)" fill="#fff"/>
    </g>
    <g id="shopping-bag" transform="translate(77 77)">
      <path id="Trazado_1950" data-name="Trazado 1950" d="M72.806,25.933,71.089,6.589a.827.827,0,0,0-.822-.755H66.733a5.927,5.927,0,0,0-11.853,0H51.346a.822.822,0,0,0-.822.755L48.806,25.933c0,.025-.006.049-.006.074A4.275,4.275,0,0,0,53.3,30H68.309a4.275,4.275,0,0,0,4.5-3.994A.3.3,0,0,0,72.806,25.933Zm-12-24.276a4.274,4.274,0,0,1,4.27,4.178h-8.54A4.274,4.274,0,0,1,60.806,1.656Zm7.5,26.687H53.3a2.643,2.643,0,0,1-2.847-2.3L52.1,7.5h2.773v2.515a.828.828,0,1,0,1.656,0V7.5h8.546v2.515a.828.828,0,1,0,1.656,0V7.5h2.773l1.65,18.546A2.647,2.647,0,0,1,68.309,28.344Z" transform="translate(-48.8)" fill="#fff"/>
    </g>
  </g>
</svg>
