<svg id="loupe" xmlns="http://www.w3.org/2000/svg" width="26.876" height="26.876" viewBox="0 0 26.876 26.876">
  <g id="Grupo_359" data-name="Grupo 359" transform="translate(15.748 9.974)">
    <g id="Grupo_358" data-name="Grupo 358">
      <path id="Trazado_1946" data-name="Trazado 1946" d="M300.525,190a.525.525,0,1,0,.525.525A.525.525,0,0,0,300.525,190Z" transform="translate(-300 -190)" fill="#393338"/>
    </g>
  </g>
  <g id="Grupo_361" data-name="Grupo 361">
    <g id="Grupo_360" data-name="Grupo 360">
      <path id="Trazado_1947" data-name="Trazado 1947" d="M26.261,23.292l-7.007-7.007A10.4,10.4,0,0,0,21,10.5,10.5,10.5,0,1,0,10.5,21a10.4,10.4,0,0,0,5.787-1.743l1.937,1.937h0l5.069,5.069a2.1,2.1,0,1,0,2.969-2.969ZM16.038,18.148h0a9.458,9.458,0,1,1,2.11-2.11A9.495,9.495,0,0,1,16.038,18.148Zm1.1.476a10.534,10.534,0,0,0,1.484-1.484l1.489,1.489a12.741,12.741,0,0,1-1.484,1.484Zm8.379,6.895a1.049,1.049,0,0,1-1.484,0l-4.661-4.661a13.793,13.793,0,0,0,1.484-1.484l4.661,4.661a1.049,1.049,0,0,1,0,1.484Z" fill="#393338"/>
    </g>
  </g>
  <g id="Grupo_363" data-name="Grupo 363" transform="translate(2.1 2.1)">
    <g id="Grupo_362" data-name="Grupo 362">
      <path id="Trazado_1948" data-name="Trazado 1948" d="M48.4,40a8.4,8.4,0,1,0,8.4,8.4A8.408,8.408,0,0,0,48.4,40Zm0,15.748A7.349,7.349,0,1,1,55.748,48.4,7.357,7.357,0,0,1,48.4,55.748Z" transform="translate(-40 -40)" fill="#393338"/>
    </g>
  </g>
  <g id="Grupo_365" data-name="Grupo 365" transform="translate(9.974 4.199)">
    <g id="Grupo_364" data-name="Grupo 364">
      <path id="Trazado_1949" data-name="Trazado 1949" d="M196.407,84.046A6.309,6.309,0,0,0,190.525,80a.525.525,0,1,0,0,1.05,5.285,5.285,0,0,1,4.9,3.372.525.525,0,1,0,.98-.377Z" transform="translate(-190 -80)" fill="#393338"/>
    </g>
  </g>
</svg>
