<svg xmlns="http://www.w3.org/2000/svg" width="88.277" height="23" viewBox="0 0 88.277 23">
  <g id="mercadopago" transform="translate(-148.148 -95.051)">
    <g id="Grupo_514" data-name="Grupo 514" transform="translate(148.148 95.051)">
      <path id="Trazado_5043" data-name="Trazado 5043" d="M180.475,105.623c0-5.824-7.236-10.572-16.163-10.572S148.15,99.8,148.15,105.623c0,.15,0,.566,0,.619,0,6.179,6.325,11.183,16.162,11.183,9.9,0,16.165-5,16.165-11.182Z" transform="translate(-148.148 -95.051)" fill="#08286e"/>
      <path id="Trazado_5044" data-name="Trazado 5044" d="M181.921,107.674c0,5.491-6.958,9.942-15.541,9.942s-15.541-4.451-15.541-9.942,6.958-9.943,15.541-9.943S181.921,102.182,181.921,107.674Z" transform="translate(-150.212 -97.107)" fill="#0090df"/>
      <g id="Grupo_513" data-name="Grupo 513" transform="translate(0.743 3.832)">
        <path id="Trazado_5045" data-name="Trazado 5045" d="M195.1,115.107c-.008.016-.163.176-.063.3a1.943,1.943,0,0,0,1.769.321,5.128,5.128,0,0,0,1.607-1.017,6.431,6.431,0,0,1,1.835-1.17,2.1,2.1,0,0,1,1.338-.035,4.12,4.12,0,0,1,1.22.712c1.063.8,5.339,4.532,6.078,5.177a36.9,36.9,0,0,1,6.833-2.2,8.468,8.468,0,0,0-3.245-5.1,9.977,9.977,0,0,1-8.417.137,8.143,8.143,0,0,0-3.18-.723,5.7,5.7,0,0,0-4.418,2.135Z" transform="translate(-184.84 -111.509)" fill="#fff"/>
        <path id="Trazado_5046" data-name="Trazado 5046" d="M175.214,120.66c-.05-.045-5.028-4.4-6.156-5.248a2.758,2.758,0,0,0-1.4-.663,1.9,1.9,0,0,0-.664.064,6.02,6.02,0,0,0-1.82,1.084A5.186,5.186,0,0,1,163.4,117a2.875,2.875,0,0,1-1.958-.294.867.867,0,0,1-.325-.356.6.6,0,0,1,.166-.65l1.374-1.485c.16-.16.321-.319.485-.476a8.929,8.929,0,0,0-1.252.282,5.452,5.452,0,0,1-1.461.273,13.841,13.841,0,0,1-1.491-.234,22.253,22.253,0,0,1-3.964-1.432,8.783,8.783,0,0,0-3.636,5.273c.281.074.732.209.922.251,4.419.982,5.8,1.995,6.045,2.206a1.462,1.462,0,0,1,2.293.135,1.671,1.671,0,0,1,1.053-.37,1.971,1.971,0,0,1,.632.111,1.452,1.452,0,0,1,.889.8,1.474,1.474,0,0,1,.615-.13,1.855,1.855,0,0,1,.735.162,1.569,1.569,0,0,1,.868,1.753,1.516,1.516,0,0,1,.176-.01,1.754,1.754,0,0,1,1.751,1.753,1.736,1.736,0,0,1-.21.827,2.779,2.779,0,0,0,1.521.407.972.972,0,0,0,.712-.31c.044-.062.09-.135.047-.187l-1.247-1.385s-.205-.194-.138-.269.2.034.287.108c.635.53,1.41,1.33,1.41,1.33s.064.11.351.161a1.3,1.3,0,0,0,.985-.23,1.49,1.49,0,0,0,.216-.222c-.005,0-.009.009-.014.011a.663.663,0,0,0-.035-.821l-1.456-1.635s-.208-.192-.138-.27.2.034.288.11c.461.386,1.112,1.039,1.736,1.65a1.186,1.186,0,0,0,1.4-.049,1,1,0,0,0,.517-.912,1.042,1.042,0,0,0-.307-.607l-1.989-2s-.21-.18-.136-.27.2.034.286.108c.634.53,2.348,2.1,2.348,2.1a1.207,1.207,0,0,0,1.349-.027.9.9,0,0,0,.444-.713A1.053,1.053,0,0,0,175.214,120.66Z" transform="translate(-151.341 -112.364)" fill="#fff"/>
        <path id="Trazado_5047" data-name="Trazado 5047" d="M188.558,148.324a4.429,4.429,0,0,0-.69.153c-.024-.016.019-.14.048-.212s.436-1.292-.554-1.717a1.166,1.166,0,0,0-1.379.206c-.042.043-.061.04-.065-.015a1.092,1.092,0,0,0-.767-1.015,1.5,1.5,0,0,0-1.687.6,1.08,1.08,0,1,0-.321.919c.006.006.009.016.005.037a1.427,1.427,0,0,0,.891,1.64,1.063,1.063,0,0,0,1.046-.162c.086-.061.1-.035.088.046a1.018,1.018,0,0,0,.762,1.092.967.967,0,0,0,1.133-.21c.1-.088.123-.074.128.062a1.364,1.364,0,1,0,1.363-1.426Z" transform="translate(-174.33 -137.494)" fill="#fff"/>
      </g>
      <path id="Trazado_5048" data-name="Trazado 5048" d="M175.1,117.581c-1.533-1.338-5.077-4.419-6.037-5.139a4.22,4.22,0,0,0-1.251-.728,2.071,2.071,0,0,0-.614-.1,2.587,2.587,0,0,0-.78.131,6.4,6.4,0,0,0-1.836,1.163l-.031.024a5.063,5.063,0,0,1-1.567,1,2.645,2.645,0,0,1-.58.065,1.489,1.489,0,0,1-1.09-.351c-.027-.035-.01-.091.054-.172l.008-.011,1.349-1.454a5.612,5.612,0,0,1,4.351-2.107l.115,0a8.139,8.139,0,0,1,3.019.715,9.351,9.351,0,0,0,4.115.987,10.746,10.746,0,0,0,4.518-1.082c-.176-.148-.358-.292-.546-.433a9.946,9.946,0,0,1-3.968.9,8.755,8.755,0,0,1-3.851-.927,8.67,8.67,0,0,0-3.287-.777h-.129a5.707,5.707,0,0,0-3.747,1.331,7.407,7.407,0,0,0-1.87.341,5.061,5.061,0,0,1-1.318.252c-.169,0-.473-.016-.5-.017a25.653,25.653,0,0,1-4.738-1.312c-.193.137-.379.278-.559.421a23.408,23.408,0,0,0,5.135,1.485c.211.014.436.038.661.038a5.615,5.615,0,0,0,1.487-.276c.286-.081.6-.168.934-.231q-.133.131-.266.264l-1.37,1.482a.689.689,0,0,0-.188.757.961.961,0,0,0,.36.4,2.856,2.856,0,0,0,1.455.369,2.641,2.641,0,0,0,.58-.061,5.25,5.25,0,0,0,1.815-1.116,6.039,6.039,0,0,1,1.784-1.068,2.032,2.032,0,0,1,.5-.068.98.98,0,0,1,.129.007,2.68,2.68,0,0,1,1.35.644c1.125.845,6.1,5.2,6.152,5.243a.957.957,0,0,1,.3.732.8.8,0,0,1-.4.635,1.212,1.212,0,0,1-.654.2,1.075,1.075,0,0,1-.577-.167c-.018-.015-1.724-1.579-2.351-2.1a.528.528,0,0,0-.3-.157.162.162,0,0,0-.13.061c-.1.122.012.29.142.4l1.992,2a.945.945,0,0,1,.275.54.909.909,0,0,1-.473.826,1.284,1.284,0,0,1-.706.234,1.027,1.027,0,0,1-.568-.173l-.286-.282c-.522-.514-1.062-1.045-1.456-1.375a.53.53,0,0,0-.3-.154.17.17,0,0,0-.126.053c-.045.05-.076.14.036.289a1,1,0,0,0,.1.112l1.454,1.633a.557.557,0,0,1,.033.7l-.051.065a1.468,1.468,0,0,1-.135.13,1.163,1.163,0,0,1-.71.225,1.113,1.113,0,0,1-.2-.017.5.5,0,0,1-.287-.121l-.017-.018c-.08-.082-.812-.83-1.419-1.336a.5.5,0,0,0-.282-.151.173.173,0,0,0-.131.059c-.12.131.06.328.136.4l1.24,1.367a.284.284,0,0,1-.047.083c-.044.061-.195.212-.644.268a1.25,1.25,0,0,1-.165.01,2.832,2.832,0,0,1-1.213-.36,1.85,1.85,0,0,0-1.673-2.638H165.2a1.642,1.642,0,0,0-.938-1.737,1.949,1.949,0,0,0-.773-.17,1.572,1.572,0,0,0-.567.1,1.556,1.556,0,0,0-.906-.769,2.024,2.024,0,0,0-.664-.117,1.747,1.747,0,0,0-1.034.331,1.559,1.559,0,0,0-2.322-.131c-.386-.295-1.917-1.267-6.015-2.2-.2-.045-.654-.176-.933-.257a6.589,6.589,0,0,0-.105.672s.756.181.9.214c4.186.93,5.569,1.9,5.8,2.079a1.571,1.571,0,0,0,1.735,2.146,1.829,1.829,0,0,0,1.183,1.367,1.557,1.557,0,0,0,.559.108,1.444,1.444,0,0,0,.357-.045,1.819,1.819,0,0,0,1.589,1.038,1.379,1.379,0,0,0,.479-.085,1.847,1.847,0,0,0,3.035.586,3.485,3.485,0,0,0,1.566.467,2.005,2.005,0,0,0,.237-.015,1.434,1.434,0,0,0,1.062-.52.787.787,0,0,0,.065-.106,1.791,1.791,0,0,0,.5.078,1.689,1.689,0,0,0,1.012-.362,1.394,1.394,0,0,0,.6-.868s0-.008,0-.013a1.667,1.667,0,0,0,.339.035,1.882,1.882,0,0,0,1.04-.33,1.5,1.5,0,0,0,.746-1.336,1.665,1.665,0,0,0,.342.036,1.8,1.8,0,0,0,.974-.3,1.422,1.422,0,0,0,.677-1.1,1.484,1.484,0,0,0-.215-.89,40.275,40.275,0,0,1,6.458-2.022,6.582,6.582,0,0,0-.09-.67A37.039,37.039,0,0,0,175.1,117.581Zm-9.837,5.686A1.257,1.257,0,0,1,164,122.059c0-.058-.008-.212-.138-.212a.24.24,0,0,0-.154.081.89.89,0,0,1-.621.281,1.092,1.092,0,0,1-.409-.089c-.722-.292-.732-.788-.7-.987a.181.181,0,0,0-.026-.151l-.044-.04h-.045a.22.22,0,0,0-.126.051,1.054,1.054,0,0,1-.612.218.948.948,0,0,1-.342-.067,1.325,1.325,0,0,1-.828-1.536.131.131,0,0,0-.041-.126l-.067-.055-.063.06a.987.987,0,1,1,.292-.835l.034.265.146-.224a1.37,1.37,0,0,1,1.576-.561,1,1,0,0,1,.7.929c.01.129.1.135.12.135a.161.161,0,0,0,.114-.06,1,1,0,0,1,.726-.306,1.4,1.4,0,0,1,.544.122c.929.4.507,1.578.5,1.591-.08.2-.083.282-.008.332l.037.017h.027a.657.657,0,0,0,.18-.047,1.591,1.591,0,0,1,.5-.109h0a1.266,1.266,0,1,1,0,2.533Z" transform="translate(-150.292 -105.974)" fill="#08286e"/>
    </g>
    <g id="Grupo_516" data-name="Grupo 516" transform="translate(185.445 95.653)">
      <path id="Trazado_5049" data-name="Trazado 5049" d="M503.133,107.913a3.767,3.767,0,0,0-5.313,0,4.286,4.286,0,0,0,0,5.193,3.808,3.808,0,0,0,5.313,0,4.289,4.289,0,0,0,0-5.193Zm-1.445,4.193a1.6,1.6,0,0,1-2.438,0,3.209,3.209,0,0,1,0-3.2,1.606,1.606,0,0,1,2.438,0,3.227,3.227,0,0,1,0,3.2Z" transform="translate(-453.029 -104.679)" fill="#08286e"/>
      <path id="Trazado_5050" data-name="Trazado 5050" d="M442.214,107.412a4.431,4.431,0,0,0-2.031-.451,2.982,2.982,0,0,0-2.479.916,2.663,2.663,0,0,0-.512,1.5h1.75a1.308,1.308,0,0,1,.258-.636,1.154,1.154,0,0,1,.921-.318,1.883,1.883,0,0,1,.881.163.61.61,0,0,1,.3.588.545.545,0,0,1-.391.516,2.861,2.861,0,0,1-.725.159l-.62.076a4.42,4.42,0,0,0-1.6.446,1.973,1.973,0,0,0-.993,1.851,1.909,1.909,0,0,0,.617,1.523,2.451,2.451,0,0,0,1.565.538c3.958.177,3.913-2.086,3.949-2.556v-2.6A1.734,1.734,0,0,0,442.214,107.412Zm-.919,3.951a1.453,1.453,0,0,1-.52,1.253,1.893,1.893,0,0,1-1.094.344,1,1,0,0,1-.637-.207.805.805,0,0,1-.261-.672.828.828,0,0,1,.427-.77,2.7,2.7,0,0,1,.834-.247l.413-.077a3.036,3.036,0,0,0,.486-.126,1.837,1.837,0,0,0,.351-.174Z" transform="translate(-407.02 -104.79)" fill="#08286e"/>
      <path id="Trazado_5051" data-name="Trazado 5051" d="M409.205,108.587a1.18,1.18,0,0,1,1,.419,1.552,1.552,0,0,1,.275.7h1.952a2.67,2.67,0,0,0-1.034-2.062,3.979,3.979,0,0,0-2.245-.583,3.279,3.279,0,0,0-2.53.99,3.919,3.919,0,0,0-.917,2.768,3.86,3.86,0,0,0,.83,2.566,3.193,3.193,0,0,0,2.589.989,3.121,3.121,0,0,0,2.658-1.186,2.927,2.927,0,0,0,.629-1.56h-1.946a1.641,1.641,0,0,1-.341.888,1.169,1.169,0,0,1-.951.342,1.272,1.272,0,0,1-1.287-.863,3.3,3.3,0,0,1-.188-1.22,3.606,3.606,0,0,1,.188-1.278A1.312,1.312,0,0,1,409.205,108.587Z" transform="translate(-383.034 -104.865)" fill="#08286e"/>
      <path id="Trazado_5052" data-name="Trazado 5052" d="M391.02,107.059c-4.01,0-3.773,3.551-3.773,3.551v3.606h1.82v-3.383a2.785,2.785,0,0,1,.209-1.231,1.5,1.5,0,0,1,1.465-.71c.055,0,.127,0,.216.007s.189.012.3.026v-1.851l-.156-.01C391.082,107.061,391.054,107.059,391.02,107.059Z" transform="translate(-368.871 -104.865)" fill="#08286e"/>
      <path id="Trazado_5053" data-name="Trazado 5053" d="M358.961,112.33a1.327,1.327,0,0,1-.249.275,1.554,1.554,0,0,1-1.017.276,1.726,1.726,0,0,1-.969-.233,1.639,1.639,0,0,1-.737-1.445h5.035a9.064,9.064,0,0,0-.061-1.372,3.4,3.4,0,0,0-.55-1.429,2.821,2.821,0,0,0-1.195-1.023,3.945,3.945,0,0,0-1.625-.323,3.333,3.333,0,0,0-2.472.958,3.745,3.745,0,0,0-.953,2.754,3.35,3.35,0,0,0,1.056,2.768,3.77,3.77,0,0,0,2.435.851,3.357,3.357,0,0,0,2.6-1.009,2.448,2.448,0,0,0,.631-1.049Zm-2.446-3.388a1.438,1.438,0,0,1,1.079-.395,1.582,1.582,0,0,1,1.072.373,1.509,1.509,0,0,1,.481,1.092h-3.113A1.877,1.877,0,0,1,356.514,108.942Z" transform="translate(-343.496 -104.863)" fill="#08286e"/>
      <g id="Grupo_515" data-name="Grupo 515" transform="translate(0 2.17)">
        <path id="Trazado_5054" data-name="Trazado 5054" d="M318.275,114.136h-1.662v-4.185a1.168,1.168,0,0,0-1.223-1.292,1.225,1.225,0,0,0-1.26,1.292v4.185h-1.664v-4.185a1.157,1.157,0,0,0-1.209-1.292A1.218,1.218,0,0,0,310,109.951v4.185h-1.663v-4.146a2.852,2.852,0,0,1,2.924-3.035,2.559,2.559,0,0,1,2.067.964,2.647,2.647,0,0,1,2.066-.964,2.775,2.775,0,0,1,2.885,3.035Z" transform="translate(-308.334 -106.956)" fill="#08286e"/>
      </g>
      <path id="Trazado_5055" data-name="Trazado 5055" d="M472.429,97.644s-1.833-.2-1.833,1.277v1.949a2.187,2.187,0,0,0-.792-.764,2.228,2.228,0,0,0-1.116-.276,2.651,2.651,0,0,0-2.177,1.015,4.468,4.468,0,0,0-.814,2.831,3.765,3.765,0,0,0,.828,2.516,3.506,3.506,0,0,0,2.594.939c3.351,0,3.312-2.873,3.312-2.873Zm-2.183,7.434a1.334,1.334,0,0,1-1.167.571,1.276,1.276,0,0,1-1.145-.574,2.928,2.928,0,0,1-.377-1.579,2.773,2.773,0,0,1,.37-1.487,1.268,1.268,0,0,1,1.163-.6,1.383,1.383,0,0,1,.914.33,2.38,2.38,0,0,1,.64,1.861A2.522,2.522,0,0,1,470.246,105.077Z" transform="translate(-429.055 -97.635)" fill="#08286e"/>
    </g>
    <g id="Grupo_518" data-name="Grupo 518" transform="translate(196.914 107.89)">
      <g id="Grupo_517" data-name="Grupo 517">
        <path id="Trazado_5056" data-name="Trazado 5056" d="M359.408,159a.855.855,0,0,1-.269.633.879.879,0,0,1-.642.264h-.909v-6.323a2.917,2.917,0,0,1,1.1-2.52,3.659,3.659,0,0,1,2.381-.672,3.191,3.191,0,0,1,2.382.985A3.888,3.888,0,0,1,364.3,154a4.26,4.26,0,0,1-.8,2.693,2.519,2.519,0,0,1-2.06,1,2.766,2.766,0,0,1-1.176-.237,2,2,0,0,1-.856-.819Zm3.049-4.924a2.665,2.665,0,0,0-.4-1.584,1.336,1.336,0,0,0-1.15-.555,1.315,1.315,0,0,0-1.124.555,2.677,2.677,0,0,0-.373,1.584,2.371,2.371,0,0,0,.4,1.5,1.331,1.331,0,0,0,1.15.555,1.28,1.28,0,0,0,1.1-.555,2.506,2.506,0,0,0,.4-1.5" transform="translate(-357.589 -150.338)" fill="#0090df"/>
        <path id="Trazado_5057" data-name="Trazado 5057" d="M422.452,157.025v-.447a2.011,2.011,0,0,1-1.275.923,2.6,2.6,0,0,1-1.589-.133,2.949,2.949,0,0,1-1.354-1.172,4.051,4.051,0,0,1-.564-2.257,4.361,4.361,0,0,1,.748-2.65,2.873,2.873,0,0,1,2.4-1.016,3.338,3.338,0,0,1,2.338.686,2.935,2.935,0,0,1,1.077,2.532v3.72a3.1,3.1,0,0,1-3.415,3.191,2.994,2.994,0,0,1-2.995-2.268h1.918a1.468,1.468,0,0,0,1.51.672,1.437,1.437,0,0,0,.79-.514,2.163,2.163,0,0,0,.406-1.267m-3-3.032q0,1.819,1.051,2.018a1.434,1.434,0,0,0,1.55-.489,1.965,1.965,0,0,0,.341-.909,3.843,3.843,0,0,0,.014-1.226,2.436,2.436,0,0,0-.434-1.082,1.153,1.153,0,0,0-1-.475,1.212,1.212,0,0,0-1.208.658,3.43,3.43,0,0,0-.316,1.5" transform="translate(-403.681 -150.253)" fill="#0090df"/>
        <path id="Trazado_5058" data-name="Trazado 5058" d="M393.709,150.951a4.442,4.442,0,0,0-2.03-.451,2.983,2.983,0,0,0-2.48.916,2.663,2.663,0,0,0-.512,1.5h1.751a1.3,1.3,0,0,1,.258-.636,1.154,1.154,0,0,1,.921-.318,1.883,1.883,0,0,1,.881.162.61.61,0,0,1,.3.588.545.545,0,0,1-.391.516,2.875,2.875,0,0,1-.725.159l-.62.076a4.433,4.433,0,0,0-1.6.446,1.972,1.972,0,0,0-.994,1.85,1.909,1.909,0,0,0,.617,1.523,2.451,2.451,0,0,0,1.565.538c3.956.177,3.912-2.086,3.948-2.556v-2.6a1.734,1.734,0,0,0-.887-1.705m-.92,3.951a1.452,1.452,0,0,1-.519,1.253,1.894,1.894,0,0,1-1.094.343,1,1,0,0,1-.637-.207.8.8,0,0,1-.262-.672.829.829,0,0,1,.428-.77,2.7,2.7,0,0,1,.834-.247l.413-.077a2.931,2.931,0,0,0,.485-.125,1.806,1.806,0,0,0,.351-.174Z" transform="translate(-381.277 -150.428)" fill="#0090df"/>
        <path id="Trazado_5059" data-name="Trazado 5059" d="M455.046,151.287a3.768,3.768,0,0,0-5.314,0,4.286,4.286,0,0,0,0,5.192,3.81,3.81,0,0,0,5.314,0,4.293,4.293,0,0,0,0-5.192m-1.446,4.192a1.6,1.6,0,0,1-2.437,0,3.2,3.2,0,0,1,0-3.2,1.605,1.605,0,0,1,2.437,0,3.224,3.224,0,0,1,0,3.2" transform="translate(-427.606 -150.191)" fill="#0090df"/>
      </g>
    </g>
  </g>
</svg>
