<svg xmlns="http://www.w3.org/2000/svg" width="29.175" height="27.2" viewBox="0 0 29.175 27.2">
  <g id="order-icon" transform="translate(-1180.01 -444)">
    <g id="right-arrow" transform="translate(1048.01 471.2) rotate(-90)">
      <g id="Grupo_474" data-name="Grupo 474" transform="translate(0 132)">
        <path id="Trazado_4997" data-name="Trazado 4997" d="M26.889,137.836h0l-5.552-5.525a1.063,1.063,0,0,0-1.5,1.506l3.727,3.709H1.063a1.063,1.063,0,0,0,0,2.125h22.5l-3.727,3.709a1.063,1.063,0,0,0,1.5,1.506l5.552-5.525h0A1.063,1.063,0,0,0,26.889,137.836Z" transform="translate(0 -132)"/>
      </g>
    </g>
    <g id="right-arrow-2" data-name="right-arrow" transform="translate(1341.185 444) rotate(90)">
      <g id="Grupo_474-2" data-name="Grupo 474" transform="translate(0 132)">
        <path id="Trazado_4997-2" data-name="Trazado 4997" d="M26.889,137.836h0l-5.552-5.525a1.063,1.063,0,0,0-1.5,1.506l3.727,3.709H1.063a1.063,1.063,0,0,0,0,2.125h22.5l-3.727,3.709a1.063,1.063,0,0,0,1.5,1.506l5.552-5.525h0A1.063,1.063,0,0,0,26.889,137.836Z" transform="translate(0 -132)"/>
      </g>
    </g>
  </g>
</svg>
