<svg xmlns="http://www.w3.org/2000/svg" width="22" height="26.369" viewBox="0 0 22 26.369">
  <g id="user" transform="translate(0 0)">
    <path id="Trazado_5004" data-name="Trazado 5004" d="M93.383,12.7a6.146,6.146,0,0,0,4.491-1.861,6.146,6.146,0,0,0,1.861-4.491,6.146,6.146,0,0,0-1.861-4.491,6.35,6.35,0,0,0-8.981,0,6.146,6.146,0,0,0-1.861,4.49,6.146,6.146,0,0,0,1.861,4.491A6.148,6.148,0,0,0,93.383,12.7Zm-3.4-9.749a4.8,4.8,0,0,1,6.8,0,4.592,4.592,0,0,1,1.408,3.4,4.592,4.592,0,0,1-1.408,3.4,4.8,4.8,0,0,1-6.8,0,4.591,4.591,0,0,1-1.408-3.4,4.591,4.591,0,0,1,1.408-3.4Zm0,0" transform="translate(-82.55 0)" fill="#fff"/>
    <path id="Trazado_5005" data-name="Trazado 5005" d="M21.947,254.856a15.687,15.687,0,0,0-.214-1.666,13.129,13.129,0,0,0-.41-1.675,8.276,8.276,0,0,0-.689-1.562A5.89,5.89,0,0,0,19.6,248.6a4.579,4.579,0,0,0-1.492-.937,5.156,5.156,0,0,0-1.9-.345,1.933,1.933,0,0,0-1.032.438c-.309.2-.671.435-1.075.693a6.161,6.161,0,0,1-1.391.613,5.4,5.4,0,0,1-3.4,0,6.143,6.143,0,0,1-1.39-.613c-.4-.256-.762-.489-1.076-.694a1.931,1.931,0,0,0-1.032-.438,5.149,5.149,0,0,0-1.9.345A4.575,4.575,0,0,0,2.4,248.6a5.892,5.892,0,0,0-1.038,1.353,8.291,8.291,0,0,0-.689,1.563,13.159,13.159,0,0,0-.41,1.675,15.581,15.581,0,0,0-.214,1.667c-.035.5-.053,1.028-.053,1.557a4.379,4.379,0,0,0,1.3,3.313,4.681,4.681,0,0,0,3.351,1.222h12.7a4.681,4.681,0,0,0,3.351-1.222,4.377,4.377,0,0,0,1.3-3.313c0-.531-.018-1.055-.053-1.558Zm-2.313,3.751a3.152,3.152,0,0,1-2.286.8H4.651a3.152,3.152,0,0,1-2.286-.8,2.859,2.859,0,0,1-.821-2.193c0-.494.016-.982.049-1.45a14.054,14.054,0,0,1,.193-1.5,11.606,11.606,0,0,1,.36-1.477,6.75,6.75,0,0,1,.56-1.27,4.366,4.366,0,0,1,.763-1,3.037,3.037,0,0,1,.992-.617,3.556,3.556,0,0,1,1.217-.235c.054.029.15.084.307.185.318.207.684.443,1.089.7a7.656,7.656,0,0,0,1.746.78,6.947,6.947,0,0,0,4.354,0,7.665,7.665,0,0,0,1.747-.781c.414-.265.77-.494,1.088-.7.156-.1.252-.157.307-.185a3.558,3.558,0,0,1,1.217.235,3.042,3.042,0,0,1,.992.617,4.354,4.354,0,0,1,.763,1,6.727,6.727,0,0,1,.561,1.27,11.579,11.579,0,0,1,.361,1.477,14.171,14.171,0,0,1,.193,1.5h0c.033.467.049.954.049,1.45a2.859,2.859,0,0,1-.821,2.193Zm0,0" transform="translate(0 -234.579)" fill="#fff"/>
  </g>
</svg>
