<svg xmlns="http://www.w3.org/2000/svg" width="31.84" height="20.293" viewBox="0 0 31.84 20.293">
  <g id="view" transform="translate(0 -92.835)">
    <g id="Grupo_631" data-name="Grupo 631" transform="translate(0 92.835)">
      <g id="Grupo_630" data-name="Grupo 630" transform="translate(0 0)">
        <path id="Trazado_5188" data-name="Trazado 5188" d="M31.637,102.362c-.284-.389-7.062-9.527-15.718-9.527S.486,101.973.2,102.362a1.051,1.051,0,0,0,0,1.239c.284.389,7.062,9.527,15.718,9.527s15.433-9.138,15.718-9.527A1.049,1.049,0,0,0,31.637,102.362ZM15.92,111.029c-6.376,0-11.9-6.065-13.533-8.048C4.019,101,9.53,94.934,15.92,94.934s11.9,6.064,13.533,8.048C27.82,104.967,22.309,111.029,15.92,111.029Z" transform="translate(0 -92.835)" fill="#f2bcbd"/>
      </g>
    </g>
    <g id="Grupo_633" data-name="Grupo 633" transform="translate(9.622 96.684)">
      <g id="Grupo_632" data-name="Grupo 632" transform="translate(0 0)">
        <path id="Trazado_5189" data-name="Trazado 5189" d="M161.02,154.725a6.3,6.3,0,1,0,6.3,6.3A6.305,6.305,0,0,0,161.02,154.725Zm0,10.5a4.2,4.2,0,1,1,4.2-4.2A4.2,4.2,0,0,1,161.02,165.222Z" transform="translate(-154.722 -154.725)" fill="#f2bcbd"/>
      </g>
    </g>
  </g>
</svg>
