<svg xmlns="http://www.w3.org/2000/svg" width="19" height="18.996" viewBox="0 0 19 18.996">
  <path id="instagram-brands" d="M9.427,36.453a4.87,4.87,0,1,0,4.87,4.87A4.863,4.863,0,0,0,9.427,36.453Zm0,8.037a3.166,3.166,0,1,1,3.166-3.166,3.172,3.172,0,0,1-3.166,3.166Zm6.205-8.236A1.136,1.136,0,1,1,14.5,35.117,1.133,1.133,0,0,1,15.633,36.253Zm3.226,1.153a5.622,5.622,0,0,0-1.534-3.98,5.659,5.659,0,0,0-3.98-1.534c-1.568-.089-6.269-.089-7.837,0a5.65,5.65,0,0,0-3.98,1.53A5.64,5.64,0,0,0-.008,37.4c-.089,1.568-.089,6.269,0,7.837a5.622,5.622,0,0,0,1.534,3.98,5.666,5.666,0,0,0,3.98,1.534c1.568.089,6.269.089,7.837,0a5.622,5.622,0,0,0,3.98-1.534,5.659,5.659,0,0,0,1.534-3.98C18.947,43.671,18.947,38.975,18.858,37.406Zm-2.026,9.516a3.206,3.206,0,0,1-1.806,1.806c-1.25.5-4.218.381-5.6.381s-4.353.11-5.6-.381a3.206,3.206,0,0,1-1.806-1.806c-.5-1.25-.381-4.218-.381-5.6s-.11-4.353.381-5.6a3.206,3.206,0,0,1,1.806-1.806c1.25-.5,4.218-.381,5.6-.381s4.353-.11,5.6.381a3.206,3.206,0,0,1,1.806,1.806c.5,1.25.381,4.218.381,5.6S17.328,45.676,16.832,46.922Z" transform="translate(0.075 -31.825)" fill="#fff"/>
</svg>
