<svg xmlns="http://www.w3.org/2000/svg" width="169.344" height="38.048" viewBox="0 0 169.344 38.048">
  <path id="Trazado_1940" data-name="Trazado 1940" d="M2.624,9.248a.886.886,0,0,0,.288-.032.944.944,0,0,0,.64-.928A.886.886,0,0,0,3.52,8a24.521,24.521,0,0,1-.192-3.936c0-3.328.16-8.192.448-13.152.064-1.44.128-3.04.288-4.416.32-3.3,2.08-9.088,5.312-10.752a1.591,1.591,0,0,1,.512-.1c1.7,0,2.176,4.032,2.176,8.32A64.219,64.219,0,0,1,11.392-6.5c-2.016.384-3.52.928-3.52,2.336v.1A1.714,1.714,0,0,0,9.5-2.624l.448.032c2.08,0,3.616-2.112,4.352-3.872,2.688-.416,5.44-.992,6.5-2.816l.032-.128a.214.214,0,0,0-.128-.224l-.128-.032a.214.214,0,0,0-.224.128c-.9,1.536-3.36,2.112-5.824,2.528a25.472,25.472,0,0,0,1.248-8.7c0-2.944-.96-9.248-4.416-9.536h-.32c-3.488,0-5.824,4.9-6.656,7.648.32-3.68.7-6.848,1.088-8.832a1.968,1.968,0,0,0,.032-.416A1.98,1.98,0,0,0,3.936-28.7a2.436,2.436,0,0,0-.672-.1,1.949,1.949,0,0,0-2.016,1.728C.512-24.032,0-16,0-8.288,0-1.12.416,5.792,1.472,8.32A1.418,1.418,0,0,0,2.624,9.248ZM9.664-3.136c-.512-.064-1.248-.352-1.28-.96v-.032c0-.992,1.216-1.472,2.88-1.824C10.848-4.352,10.3-3.3,9.664-3.136Zm17.28,4.384a1.017,1.017,0,0,0,.416-.064c.032,0,.064-.032.1-.064,1.5-.992,4.928-8.192,6.464-10.432l.064-.16a.275.275,0,0,0-.256-.256A.269.269,0,0,0,33.5-9.6C32.416-8.032,27.872.608,27.264.672c-.16,0-.224-.224-.224-.608,0-2.72,2.4-10.5,2.528-11.936,0-.7-.768-1.152-1.536-1.152a1.324,1.324,0,0,0-1.344.96,7.872,7.872,0,0,0-.224.928,2.815,2.815,0,0,0-2.272-1.248,4.57,4.57,0,0,0-3.712,2.3,8.114,8.114,0,0,0-1.056,3.968c0,1.6.576,2.848,1.6,2.848C23.04-3.3,25.056-7.136,26.016-8.9a39.337,39.337,0,0,0-.768,6.4C25.248-.512,25.632,1.184,26.944,1.248ZM21.152-3.776a.71.71,0,0,1-.032-.288A14.252,14.252,0,0,1,22.528-8.48c.512-1.056,1.472-2.976,2.528-2.976.384,0,.8.256,1.216.96C25.5-9.056,22.976-3.968,21.152-3.776Zm14.4,2.5c1.632-.128,2.4-1.76,2.72-3.1a6.524,6.524,0,0,0,1.792-.7,9.4,9.4,0,0,0,3.9-4.256L44-9.44a.241.241,0,0,0-.16-.224L43.712-9.7a.241.241,0,0,0-.224.16,8.836,8.836,0,0,1-3.68,4,5.649,5.649,0,0,1-1.44.576A14.77,14.77,0,0,0,38.56-7.2c0-3.68-1.92-5.184-3.744-5.184a3.01,3.01,0,0,0-3.1,3.04,4.765,4.765,0,0,0,.672,2.336,7.732,7.732,0,0,0-.224,1.792,5.533,5.533,0,0,0,.384,2.08,2.756,2.756,0,0,0,2.72,1.856Zm-.032-.544h-.064c-.928,0-1.184-1.28-1.184-2.336a6.816,6.816,0,0,1,.064-.864,4.1,4.1,0,0,0,2.528.8l.832-.064C37.376-3.04,36.9-1.856,35.52-1.824ZM36.9-4.768a3.98,3.98,0,0,1-2.464-.8A8.4,8.4,0,0,1,35.9-9.344a.851.851,0,0,0,.192-.512c0-.544-.7-.992-1.344-.992a.947.947,0,0,0-.832.384,9.106,9.106,0,0,0-1.312,2.688,4.439,4.439,0,0,1-.32-1.6,2.362,2.362,0,0,1,2.4-2.5c1.6,0,3.392,1.408,3.392,4.768a12.336,12.336,0,0,1-.256,2.272C37.5-4.8,37.184-4.768,36.9-4.768Zm12.48,9.184c3.68,0,8.9-10.944,10.208-13.792l.032-.1a.28.28,0,0,0-.288-.256A.214.214,0,0,0,59.1-9.6c-.8,1.792-6.56,13.376-9.376,13.376l-.32-.064c-1.76-.64-2.208-5.7-2.208-10.272a65.165,65.165,0,0,1,.32-6.752,9.66,9.66,0,0,0,3.136.544c5.472,0,8.256-5.44,8.256-9.856,0-3.008-1.312-5.536-3.9-5.536h-.064c-8.576.128-11.424,10.72-11.52,19.232v.16c0,3.232.96,13.056,5.92,13.184Zm1.28-17.7a9.443,9.443,0,0,1-3.072-.544c.512-4.128,2.176-13.5,7.392-13.824h.16c2.144,0,3.232,2.272,3.232,4.992C58.368-18.5,55.872-13.28,50.656-13.28ZM65.728,1.248a1.017,1.017,0,0,0,.416-.064c.032,0,.064-.032.1-.064,1.5-.992,4.928-8.192,6.464-10.432l.064-.16a.275.275,0,0,0-.256-.256.269.269,0,0,0-.224.128C71.2-8.032,66.656.608,66.048.672c-.16,0-.224-.224-.224-.608,0-2.72,2.4-10.5,2.528-11.936,0-.7-.768-1.152-1.536-1.152a1.324,1.324,0,0,0-1.344.96,7.872,7.872,0,0,0-.224.928,2.815,2.815,0,0,0-2.272-1.248,4.57,4.57,0,0,0-3.712,2.3,8.114,8.114,0,0,0-1.056,3.968c0,1.6.576,2.848,1.6,2.848C61.824-3.3,63.84-7.136,64.8-8.9a39.337,39.337,0,0,0-.768,6.4C64.032-.512,64.416,1.184,65.728,1.248ZM59.936-3.776a.71.71,0,0,1-.032-.288A14.252,14.252,0,0,1,61.312-8.48c.512-1.056,1.472-2.976,2.528-2.976.384,0,.8.256,1.216.96C64.288-9.056,61.76-3.968,59.936-3.776ZM102.048,8l.544-.032c3.1-.416,7.008-13.728,8.96-17.248a.192.192,0,0,0,.032-.128.269.269,0,0,0-.128-.224l-.128-.032a.214.214,0,0,0-.224.128c-1.792,3.2-5.984,16.9-8.608,16.96-.7,0-.96-1.312-.96-3.424,0-5.6,1.824-16.832,1.824-24.512,0-4.64-.672-7.968-2.816-7.968h-.064c-2.784.064-6.176,5.568-7.136,7.3A54.032,54.032,0,0,0,86.624.64a15.714,15.714,0,0,1-.1-1.824,65.6,65.6,0,0,1,2.624-16.544l.064-.384a2.22,2.22,0,0,0-1.44-1.824,2.259,2.259,0,0,0-.9-.192,1.576,1.576,0,0,0-1.6,1.248A49.89,49.89,0,0,0,83.392-4.992,32.467,32.467,0,0,0,84.544,4.1a1.424,1.424,0,0,0,1.344,1.088h.128A1.207,1.207,0,0,0,87.1,4l-.032-.224V3.232c0-8.064,2.816-17.28,6.72-24.16.1-.224,4.032-6.656,5.824-6.656a.618.618,0,0,1,.48.224,4.1,4.1,0,0,1,.416,2.24A80.763,80.763,0,0,1,99.36-15.2,90.15,90.15,0,0,0,97.76-.992C97.76,3.84,98.688,8,102.048,8ZM112.992.9a1.572,1.572,0,0,0,.864-.256c2.368-1.664,5.664-7.9,6.976-9.984l.032-.128a.275.275,0,0,0-.256-.256c-.1,0-.16.064-.224.16C119.776-8.448,114.816.1,113.6.1c-.16,0-.256-.1-.288-.384l-.032-.576a85.6,85.6,0,0,1,1.088-9.28l.032-.224c0-.864-.8-1.28-1.6-1.28a1.617,1.617,0,0,0-1.632.928,25.92,25.92,0,0,0-.384,4.928C110.784-2.624,111.232.864,112.992.9Zm.384-14.4a1.3,1.3,0,0,0,1.312-1.312,1.291,1.291,0,0,0-1.312-1.28,1.284,1.284,0,0,0-1.28,1.28A1.291,1.291,0,0,0,113.376-13.5ZM123.1-1.7a3.478,3.478,0,0,0,.576-.032c2.144-.384,5.248-5.536,6.816-7.584a.176.176,0,0,0,.1-.16.231.231,0,0,0-.128-.192.243.243,0,0,0-.128-.064.29.29,0,0,0-.224.1c-1.5,1.92-4.576,7.136-6.5,7.36h-.1c-.992,0-1.376-1.376-1.376-3.072,0-2.752,1.024-6.336,2.144-6.5.48.064.64.256.64.64l-.032.384a.219.219,0,0,0,.224.224h.064c.1,0,.224-.1.224-.192l.032-.288a1.215,1.215,0,0,0-1.152-1.28l-.448-.032c-1.92,0-3.232,1.312-3.776,3.36a11.8,11.8,0,0,0-.416,2.944C119.648-3.1,121.248-1.7,123.1-1.7Zm9.024.416c1.632-.128,2.4-1.76,2.72-3.1a6.524,6.524,0,0,0,1.792-.7,9.4,9.4,0,0,0,3.9-4.256l.032-.1a.241.241,0,0,0-.16-.224l-.128-.032a.241.241,0,0,0-.224.16,8.836,8.836,0,0,1-3.68,4,5.649,5.649,0,0,1-1.44.576,14.771,14.771,0,0,0,.192-2.24c0-3.68-1.92-5.184-3.744-5.184a3.01,3.01,0,0,0-3.1,3.04,4.765,4.765,0,0,0,.672,2.336,7.732,7.732,0,0,0-.224,1.792,5.533,5.533,0,0,0,.384,2.08,2.756,2.756,0,0,0,2.72,1.856Zm-.032-.544h-.064c-.928,0-1.184-1.28-1.184-2.336a6.817,6.817,0,0,1,.064-.864,4.1,4.1,0,0,0,2.528.8l.832-.064C133.952-3.04,133.472-1.856,132.1-1.824Zm1.376-2.944a3.98,3.98,0,0,1-2.464-.8,8.4,8.4,0,0,1,1.472-3.776.851.851,0,0,0,.192-.512c0-.544-.7-.992-1.344-.992a.947.947,0,0,0-.832.384,9.107,9.107,0,0,0-1.312,2.688,4.439,4.439,0,0,1-.32-1.6,2.362,2.362,0,0,1,2.4-2.5c1.6,0,3.392,1.408,3.392,4.768a12.336,12.336,0,0,1-.256,2.272C134.08-4.8,133.76-4.768,133.472-4.768Zm12.48,9.184c3.68,0,8.9-10.944,10.208-13.792l.032-.1a.28.28,0,0,0-.288-.256.214.214,0,0,0-.224.128c-.8,1.792-6.56,13.376-9.376,13.376l-.32-.064c-1.76-.64-2.208-5.7-2.208-10.272a65.169,65.169,0,0,1,.32-6.752,9.66,9.66,0,0,0,3.136.544c5.472,0,8.256-5.44,8.256-9.856,0-3.008-1.312-5.536-3.9-5.536h-.064C142.944-28.032,140.1-17.44,140-8.928v.16c0,3.232.96,13.056,5.92,13.184Zm1.28-17.7a9.443,9.443,0,0,1-3.072-.544c.512-4.128,2.176-13.5,7.392-13.824h.16c2.144,0,3.232,2.272,3.232,4.992C154.944-18.5,152.448-13.28,147.232-13.28ZM162.3,1.248a1.017,1.017,0,0,0,.416-.064c.032,0,.064-.032.1-.064,1.5-.992,4.928-8.192,6.464-10.432l.064-.16a.275.275,0,0,0-.256-.256.269.269,0,0,0-.224.128C167.776-8.032,163.232.608,162.624.672c-.16,0-.224-.224-.224-.608,0-2.72,2.4-10.5,2.528-11.936,0-.7-.768-1.152-1.536-1.152a1.324,1.324,0,0,0-1.344.96,7.869,7.869,0,0,0-.224.928,2.815,2.815,0,0,0-2.272-1.248,4.57,4.57,0,0,0-3.712,2.3,8.114,8.114,0,0,0-1.056,3.968c0,1.6.576,2.848,1.6,2.848,2.016-.032,4.032-3.872,4.992-5.632a39.338,39.338,0,0,0-.768,6.4C160.608-.512,160.992,1.184,162.3,1.248Zm-5.792-5.024a.71.71,0,0,1-.032-.288,14.252,14.252,0,0,1,1.408-4.416c.512-1.056,1.472-2.976,2.528-2.976.384,0,.8.256,1.216.96C160.864-9.056,158.336-3.968,156.512-3.776Z" transform="translate(0 28.8)" fill="#fff"/>
</svg>
