<svg xmlns="http://www.w3.org/2000/svg" width="156" height="55.934" viewBox="0 0 156 55.934">
  <g id="rayo" transform="translate(-602.703 -163.705)">
    <g id="Grupo_67" data-name="Grupo 67" transform="translate(659.336 176.785)">
      <g id="Grupo_63" data-name="Grupo 63" transform="translate(41.895 0.864)">
        <path id="Trazado_121" data-name="Trazado 121" d="M710.206,174.5H703.36a2,2,0,0,0-1.8,1.145l-6.472,15.4-7.529-16.55H679l12.012,24.712-6.252,13.022h6.82a2,2,0,0,0,1.829-1.2v.01Z" transform="translate(-679 -174.503)" fill="#221a17"/>
      </g>
      <g id="Grupo_64" data-name="Grupo 64" transform="translate(69.713)">
        <path id="Trazado_122" data-name="Trazado 122" d="M704.766,178.088a15.341,15.341,0,0,1,21.206,0,15.784,15.784,0,0,1,0,21.495,15.341,15.341,0,0,1-21.206,0,15.785,15.785,0,0,1,0-21.495Zm5.515,16.668a7.148,7.148,0,0,0,10.175,0,9.405,9.405,0,0,0,0-11.841,7.148,7.148,0,0,0-10.175,0,9.405,9.405,0,0,0,0,11.841Z" transform="translate(-700.542 -173.834)" fill="#221a17"/>
      </g>
      <g id="Grupo_65" data-name="Grupo 65" transform="translate(0 0.634)">
        <path id="Trazado_123" data-name="Trazado 123" d="M662.016,174.325q-5.978,0-8.044,4.424v-4.194h-5.443a2,2,0,0,0-1.971,2v26.276h5.632a2.006,2.006,0,0,0,2.007-2.007l0-10.924q0-4.254,2.012-6.12a7.46,7.46,0,0,1,5.288-1.869,11.649,11.649,0,0,1,2.3.23v-7.7C663.033,174.362,662.438,174.325,662.016,174.325Z" transform="translate(-646.558 -174.325)" fill="#221a17"/>
      </g>
      <g id="Grupo_66" data-name="Grupo 66" transform="translate(18.217)">
        <path id="Trazado_124" data-name="Trazado 124" d="M685.665,198.491V184.583a10.526,10.526,0,0,0-2.988-7.731q-2.991-3.016-9.311-3.018a12.447,12.447,0,0,0-8.506,2.818,10.034,10.034,0,0,0-3.513,5.983l6.764,1.428a4.915,4.915,0,0,1,1.489-2.757,6.35,6.35,0,0,1,7.357-.285,3.289,3.289,0,0,1,1.236,2.642q0,1.726-2.127,2.012l-6.954,1.033a11.221,11.221,0,0,0-6.09,2.76,7.527,7.527,0,0,0-2.357,5.8,7.967,7.967,0,0,0,2.672,5.979,9.826,9.826,0,0,0,7.041,2.527q5.631,0,8.333-4.194c0,.639.026,1.2.065,1.724a1.979,1.979,0,0,0,1.938,1.666h5.3A25.715,25.715,0,0,1,685.665,198.491Zm-7.472-6.954q0,3.506-1.752,5.026a6.537,6.537,0,0,1-4.454,1.525,3.705,3.705,0,0,1-2.7-.949,3.113,3.113,0,0,1-.978-2.327q0-3.047,3.506-3.564l6.379-.976Z" transform="translate(-660.665 -173.834)" fill="#221a17"/>
      </g>
    </g>
    <g id="Grupo_74" data-name="Grupo 74" transform="translate(602.703 163.705)">
      <g id="Grupo_68" data-name="Grupo 68" transform="translate(0 6.345)">
        <path id="Trazado_125" data-name="Trazado 125" d="M606.1,190.241a19.616,19.616,0,0,1,9.606-16.845l2.173-4.778a23.005,23.005,0,0,0,2.97,44.121l-.026-3.516A19.642,19.642,0,0,1,606.1,190.241Z" transform="translate(-602.703 -168.618)" fill="#fcd902"/>
      </g>
      <g id="Grupo_69" data-name="Grupo 69" transform="translate(28.113 5.523)">
        <path id="Trazado_126" data-name="Trazado 126" d="M642.417,190.426a23.057,23.057,0,0,0-17.944-22.444v3.51a19.6,19.6,0,0,1,4.056,36.289l-1.985,4.522A23.061,23.061,0,0,0,642.417,190.426Z" transform="translate(-624.473 -167.982)" fill="#fcd902"/>
      </g>
      <g id="Grupo_70" data-name="Grupo 70" transform="translate(9.645 26.281)">
        <circle id="Elipse_13" data-name="Elipse 13" cx="1.719" cy="1.719" r="1.719" fill="#fcd902"/>
      </g>
      <g id="Grupo_71" data-name="Grupo 71" transform="translate(32.931 26.281)">
        <circle id="Elipse_14" data-name="Elipse 14" cx="1.719" cy="1.719" r="1.719" fill="#fcd902"/>
      </g>
      <g id="Grupo_72" data-name="Grupo 72" transform="translate(7.196 31.686)">
        <path id="Trazado_127" data-name="Trazado 127" d="M635.974,188.246h-2.557a1.7,1.7,0,0,0-1.6,1.009l-5.993,13.509V189.943a1.7,1.7,0,0,0-1.7-1.7H609.977a1.7,1.7,0,1,0,0,3.4h12.441l0,20.845,1.754-.005a1.7,1.7,0,0,0,1.5-1Z" transform="translate(-608.275 -188.242)" fill="#fcd902"/>
      </g>
      <g id="Grupo_73" data-name="Grupo 73" transform="translate(11.115)">
        <path id="Trazado_128" data-name="Trazado 128" d="M611.31,187.948h2.558a1.7,1.7,0,0,0,1.6-1.009l5.995-13.509v12.821a1.7,1.7,0,0,0,1.7,1.7h14.142a1.7,1.7,0,0,0,0-3.4H624.867l0-20.844-1.755,0a1.7,1.7,0,0,0-1.5,1Z" transform="translate(-611.31 -163.705)" fill="#fcd902"/>
      </g>
    </g>
  </g>
</svg>
