<svg xmlns="http://www.w3.org/2000/svg" width="18.77" height="18.77" viewBox="0 0 18.77 18.77">
  <path id="whatsapp-brands" d="M15.959,34.728A9.3,9.3,0,0,0,1.32,45.952L0,50.77l4.931-1.295a9.273,9.273,0,0,0,4.445,1.131h0a9.242,9.242,0,0,0,6.578-15.879ZM9.381,49.04a7.717,7.717,0,0,1-3.938-1.077L5.162,47.8l-2.924.767.779-2.853-.184-.293A7.746,7.746,0,1,1,17.2,41.305,7.817,7.817,0,0,1,9.381,49.04Zm4.24-5.79c-.23-.117-1.374-.679-1.588-.754s-.369-.117-.524.117-.6.754-.737.913-.272.176-.5.059a6.326,6.326,0,0,1-3.163-2.765c-.239-.411.239-.381.683-1.269a.431.431,0,0,0-.021-.406c-.059-.117-.524-1.261-.716-1.726s-.381-.39-.524-.4-.289-.008-.444-.008a.861.861,0,0,0-.62.289,2.612,2.612,0,0,0-.813,1.94,4.553,4.553,0,0,0,.947,2.4,10.385,10.385,0,0,0,3.972,3.511,4.548,4.548,0,0,0,2.79.582,2.38,2.38,0,0,0,1.567-1.106,1.944,1.944,0,0,0,.134-1.106C14.006,43.421,13.851,43.363,13.621,43.25Z" transform="translate(0 -32)" fill="#fff"/>
</svg>
