<svg xmlns="http://www.w3.org/2000/svg" width="258" height="188" viewBox="0 0 258 188"><g transform="translate(-986 -1062)"><g transform="translate(-277 -1476)"><g transform="translate(-810.028 912.202)"><g transform="translate(-20)"><path d="M0,20.2A1.019,1.019,0,0,1-1.018,19.18V0A1.019,1.019,0,0,1,0-1.018,1.019,1.019,0,0,1,1.018,0V19.18A1.019,1.019,0,0,1,0,20.2Z" transform="translate(2140.475 1657.798)" fill="#051518"/><path d="M19.184,1.018H0A1.019,1.019,0,0,1-1.018,0,1.019,1.019,0,0,1,0-1.018H19.184A1.019,1.019,0,0,1,20.2,0,1.019,1.019,0,0,1,19.184,1.018Z" transform="translate(2130.883 1667.389)" fill="#051518"/></g><path d="M2330.779,1729.077h-.006a8.9,8.9,0,1,1,.006,0Zm0-15.765a6.864,6.864,0,0,0,0,13.728h0a6.864,6.864,0,0,0,0-13.728Z" transform="translate(-10)" fill="#051518"/><g transform="translate(-29 10)"><path d="M54.919,1.018H0A1.019,1.019,0,0,1-1.019,0,1.019,1.019,0,0,1,0-1.018H54.919A1.019,1.019,0,0,1,55.938,0,1.019,1.019,0,0,1,54.919,1.018Z" transform="translate(2303.762 1779.14)" fill="#051518"/><path d="M54.918,1.018H0A1.019,1.019,0,0,1-1.019,0,1.019,1.019,0,0,1,0-1.018H54.918A1.019,1.019,0,0,1,55.937,0,1.019,1.019,0,0,1,54.918,1.018Z" transform="translate(2281.85 1787.107)" fill="#051518"/></g></g><rect width="258" height="188" transform="translate(1263 2538)" fill="none"/></g><g transform="translate(5.567 134)"><rect width="98" height="45" transform="translate(1062 1012)" fill="#fae7e8"/><rect width="98" height="13" transform="translate(1063 1056)" fill="#f2bcbd"/><g transform="translate(1061.433 972.824)"><path d="M95.966,26.352H70.849a7.336,7.336,0,0,0-7.177-5.859H36.328a7.336,7.336,0,0,0-7.177,5.859H4.035A4.039,4.039,0,0,0,0,30.386V93.595a4.039,4.039,0,0,0,4.035,4.034H39.194L37.218,103.7h-4.1a5.092,5.092,0,0,0-5.087,5.086,3.706,3.706,0,0,0,3.7,3.7H68.27a3.706,3.706,0,0,0,3.7-3.7,5.092,5.092,0,0,0-5.087-5.086h-4.1l-1.976-6.072H95.965A4.039,4.039,0,0,0,100,93.595V30.386a4.038,4.038,0,0,0-4.034-4.034Zm-40.11-2.93h7.816a4.395,4.395,0,1,1,0,8.789H55.856a7.309,7.309,0,0,0,0-8.789Zm-5.855,0a4.395,4.395,0,1,1-4.395,4.395A4.4,4.4,0,0,1,50,23.423Zm-13.672,0h7.816a7.309,7.309,0,0,0,0,8.789H36.328a4.395,4.395,0,1,1,0-8.789ZM66.886,106.63a2.159,2.159,0,0,1,2.157,2.156.773.773,0,0,1-.773.772H31.73a.773.773,0,0,1-.773-.772,2.159,2.159,0,0,1,2.157-2.156h10.3a1.465,1.465,0,1,0,0-2.93H40.3l1.976-6.072H57.726L59.7,103.7H50.179a1.465,1.465,0,1,0,0,2.93ZM97.071,38.069H29.492a1.465,1.465,0,0,0,0,2.93H97.071V82.982H85.987a1.465,1.465,0,1,0,0,2.93H97.071v7.682a1.106,1.106,0,0,1-1.1,1.1H4.035a1.106,1.106,0,0,1-1.1-1.1V85.912H79.247a1.465,1.465,0,0,0,0-2.93h-5.6A9.577,9.577,0,0,0,66.73,76.79l-.032-.007L55.593,74.53a13.134,13.134,0,0,1-.067-2.759c3.892-3.255,5.788-6.139,5.788-8.8,0-.289-.012-.573-.037-.864-.062-.638-.1-3.577-.086-7.148A10.879,10.879,0,0,0,50.312,44.043h0A10.879,10.879,0,0,0,39.429,54.955c.012,3.573-.023,6.515-.087,7.169-.023.265-.035.549-.035.843,0,2.661,1.89,5.54,5.767,8.786A12.665,12.665,0,0,1,45,74.482l-11.3,2.3-.031.007a9.577,9.577,0,0,0-6.918,6.194H2.93V41H22.788a1.465,1.465,0,0,0,0-2.93H2.93V30.386a1.106,1.106,0,0,1,1.1-1.1H29.151a7.336,7.336,0,0,0,7.177,5.859H63.672a7.336,7.336,0,0,0,7.177-5.859H95.965a1.106,1.106,0,0,1,1.1,1.1v7.683ZM42.359,54.945a7.949,7.949,0,0,1,7.951-7.972h0a7.949,7.949,0,0,1,7.95,7.972c-.01,3,.011,6.537.1,7.426.016.19.024.39.024.6,0,1.761-1.849,4.226-5.209,6.945a4.536,4.536,0,0,1-2.857,1.013h-.009a4.532,4.532,0,0,1-2.868-1.018c-3.356-2.715-5.2-5.18-5.2-6.94,0-.209.008-.406.022-.572.089-.909.11-4.445.1-7.45ZM52.743,75.314l-.22.235a3.064,3.064,0,0,1-2.206,1.058H50.3A3.07,3.07,0,0,1,48.1,75.543l-.256-.275a16.029,16.029,0,0,0,.182-1.772,7.428,7.428,0,0,0,2.27.358h.029a7.453,7.453,0,0,0,2.243-.348,15.683,15.683,0,0,0,.177,1.808Zm-6.994,2c.072.077.143.155.215.232A5.951,5.951,0,0,0,50.3,79.537h.029a5.948,5.948,0,0,0,4.332-1.98c.06-.063.118-.127.177-.191L66.1,79.65a6.641,6.641,0,0,1,4.363,3.332H29.929a6.64,6.64,0,0,1,4.363-3.333Z"/></g></g></g></svg>