<svg xmlns="http://www.w3.org/2000/svg" width="206" height="103.834" viewBox="0 0 206 103.834">
  <g id="Grupo_202" data-name="Grupo 202" transform="translate(-51.883 -153)">
    <path id="Trazado_1807" data-name="Trazado 1807" d="M69.763,215.251a5.179,5.179,0,0,0-2.776-.56.258.258,0,0,1-.258-.063c-.217-.3-.614-.305-1.026-.326-.156-.008-.412-.086-.439-.162-.192-.54-.766-.411-1.247-.317a8.473,8.473,0,0,1-1.263.089l-.587-.219h0c-.137-.245-1.048-.191-.566-.682.056-.058-.039-.117-.155-.138a5.139,5.139,0,0,0-3.226-.035,4.558,4.558,0,0,1-.828.182,1.974,1.974,0,0,1,.33.119,4.617,4.617,0,0,0,3.345.793h0a4.858,4.858,0,0,0,3.511.343c-.023.1-.015.155-.042.165-.282.1-.491.23-.388.48.12.295.408.163.668.134.239-.027.265.05.266.209,0,.383.327.543.889.513.453-.025.9.062,1.345.075.48.014.69.4,1.152.32a8.425,8.425,0,0,1,1.907.009,3.174,3.174,0,0,0,1.035-.059C70.758,215.852,69.935,215.821,69.763,215.251Z" transform="translate(0.956 10.333)" fill="#fff"/>
    <path id="Trazado_1808" data-name="Trazado 1808" d="M62.722,202.474c.373-.016.6-.03.824-.036.181,0,.372,0,.459-.13.1-.142-.1-.205-.212-.292a2.207,2.207,0,0,0-2.233-.117c-.154.075-.39.147-.346.306.05.184.325.188.534.208C62.119,202.449,62.494,202.461,62.722,202.474Z" transform="translate(1.617 8.438)" fill="#fff"/>
    <path id="Trazado_1809" data-name="Trazado 1809" d="M234.1,157.929a1.609,1.609,0,0,1,1.626.266,1.549,1.549,0,0,0,.454.087c.412-.009.826-.2.906-.5s-.424-.276-.728-.305a6.225,6.225,0,0,0-2.249.056c-.222.059-.268.129-.252.257A.173.173,0,0,0,234.1,157.929Z" transform="translate(-88.2 0.764)" fill="#fff"/>
    <path id="Trazado_1810" data-name="Trazado 1810" d="M86.226,168.71a3.42,3.42,0,0,0-1.989.345,1.615,1.615,0,0,1-1.166.367c-.543.038-1.08.622-1.636.012a.279.279,0,0,0-.135.029.44.44,0,0,1-.613-.055c-.062-.056-.237-.087-.252-.033-.171.595-.875.253-1.32.359h-.146a1.423,1.423,0,0,0-.221-.023c-.636.023-.932.557-1.644.509-.093-.007.034.178.168.211a1.389,1.389,0,0,0,.735-.059c.351-.11.366.034.371.2-.06.163-.323.18-.486.29a1.242,1.242,0,0,0,.806.072c1.592-.476,3.323-.611,4.973-.942a2.767,2.767,0,0,0,1.375-.574c.228,0,.41.34.435.205.086-.444.69-.217.921-.412v-.192C86.346,168.914,86.336,168.758,86.226,168.71ZM82.3,169.784c-.1,0-.2.011-.3.019a2.757,2.757,0,0,1,.445-.046A.7.7,0,0,1,82.3,169.784Z" transform="translate(28.075 2.716)" fill="#fff"/>
    <path id="Trazado_1811" data-name="Trazado 1811" d="M135.552,155.461c.747-.047,1.5-.088,2.245-.129.167-.008.413.041.418-.123s-.259-.244-.438-.2a6.8,6.8,0,0,1-1.833-.016,2.41,2.41,0,0,0-.516.046c-.194.062-.6,0-.5.275C135.006,155.544,135.3,155.477,135.552,155.461Z" transform="translate(-40.251 0.345)" fill="#fff"/>
    <path id="Trazado_1812" data-name="Trazado 1812" d="M103.527,161.966c-.155-.008-.11-.257-.264-.157a1.084,1.084,0,0,0-.425.512c-.046.123.167.189.373.135a15.962,15.962,0,0,0,2.181-.243c.742-.041.519-.289.251-.546l0,0c-.833-.275-1.317-.183-1.732.317C103.791,162.123,103.656,161.966,103.527,161.966Z" transform="translate(54.181 1.476)" fill="#fff"/>
    <path id="Trazado_1813" data-name="Trazado 1813" d="M124.6,157.247a24.5,24.5,0,0,0-3.329-.02c-.19,0-.377,0-.361.174.013.143.178.119.336.126A9.811,9.811,0,0,0,124.6,157.247Z" transform="translate(73.742 0.724)" fill="#fff"/>
    <path id="Trazado_1814" data-name="Trazado 1814" d="M85.563,169.614a18.95,18.95,0,0,0,2.679-.434c.391-.3.982-.228,1.466-.367a19.066,19.066,0,0,1,3.77-.518c.23-.019.534.025.508-.177-.02-.151-.029-.352-.482-.407a9.287,9.287,0,0,0-1.764.126,2.043,2.043,0,0,0-1.38.2l-.74.113a1.894,1.894,0,0,0-.959.04c-.187.06-.464.019-.493.246-.052.394-.074.4-.617.228a1.635,1.635,0,0,0-2.056.51c-.133.089-.223.225-.458.205C85.06,169.613,85.3,169.644,85.563,169.614Z" transform="translate(36.843 2.548)" fill="#fff"/>
    <path id="Trazado_1815" data-name="Trazado 1815" d="M85.035,169.124l-.011.008v0h.015l0-.012h0Z" transform="translate(34.484 2.796)" fill="#fff"/>
    <path id="Trazado_1816" data-name="Trazado 1816" d="M125.4,155.46c.393-.065.25-.373.392-.56.047-.06-.115-.155-.169-.128a4.392,4.392,0,0,1-1.807.128c.187.18.406.2.473.34C124.494,155.669,125,155.526,125.4,155.46Z" transform="translate(75.902 0.307)" fill="#fff"/>
    <path id="Trazado_1817" data-name="Trazado 1817" d="M102.213,161.2c.464.022.97.163,1.338-.142a.856.856,0,0,1,.92-.275c.137.039.29-.028.249-.17-.426.115-.691-.425-1.161-.133a1.544,1.544,0,0,1-.9-.1c-.283-.111.016-.537-.437-.48-.377.047-.09.381-.214.569-.245.015-.5.014-.733.05-.189.029-.469.2-.31.253C101.391,160.9,101.492,161.492,102.213,161.2Z" transform="translate(52.429 1.194)" fill="#fff"/>
    <path id="Trazado_1818" data-name="Trazado 1818" d="M131.345,157.337a7.552,7.552,0,0,0,1.69-.135,6.9,6.9,0,0,0-1.684-.29c-.2-.026-.4.1-.4.252S131.185,157.338,131.345,157.337Z" transform="translate(-38.192 0.678)" fill="#fff"/>
    <path id="Trazado_1819" data-name="Trazado 1819" d="M139.946,154.535c-.136-.137-.195-.356-.513-.31s-.432.285-.38.441c.046.137-.028.257.008.38a.769.769,0,0,0,.594-.149C139.792,154.792,140.207,154.8,139.946,154.535Z" transform="translate(-41.967 0.211)" fill="#fff"/>
    <path id="Trazado_1820" data-name="Trazado 1820" d="M126.485,158.628c.379.006.351-.232.394-.378-.034-.18.031-.38-.307-.376-.3,0-.574.11-.535.338A.43.43,0,0,0,126.485,158.628Z" transform="translate(77.609 0.845)" fill="#fff"/>
    <path id="Trazado_1821" data-name="Trazado 1821" d="M95.957,166.722l-2.483.3.033.138a8.882,8.882,0,0,0,2.484-.3Z" transform="translate(44.055 2.38)" fill="#fff"/>
    <path id="Trazado_1822" data-name="Trazado 1822" d="M107.195,157.343a.43.43,0,0,0,.509-.231c-.111-.244-.419-.278-.722-.278-.211,0-.5,0-.481.225C106.529,157.35,106.941,157.294,107.195,157.343Z" transform="translate(57.31 0.665)" fill="#fff"/>
    <path id="Trazado_1823" data-name="Trazado 1823" d="M107.393,159.318c-.171-.048-.433.013-.412.2.019.168.163.264.448.276.725.032.552-.339.662-.631C107.828,159.224,107.695,159.4,107.393,159.318Z" transform="translate(57.776 1.069)" fill="#fff"/>
    <path id="Trazado_1824" data-name="Trazado 1824" d="M234.808,156.758c.252-.158.332.029.485.083.21.076.388.236.669.146.042-.014.082-.1.058-.13a1.14,1.14,0,0,0-.575-.312,1.9,1.9,0,0,0-.383-.03c-.137,0-.214-.006-.288,0-.2.019-.475.05-.433.2C234.392,156.911,234.657,156.852,234.808,156.758Z" transform="translate(-88.032 0.609)" fill="#fff"/>
    <path id="Trazado_1825" data-name="Trazado 1825" d="M123.054,155.622c.164,0,.407-.1.334-.212a.818.818,0,0,0-.616-.435c-.155.029-.418.094-.338.142C122.686,155.267,122.61,155.611,123.054,155.622Z" transform="translate(73.898 0.342)" fill="#fff"/>
    <path id="Trazado_1826" data-name="Trazado 1826" d="M149.59,154.306c.176.028.272-.059.211-.195-.264-.057.239-.46-.364-.374-.215.031-.567.033-.519.195C148.975,154.117,149.286,154.257,149.59,154.306Z" transform="translate(-46.709 0.126)" fill="#fff"/>
    <path id="Trazado_1827" data-name="Trazado 1827" d="M78.039,167.93c-.056-.124-.216-.127-.37-.122-.4.013-.664.117-.645.482.341-.066.544-.219.855-.177C78.018,168.131,78.083,168.024,78.039,167.93Z" transform="translate(26.347 2.568)" fill="#fff"/>
    <path id="Trazado_1828" data-name="Trazado 1828" d="M94.906,163.229c.235-.018.459-.049.48-.256a.272.272,0,0,0-.309-.246c-.266.008-.486.1-.512.3C94.546,163.184,94.694,163.246,94.906,163.229Z" transform="translate(44.664 1.687)" fill="#fff"/>
    <path id="Trazado_1829" data-name="Trazado 1829" d="M92.237,163.623c.232-.046.334-.157.325-.309-.012-.19-.229-.2-.435-.2s-.359.067-.337.215C91.816,163.5,91.993,163.593,92.237,163.623Z" transform="translate(41.746 1.754)" fill="#fff"/>
    <path id="Trazado_1830" data-name="Trazado 1830" d="M59.495,189.658c.045-.243-.286-.082-.418-.137-.246.014-.579-.04-.589.195-.007.148.3.176.476.169C59.179,189.876,59.465,189.821,59.495,189.658Z" transform="translate(1.146 6.334)" fill="#fff"/>
    <path id="Trazado_1831" data-name="Trazado 1831" d="M239.221,157.413c.17-.007.359-.027.371-.2-.1-.211-.383-.18-.621-.195-.158-.011-.319.011-.3.153C238.7,157.41,238.965,157.423,239.221,157.413Z" transform="translate(-89.92 0.697)" fill="#fff"/>
    <path id="Trazado_1832" data-name="Trazado 1832" d="M103.922,160.077a.409.409,0,0,0,.418-.317c.023-.114-.04-.2-.229-.224-.243.028-.441.107-.469.285C103.621,159.948,103.725,160.085,103.922,160.077Z" transform="translate(54.116 1.134)" fill="#fff"/>
    <path id="Trazado_1833" data-name="Trazado 1833" d="M127.133,155.264c.168-.022.4-.1.488-.055.259.144.52.37.752.05.216-.295-.42-.12-.483-.306a.215.215,0,0,0-.138-.114c-.429-.082-.885-.263-1.226.111-.1.043-.266.1-.191.181C126.526,155.331,126.841,155.287,127.133,155.264Z" transform="translate(78.606 0.299)" fill="#fff"/>
    <path id="Trazado_1834" data-name="Trazado 1834" d="M75.406,168.6c.242-.015.432-.1.435-.278,0-.117-.168-.157-.331-.158-.265,0-.452.107-.489.259S75.218,168.588,75.406,168.6Z" transform="translate(24.21 2.63)" fill="#fff"/>
    <path id="Trazado_1835" data-name="Trazado 1835" d="M135.958,154.585a.949.949,0,0,0-.994.352c.482-.077.865.069,1.112-.192C136.139,154.68,136.055,154.6,135.958,154.585Z" transform="translate(-40.021 0.271)" fill="#fff"/>
    <path id="Trazado_1836" data-name="Trazado 1836" d="M242.09,157.573c.124-.049.131-.149.009-.214-.276-.148-.51-.046-.821.11A.751.751,0,0,0,242.09,157.573Z" transform="translate(-91.172 0.744)" fill="#fff"/>
    <path id="Trazado_1837" data-name="Trazado 1837" d="M105.847,161.939c.2-.019.452,0,.562-.168-.025-.153-.2-.2-.358-.23a.362.362,0,0,0-.427.21C105.565,161.876,105.673,161.954,105.847,161.939Z" transform="translate(56.213 1.48)" fill="#fff"/>
    <path id="Trazado_1838" data-name="Trazado 1838" d="M150.731,154.406c.192.041.282-.016.287-.146-.025-.164-.154-.244-.4-.232-.154.007-.312.008-.312.154C150.308,154.377,150.548,154.368,150.731,154.406Z" transform="translate(-47.353 0.178)" fill="#fff"/>
    <path id="Trazado_1839" data-name="Trazado 1839" d="M247.6,158.415c.156.008.291-.029.319-.156-.052-.154-.209-.221-.424-.229-.141,0-.244.053-.222.151A.31.31,0,0,0,247.6,158.415Z" transform="translate(-93.987 0.872)" fill="#fff"/>
    <path id="Trazado_1840" data-name="Trazado 1840" d="M250.4,159.083c.18,0,.253-.089.268-.2.016-.129-.1-.181-.32-.19-.123.033-.287.075-.264.228C250.1,159.043,250.242,159.086,250.4,159.083Z" transform="translate(-95.322 0.987)" fill="#fff"/>
    <path id="Trazado_1841" data-name="Trazado 1841" d="M175.994,154.22a.352.352,0,0,0,.419-.115c-.019-.116-.115-.188-.28-.2s-.371.021-.422.147C175.653,154.2,175.876,154.192,175.994,154.22Z" transform="translate(-59.57 0.157)" fill="#fff"/>
    <path id="Trazado_1842" data-name="Trazado 1842" d="M130.892,157.146a1.421,1.421,0,0,0-1-.029.089.089,0,0,0,.021.173A2.323,2.323,0,0,0,130.892,157.146Z" transform="translate(81.708 0.7)" fill="#fff"/>
    <path id="Trazado_1843" data-name="Trazado 1843" d="M116.864,156.955c.183.014.356,0,.439-.176a.367.367,0,0,0-.319-.151c-.194,0-.365.047-.385.191C116.585,156.927,116.741,156.945,116.864,156.955Z" transform="translate(67.666 0.629)" fill="#fff"/>
    <path id="Trazado_1844" data-name="Trazado 1844" d="M92.959,163.426c.174.009.272-.065.3-.18a.281.281,0,0,0-.318-.178c-.13.009-.246.06-.253.158C92.674,163.349,92.8,163.418,92.959,163.426Z" transform="translate(42.62 1.746)" fill="#fff"/>
    <path id="Trazado_1845" data-name="Trazado 1845" d="M127.379,158.122c-.035.015-.021.142.029.183.221.177.432-.043.667-.042C127.858,158.168,127.668,158,127.379,158.122Z" transform="translate(78.924 0.881)" fill="#fff"/>
    <path id="Trazado_1846" data-name="Trazado 1846" d="M156.29,153.544a.208.208,0,0,0,.234-.236c-.026-.086-.1-.158-.285-.135-.128.018-.221.072-.211.169A.243.243,0,0,0,156.29,153.544Z" transform="translate(-50.073 0.029)" fill="#fff"/>
    <path id="Trazado_1847" data-name="Trazado 1847" d="M380.057,214.3a6.965,6.965,0,0,0-1.57-.307c-2.089.08-4.081-.368-6.136-.446a3.528,3.528,0,0,0-1.352-.2c-.306,0-.834-.066-.831.162,0,.263.507.143.807.149a7.794,7.794,0,0,0,.868.178c2.5.232,5,.487,7.519.623A.941.941,0,0,0,380.057,214.3Z" transform="translate(-269.517 10.464)" fill="#fff"/>
    <path id="Trazado_1848" data-name="Trazado 1848" d="M405.394,224.91a14.435,14.435,0,0,0-2.765-.073,8.476,8.476,0,0,0,2.735.386c.153.006.343-.025.354-.143S405.547,224.932,405.394,224.91Z" transform="translate(-236.273 12.454)" fill="#fff"/>
    <path id="Trazado_1849" data-name="Trazado 1849" d="M395.6,216.758a10.881,10.881,0,0,0,2.89-.307q-1.45,0-2.9,0c-.16,0-.236.049-.236.149S395.462,216.746,395.6,216.758Z" transform="translate(-243.999 11.004)" fill="#fff"/>
    <path id="Trazado_1850" data-name="Trazado 1850" d="M374.6,217.222c.278-.456-.277-.318-.548-.354-.182-.025-.481-.054-.442.154.042.232.146.493.625.483C374.495,217.5,374.863,217.533,374.6,217.222Z" transform="translate(-267.549 11.074)" fill="#fff"/>
    <path id="Trazado_1851" data-name="Trazado 1851" d="M391.979,218.528c.331,0,.661,0,.992,0a1.913,1.913,0,0,0,1.2.068c.176-.028.453.029.454-.169,0-.174-.273-.161-.441-.217-.026-.154-.165-.211-.366-.167a4.137,4.137,0,0,1-1.861.182c-.141-.031-.305.061-.309.172C391.643,218.541,391.836,218.527,391.979,218.528Z" transform="translate(-247.992 11.278)" fill="#fff"/>
    <path id="Trazado_1852" data-name="Trazado 1852" d="M370.345,228.961a3.051,3.051,0,0,0,1.866.009A4.355,4.355,0,0,0,370.345,228.961Z" transform="translate(-270.828 13.157)" fill="#fff"/>
    <path id="Trazado_1853" data-name="Trazado 1853" d="M262.709,158.614c.176.028.272-.057.21-.194-.263-.058.239-.46-.363-.374-.215.031-.568.033-.519.194C262.093,158.426,262.4,158.566,262.709,158.614Z" transform="translate(-101.162 0.873)" fill="#fff"/>
    <path id="Trazado_1854" data-name="Trazado 1854" d="M374.281,217.639c-.473-.231-.938-.015-1.568.019C373.746,217.918,373.746,217.918,374.281,217.639Z" transform="translate(-268.389 11.192)" fill="#fff"/>
    <path id="Trazado_1855" data-name="Trazado 1855" d="M384.386,218.844c-.2.043-.535.067-.344.385.273-.316.671-.219,1.114-.138A.626.626,0,0,0,384.386,218.844Z" transform="translate(-256.639 11.414)" fill="#fff"/>
    <path id="Trazado_1856" data-name="Trazado 1856" d="M263.85,158.715c.192.04.28-.016.288-.146-.026-.164-.154-.244-.4-.232-.154.006-.312.008-.312.154C263.426,158.686,263.667,158.677,263.85,158.715Z" transform="translate(-101.775 0.925)" fill="#fff"/>
    <path id="Trazado_1857" data-name="Trazado 1857" d="M269.409,157.853a.207.207,0,0,0,.232-.236c-.025-.086-.1-.158-.285-.135-.128.016-.221.07-.21.169A.244.244,0,0,0,269.409,157.853Z" transform="translate(-104.461 0.777)" fill="#fff"/>
    <path id="Trazado_1858" data-name="Trazado 1858" d="M258.168,239.268c-.747.047-1.5.088-2.245.128-.167.009-.413-.04-.418.124s.259.244.436.2a6.853,6.853,0,0,1,1.834.015,2.419,2.419,0,0,0,.516-.045c.194-.062.6,0,.5-.276C258.713,239.186,258.416,239.252,258.168,239.268Z" transform="translate(-98.712 14.958)" fill="#fff"/>
    <path id="Trazado_1859" data-name="Trazado 1859" d="M269.174,237.466a24.5,24.5,0,0,0,3.329.02c.19,0,.376,0,.36-.174-.012-.144-.177-.119-.334-.126A9.783,9.783,0,0,0,269.174,237.466Z" transform="translate(-105.459 14.596)" fill="#fff"/>
    <path id="Trazado_1860" data-name="Trazado 1860" d="M268.123,239.31c-.392.065-.249.373-.392.56-.046.06.115.155.169.128a4.377,4.377,0,0,1,1.808-.128c-.188-.18-.406-.2-.473-.34C269.029,239.1,268.524,239.245,268.123,239.31Z" transform="translate(-104.231 14.956)" fill="#fff"/>
    <path id="Trazado_1861" data-name="Trazado 1861" d="M262.195,237.383a7.567,7.567,0,0,0-1.691.135,6.859,6.859,0,0,0,1.685.289c.2.027.4-.1.4-.251S262.354,237.381,262.195,237.383Z" transform="translate(-100.776 14.635)" fill="#fff"/>
    <path id="Trazado_1862" data-name="Trazado 1862" d="M253.432,240.246c.136.137.195.356.512.309s.433-.284.381-.44c-.046-.138.027-.257-.008-.38a.768.768,0,0,0-.594.149C253.585,239.989,253.17,239.982,253.432,240.246Z" transform="translate(-97.005 15.041)" fill="#fff"/>
    <path id="Trazado_1863" data-name="Trazado 1863" d="M266.871,236.139c-.379,0-.351.233-.394.379.034.178-.031.38.306.376.3,0,.574-.11.535-.338A.43.43,0,0,0,266.871,236.139Z" transform="translate(-103.283 14.419)" fill="#fff"/>
    <path id="Trazado_1864" data-name="Trazado 1864" d="M286.214,237.391a.428.428,0,0,0-.509.231c.111.243.419.278.722.278.211,0,.5,0,.481-.225C286.88,237.384,286.468,237.44,286.214,237.391Z" transform="translate(-112.656 14.634)" fill="#fff"/>
    <path id="Trazado_1865" data-name="Trazado 1865" d="M286,235.433c.171.048.432-.013.411-.2-.019-.168-.162-.264-.448-.277-.724-.031-.55.34-.661.632C285.566,235.527,285.7,235.349,286,235.433Z" transform="translate(-112.432 14.213)" fill="#fff"/>
    <path id="Trazado_1866" data-name="Trazado 1866" d="M270.322,239.131c-.164,0-.407.1-.334.212a.818.818,0,0,0,.616.435c.155-.029.417-.1.338-.142C270.69,239.485,270.765,239.142,270.322,239.131Z" transform="translate(-105.009 14.938)" fill="#fff"/>
    <path id="Trazado_1867" data-name="Trazado 1867" d="M243.775,240.438c-.176-.028-.272.059-.211.194.264.057-.239.461.364.376.215-.031.567-.033.519-.195C244.39,240.627,244.079,240.486,243.775,240.438Z" transform="translate(-92.263 15.164)" fill="#fff"/>
    <path id="Trazado_1868" data-name="Trazado 1868" d="M289.413,234.66a.409.409,0,0,0-.418.317c-.023.114.04.2.229.224.243-.029.441-.107.469-.285C289.713,234.789,289.611,234.652,289.413,234.66Z" transform="translate(-114.073 14.163)" fill="#fff"/>
    <path id="Trazado_1869" data-name="Trazado 1869" d="M266.408,239.5c-.167.021-.4.1-.487.054-.259-.144-.52-.368-.753-.049-.215.295.421.12.485.306a.212.212,0,0,0,.138.114c.428.082.884.263,1.226-.111.1-.045.266-.1.191-.181C267.016,239.429,266.7,239.473,266.408,239.5Z" transform="translate(-103.012 14.974)" fill="#fff"/>
    <path id="Trazado_1870" data-name="Trazado 1870" d="M257.441,240.128a.947.947,0,0,0,.993-.352c-.482.077-.864-.069-1.112.192C257.26,240.033,257.343,240.11,257.441,240.128Z" transform="translate(-98.95 15.05)" fill="#fff"/>
    <path id="Trazado_1871" data-name="Trazado 1871" d="M242.606,240.308c-.192-.04-.282.018-.289.147.026.164.155.244.4.232.153-.007.312-.008.312-.154C243.028,240.338,242.789,240.347,242.606,240.308Z" transform="translate(-91.62 15.14)" fill="#fff"/>
    <path id="Trazado_1872" data-name="Trazado 1872" d="M217.342,240.486a.352.352,0,0,0-.419.115c.019.116.115.188.28.2s.37-.021.421-.148C217.683,240.508,217.459,240.514,217.342,240.486Z" transform="translate(-79.402 15.17)" fill="#fff"/>
    <path id="Trazado_1873" data-name="Trazado 1873" d="M262.5,237.551a1.421,1.421,0,0,0,1,.029.089.089,0,0,0-.021-.173A2.324,2.324,0,0,0,262.5,237.551Z" transform="translate(-101.432 14.636)" fill="#fff"/>
    <path id="Trazado_1874" data-name="Trazado 1874" d="M276.471,237.751c-.183-.015-.357,0-.44.176a.374.374,0,0,0,.32.151c.194,0,.365-.047.384-.191C276.75,237.779,276.593,237.761,276.471,237.751Z" transform="translate(-107.837 14.698)" fill="#fff"/>
    <path id="Trazado_1875" data-name="Trazado 1875" d="M265.958,236.578c.035-.015.021-.142-.029-.183-.221-.177-.432.043-.667.042C265.479,236.532,265.669,236.7,265.958,236.578Z" transform="translate(-102.66 14.452)" fill="#fff"/>
    <path id="Trazado_1876" data-name="Trazado 1876" d="M237.014,241.167a.209.209,0,0,0-.233.237c.025.086.1.158.285.135.128-.018.221-.072.211-.169A.244.244,0,0,0,237.014,241.167Z" transform="translate(-88.9 15.291)" fill="#fff"/>
    <path id="Trazado_1877" data-name="Trazado 1877" d="M110.723,235.6a1.086,1.086,0,0,1-1.1-.181,1.053,1.053,0,0,0-.307-.057c-.279.006-.559.134-.613.336s.286.187.492.207a4.2,4.2,0,0,0,1.522-.039c.15-.04.181-.087.171-.174A.118.118,0,0,0,110.723,235.6Z" transform="translate(60.04 14.285)" fill="#fff"/>
    <path id="Trazado_1878" data-name="Trazado 1878" d="M97.629,234.678c-.1,0-.257.009-.229.088.141.383-.276.189-.534.225l.093.077a.576.576,0,0,0,.588.17c.271-.077.082-.311.271-.435C97.862,234.774,97.744,234.683,97.629,234.678Z" transform="translate(47.12 14.166)" fill="#fff"/>
    <path id="Trazado_1879" data-name="Trazado 1879" d="M110.09,236.357c-.171.106-.225-.02-.329-.057-.142-.05-.262-.16-.452-.1-.029.009-.056.069-.04.088a.782.782,0,0,0,.39.21,1.206,1.206,0,0,0,.259.021c.093,0,.144,0,.194,0,.135-.013.322-.035.293-.138C110.37,236.252,110.192,236.292,110.09,236.357Z" transform="translate(60.186 14.427)" fill="#fff"/>
    <path id="Trazado_1880" data-name="Trazado 1880" d="M106.776,236.035c.07.143.259.122.42.133.108.007.217-.007.205-.1-.019-.16-.2-.168-.374-.162C106.912,235.907,106.784,235.921,106.776,236.035Z" transform="translate(57.364 14.378)" fill="#fff"/>
    <path id="Trazado_1881" data-name="Trazado 1881" d="M88.374,233.586c-.106,0-.2.012-.2.116a.282.282,0,0,0,.283.2c.13,0,.209-.067.194-.162C88.638,233.625,88.523,233.586,88.374,233.586Z" transform="translate(37.889 13.976)" fill="#fff"/>
    <path id="Trazado_1882" data-name="Trazado 1882" d="M105.085,235.79c-.084.033-.088.1-.007.144.188.1.346.032.556-.074A.508.508,0,0,0,105.085,235.79Z" transform="translate(55.524 14.35)" fill="#fff"/>
    <path id="Trazado_1883" data-name="Trazado 1883" d="M101.329,235.223c-.106,0-.2.02-.216.107.035.1.142.149.286.154.1,0,.165-.035.151-.1A.213.213,0,0,0,101.329,235.223Z" transform="translate(51.378 14.26)" fill="#fff"/>
    <path id="Trazado_1884" data-name="Trazado 1884" d="M99.429,234.772c-.122,0-.171.061-.181.135s.063.122.216.129c.083-.022.195-.052.18-.154C99.631,234.8,99.537,234.77,99.429,234.772Z" transform="translate(49.417 14.182)" fill="#fff"/>
    <path id="Trazado_1885" data-name="Trazado 1885" d="M149.781,238.056a.241.241,0,0,0-.284.077c.013.079.079.128.19.134s.251-.014.285-.1S149.861,238.075,149.781,238.056Z" transform="translate(-46.931 14.749)" fill="#fff"/>
    <path id="Trazado_1886" data-name="Trazado 1886" d="M163.089,238.517a.141.141,0,0,0-.157.16c.018.059.07.108.194.092.086-.012.149-.048.142-.114A.165.165,0,0,0,163.089,238.517Z" transform="translate(-53.368 14.832)" fill="#fff"/>
    <path id="Trazado_1887" data-name="Trazado 1887" d="M256.973,182.629c.3,0,.6,0,.9,0-.214-.161-.438-.1-.657-.12-.075-.009-.178.018-.179-.131,0-.175-.094-.306-.08-.506l.82.08c.042,0,.1.043.109-.057.011-.136-.059-.093-.108-.1-.225-.013-.449-.033-.674-.041-.148-.006-.285,0-.172-.332a.71.71,0,0,0-.028-.268c-.038-.32-.2-.584-.229-.871a1.34,1.34,0,0,0-.57-1.024,6.506,6.506,0,0,0-2.222-1.375c-.037-.117-.137-.045-.18-.141a.05.05,0,0,1,.04-.011.514.514,0,0,0,.153-.011.925.925,0,0,0,.524-.669c.033-.115.14-.195.09-.347s-.141-.088-.221-.073l-.124-.031c-.066-.1-.15-.053-.227-.063a.305.305,0,0,0-.282-.13c-.071-.124-.055-.385-.229-.349l-.224-.148c-.172-.332-.435-.147-.643-.269a.234.234,0,0,1-.038-.014h0a.621.621,0,0,0-.072-.521,1.235,1.235,0,0,1,.579-.094.275.275,0,0,0,.264-.216c.263-.21.573-.2.9-.424a.747.747,0,0,0-.391-.082c-.127-.156-.21-.3.039-.358.043-.011.1-.023.109-.1.014-.1-.058-.119-.1-.157a.708.708,0,0,0-.144-.088c0-.046.085-.1.02-.119-.21-.057-.394-.289-.622-.217h0c.008-.3.192-.549.07-.886a.222.222,0,0,1,.161-.238c.046-.006.1-.042.049-.128a.392.392,0,0,1,0-.4c.054-.115.018-.18-.051-.2-.179-.052-.136-.317-.2-.476.135-.092.117-.44.271-.449s.111-.162.145-.264c.019-.057-.04-.144.022-.184.2-.131.049-.225-.015-.319a.213.213,0,0,0-.274-.094l-.4-.15c-.036-.107-.174.019-.168-.16a.242.242,0,0,1,.148-.232.175.175,0,0,0,.081-.059c.095-.135.161-.266-.022-.37-.1-.057-.2-.135-.307-.205.074-.23.184-.339.332-.333a.5.5,0,0,0,.39-.241.614.614,0,0,0,.214-.077c.08-.066.237-.022.209-.271-.022-.208-.1-.35-.249-.348h0a2.265,2.265,0,0,0-.819-.7h0a1.243,1.243,0,0,0-.506-.345c-.068-.02-.146-.032-.164-.153-.029-.194-.145-.2-.224-.3-.191-.225-.551-.06-.6-.608,0-.023-.035-.059-.053-.057-.319.014-.586-.271-.886-.359a6.175,6.175,0,0,1-1.078-.368,1.44,1.44,0,0,0-.856-.275c-.134-.038-.266-.086-.4-.109a11.253,11.253,0,0,0-1.827-.455,1.193,1.193,0,0,0-.693-.128,10.82,10.82,0,0,1-1.595-.222,3.638,3.638,0,0,0-1.321-.2c-.6-.069-1.193-.231-1.8-.283-.662-.056-1.321-.216-1.982-.32-.194-.032-.4.032-.584-.053a3.063,3.063,0,0,0-1.471-.26h0c-.1-.134-.222-.117-.339-.135a7.7,7.7,0,0,1-1.667-.285c-.226-.06-.455-.058-.682-.122a.677.677,0,0,0-.526-.025l-.006,0c-.027-.019-.062-.023-.078-.06-.116-.259-.268-.295-.449-.185-.055.034-.118,0-.176.025a.964.964,0,0,1-.1.027l-.082-.006a2.212,2.212,0,0,1-.637-.072c-.14-.138-.312-.023-.455-.131-.119-.088-.2-.232-.364-.246a2.52,2.52,0,0,1-.626-.072c-.108-.036-.15.061-.2.165-.326.033-.637-.187-.964-.136a.081.081,0,0,1-.076-.045c-.078-.28-.171-.065-.264-.007.013-.249.146-.431.117-.677a2.368,2.368,0,0,1,.142-.932,3.549,3.549,0,0,0,.1-.877l.127-.054a.26.26,0,0,0,.041.011.473.473,0,0,0,.6.062h0c.2-.052.326.216.5.275a3.372,3.372,0,0,0,2.057.412.574.574,0,0,1,.354.09,1.377,1.377,0,0,0,1.007.2c.072.027.143.056.216.081a13.306,13.306,0,0,0,1.606.413c.086.2.185.358.362.271h0c.218,0,.433.2.656.015.031-.027.077-.014.1.083.054.235.177.214.3.147.057-.032.112-.094.17-.026.189.222.4.12.61.126h0a1.5,1.5,0,0,0,.312.036c.3-.029.564.27.865.251l0,.008.823.2a.089.089,0,0,0,.042.007c.153.107.312.052.468.04a.116.116,0,0,0,.117-.129c0-.12-.067-.1-.115-.121s-.141.022-.164-.121c-.034-.211-.336-.483-.473-.468-.187.02-.389.143-.555-.1-.073-.108-.47-.156-.544-.055a.116.116,0,0,0-.023.05c.172.421-.105.192-.167.273l-.141-.063h0c-.319-.175-.614-.476-.986-.318-.137.059-.292-.031-.446-.131.106-.094.212,0,.321-.116h-.367c-.084,0-.154-.008-.207-.153a.262.262,0,0,0-.506-.031c-.088.178-.218.124-.307.073s.1-.116.01-.271c-.255.242-.518,0-.79-.033l-.384-.05a1.141,1.141,0,0,1,.4-.3c-.16-.147-.282-.337-.436-.228a.513.513,0,0,1-.4.065.419.419,0,0,0-.252-.367c-.227-.111-.251.241-.388.316h0a.465.465,0,0,1-.367.084c-.152-.018-.311-.1-.458.046h0l-.358-.012h0c-.029-.113-.2-.043-.14-.283a.408.408,0,0,1,.177-.232,5.7,5.7,0,0,0-.568-.169c-.089-.018-.228-.081-.266.073s.135.1.167.222a.623.623,0,0,1-.021.128c-.172-.307-.358.087-.541-.07-.122-.17-.279-.089-.418-.137s-.262-.084-.089-.324a.15.15,0,0,0,.029-.15c-.035-.088-.075,0-.112,0-.186,0-.305.289-.495.253-.215-.309-.441-.506-.735-.219-.045.045-.123.041-.163-.047a.245.245,0,0,1,0-.158c.168-.255-.009-.17-.077-.192-.129-.117-.089-.344-.066-.465.083-.428-.09-.4-.254-.378a1.346,1.346,0,0,1-.793-.151.663.663,0,0,0-.244-.053c-.4-.05-.8.183-1.207-.023a.153.153,0,0,0-.173.052c-.128.173-.266.128-.4.073a.881.881,0,0,0-.451-.029c-.306-.09-.627.028-.92-.076a1.492,1.492,0,0,0-.908.08c-.3-.115-.613-.209-.912-.352-.193-.093-.36.1-.542.05-.039-.046-.109-.089-.112-.141-.015-.271-.009-.271-.166-.339h0l-.132-.076c.028-.223.066-.353.232-.161.116.134.516-.033.671-.263-.342.066-.646-.12-.969-.018a1.736,1.736,0,0,1-.83-.1c-.075-.014-.219-.077-.211.054.015.224-.069.135-.11.12a2.6,2.6,0,0,0-.291-.059c-.419-.107-.872.031-1.246-.411-.018-.02-.058,0-.088.008a5.035,5.035,0,0,1-.582-.1c-.712-.187-1.428-.332-2.141-.509a5.254,5.254,0,0,0-1.642-.3.22.22,0,0,1-.216-.087.9.9,0,0,0-.8-.376,1.67,1.67,0,0,1-.693-.153,1.635,1.635,0,0,0-.717-.145c-.606-.018-1.212-.043-1.818-.028a28.833,28.833,0,0,0-4.474.217c-.624.113-1.257.127-1.878.27-.919.211-1.831.5-2.746.75-.1.026-.2.074-.292.032-.277-.134-.538.015-.8.063-.343-.086-.671.19-1.012.1a.469.469,0,0,0-.421.075.547.547,0,0,1-.4.109,7.628,7.628,0,0,0-1.565.119,3.527,3.527,0,0,0-.769.035,3.23,3.23,0,0,1-1.161.284,2.134,2.134,0,0,0-.684.195,2.291,2.291,0,0,0-.817.251c-.125.04-.265-.062-.372.079a1.467,1.467,0,0,1-.755.53c-.513.173-1.008.4-1.523.038-.135-.1-.274,0-.326.189a.345.345,0,0,1-.346.306,3.016,3.016,0,0,0-.8.2L188.3,157c-.224-.05-.429.113-.648.131-.047,0-.077.045-.055.144a.367.367,0,0,1-.167.412l-.377.042,0,.088.374.029c.121.126.127.137.089.188-.112.151-.2.343-.373.381-.117.026-.261.02-.354.19a.749.749,0,0,0-.455.142,1.479,1.479,0,0,1-.358-.041,2.624,2.624,0,0,0-1.24.18l-.021,0-.019.012c-.394-.025-.786-.1-1.177-.153a15.485,15.485,0,0,1-1.631-.082,3.187,3.187,0,0,0-1.225-.029,1.87,1.87,0,0,1-.473.077,22.857,22.857,0,0,0-2.354-.249,6.867,6.867,0,0,0-2.8.576,1.375,1.375,0,0,1-.51-.243.337.337,0,0,0-.359-.108c-.1.022-.184.1-.067.272.049.073.116.188.078.265-.135.277.015.332.121.429-.1.12-.226.073-.334.141a1.238,1.238,0,0,0-.159-.215h0c-.163-.207-.157-.319.072-.313.079,0,.186,0,.192-.134.009-.188-.112-.146-.193-.176a1.561,1.561,0,0,0-.686-.106,4.187,4.187,0,0,0-2.464.245c.433.128.86.432,1.292.023.12.414-.106.785-.013,1.164.136,0,.134-.168.156-.259a1.773,1.773,0,0,1,.36-.589c.21-.331.244.2.385.266.116.185-.076.3-.05.44.086.474.3.187.466.168.11.249.3.26.459.377-.1-.016-.2-.027-.3-.035a.092.092,0,0,0-.107.1c0,.081.051.1.1.116a1.552,1.552,0,0,0,.3.052.9.9,0,0,1-.888.385,4.8,4.8,0,0,0-1.444-.163c-.06-.392-.316-.5-.467-.758,0-.387-.211-.532-.371-.556-.348-.054-.455-.5-.656-.79a.475.475,0,0,0-.37-.388c-.3-.074-.594.031-.879-.014-.576-.089-1.15.014-1.723-.075-.143-.021-.278.009-.257.313.016.243-.118.194-.2.251-.176.128-.1-.115-.126-.2-.041-.122-.1-.175-.191-.148l-.2.079c-.061-.092-.118-.2-.213-.205-.167-.176-.334-.035-.462.082-.082.075.073.2.1.316-.062.251-.316.295-.31.588.009.52-.229.576-.463.663.006-.252-.176-.142-.229-.28-.086-.331.2-.141.2-.34.028-.09.082-.236.012-.271-.2-.1-.114-.1,0-.214a.566.566,0,0,0,.108-.476.166.166,0,0,0-.3-.054c-.207.238-.5.318-.62.724.034.129-.1.244-.014.377.22.319.067.44-.121.544a.117.117,0,0,1-.057.019.313.313,0,0,0-.346.1c.1.083.221.029.262.189-.264.284-.469.1-.661-.2-.168-.314-.429.2-.617-.191.295-.059.312-.865.728-.559.011.009.045-.062.071-.092.212-.235,0-.377-.035-.576-.059-.359-.148-.312-.289-.138-.25-.367-.4.008-.6.184.087.168.244.275.194.539l-.052.13c-.082.2-.447.279-.126.664-.041.063-.045.233-.1.266h0c-.024.014-.058,0-.11-.067-.185-.236-.324-.371-.374.154,0,.048-.115.073-.176.108a.24.24,0,0,0-.22-.073l-.049-.126c-.006-.021-.018-.028-.026-.046a.3.3,0,0,0,.169-.143c-.15-.025-.37-.149-.422-.055-.244.442-.464.279-.689.089-.042-.212-.09-.3-.169-.271a2.444,2.444,0,0,0-.2-.41l.262-.116c.108.012.218.069.319-.029-.01-.332-.229-.09-.308-.269a.783.783,0,0,1,.058-.111c.067-.087.16-.161.073-.322-.047-.087-.088-.228-.18-.183a.346.346,0,0,0-.121.371.328.328,0,0,1-.053.331l-.121.007c.045-.148.139-.352-.028-.4s-.135.243-.185.393a.288.288,0,0,0-.059.325c-.023.17-.047.34-.071.51-.06.057-.111.149-.194.12-.183-.067-.138.461-.35.317-.1-.111-.262,0-.326-.224-.028-.306-.2-.305-.329-.385l0-.027c-.009.009-.015,0-.023.007a.321.321,0,0,1-.041-.028c.008-.134-.037-.285.056-.391.012.127.065.295.135.182a1.055,1.055,0,0,0,.2-.594c0-.225-.079-.256-.2-.211a.7.7,0,0,1-.363.093c-.194-.028-.3.135-.111.42a.28.28,0,0,0-.146.2c-.176-.191-.35.015-.526.007a.291.291,0,0,0-.2-.122l-.007-.013c-.1-.2-.216-.36-.385-.251-.144.092-.1.331-.135.517a.323.323,0,0,0-.029-.12c-.06-.137-.086-.356-.227-.31s-.192.285-.169.44c.02.138-.012.257,0,.381.106.029.191-.025.263-.149a.514.514,0,0,1,.115-.109.176.176,0,0,0,.124.177c.065.007.169-.014.15-.13-.054-.331.019-.368.121-.354a.746.746,0,0,0-.1.137.32.32,0,0,0,.4.14.331.331,0,0,0-.011.034c-.059.3-.161.574-.245.859a.951.951,0,0,0-.409.141c-.013.008-.038-.028-.058-.045.057-.3.14-.627-.223-.512-.047.014-.116-.081-.137-.19l.005.008v-.007h0c-.029-.048-.059-.1-.091-.148a.258.258,0,0,0,.037-.232c-.023-.131-.019-.286-.125-.319a.227.227,0,0,0-.256.164c-.028.282-.238.363-.255.632a.45.45,0,0,0-.044.055c-.041-.056-.1-.082-.148-.055l-.008,0c-.115-.229-.261-.059-.394-.055a.354.354,0,0,1,0,.107c-.135-.021-.269-.061-.4-.069.011-.094.027-.2.046-.311,0-.006.006-.007.009-.013s0-.033,0-.05c.016-.1.021-.218-.057-.27s-.189-.1-.236.063c-.128.458-.244.163-.365,0-.018-.555-.242-.239-.4-.223-.081-.1-.157-.214-.273-.18-.041-.271-.143-.276-.26-.121-.067.088-.119.2-.215.212a3.085,3.085,0,0,1-.878-.617c.047-.073.095-.144.142-.218l.126.128c.12.31.235.377.342-.016v-.212c.008-.129.053-.29-.05-.36-.232-.158-.571.163-.626.577-.212.137.073.343-.029.52-.193-.143-.372-.176-.5.208.018-.108.087-.177.046-.258-.182-.361-.393-.079-.584-.035-.221.05-.076.219-.023.351a.166.166,0,0,1-.044.211c-.262.149-.116.224.019.314.11.074.14.182.068.354-.027.065.046.273-.045.231a.342.342,0,0,0-.28,0,.257.257,0,0,0,.036-.066c.1-.295-.186-.12-.214-.306a.175.175,0,0,0-.061-.114c-.047-.021-.1-.047-.143-.07.05-.115.012-.2-.132-.422-.155-.183.085-.188.06-.312.144-.341.243-.67-.12-.84-.168-.18-.294-.229-.276.2.008.177.025.387-.145.142-.161-.284-.3-.313-.4.079-.105.031-.186.182-.321,0s-.323-.134-.487,0c-.238.435-.489.506-.819.241-.056-.045-.162-.1-.185-.066-.273.428-.471.06-.7-.119a.264.264,0,0,0-.293-.025.923.923,0,0,1-.559.09c.031-.323.186-.3.344-.314.231-.019.32-.29.172-.552-.2-.357-.379-.841-.781-.593-.086-.215-.229-.19-.359-.183-.273.014-.537.023-.662-.465-.029-.11-.139-.14-.16-.06a1.938,1.938,0,0,0-.077.613.186.186,0,0,0,.245.168c.092-.028.2.069.292.039.242-.081.333.109.376.422l.005.2-.188.164c.041.11.13.109.181.167.113.128.285-.087.359.172-.2.16-.438.041-.628.238-.266-.087-.513-.324-.8-.225-.2-.239-.043-.548-.065-.823a.435.435,0,0,0-.007-.1,2.629,2.629,0,0,0-1.04-.286c-.148.019-.212,0-.283-.217a1.878,1.878,0,0,0,.477.075c.09-.009.226.1.273-.073s-.107-.229-.153-.358c0-.1,0-.2,0-.3,0-.14.087-.314-.043-.4-.15-.1-.175.11-.226.252-.012.035-.058.042-.088.062-.178-.052-.343-.06-.392.3-.208-.23-.446.036-.677-.114-.267-.174-.593-.368-.85-.276s-.4-.012-.571-.217v-.129c.041-.08.092-.161-.013-.223a.62.62,0,0,0-.386-.074.733.733,0,0,1-.736-.11h0c-.2-.118-.408-.279-.607.014-.1-.022-.007.439-.2.185-.044-.219-.127-.467-.255-.162-.136.323-.305.27-.489.282-.112.007-.239-.082-.332.056.005.241.208.143.219.379-.156.133-.28.353-.5.21a.608.608,0,0,0-.4-.055c-.161.018-.07-.512-.305-.3-.141.124-.029.4-.128.507-.143.153-.767-.16-.86-.425s-.226-.4-.425-.41a.414.414,0,0,1-.447-.351c-.082-.336-.187-.183-.3-.074-.437.413-.5.4-.775-.173-.06.12-.118.235-.175.351-.134.279-.734.224-.775-.1-.06-.478-.252-.542-.5-.533a.512.512,0,0,1-.1.041c-.356.131-.42.25-.253.468.235.307-.27.421-.053.695a.247.247,0,0,0,.243.119c.132-.021.259-.09.391-.109.031-.009.062-.026.1-.041a.045.045,0,0,1,0,.026.82.82,0,0,1-.092.031c-.2.048-.419.083-.274.55.01.032-.042.069-.071.092-.056.027-.111.06-.166.08-.09-.028-.179-.077-.27-.1a.525.525,0,0,1-.036-.063c-.318-.052-.643-.191-.909.244a.179.179,0,0,1-.256.06,1.851,1.851,0,0,0-1.083-.27c-.141.014-.245-.1-.136-.361a.9.9,0,0,0,.023-.143,1.762,1.762,0,0,1,.252-.3h.122c.135-.032.12.136.155.257.195.658.725.814,1.027.3.082-.141.152-.175.26-.124.128.061.261.084.265-.205,0-.237.009-.519-.242-.453-.082.219-.147.391-.33.12a.611.611,0,0,0-.526-.272c-.188,0-.308-.163-.547-.249.128-.06.189-.114.2-.092.163.237.387.072.565.21.1.075.183.022.2-.154.02-.232-.258-.651-.39-.543-.2.163-.36.023-.533-.036-.257-.089-.482-.082-.578.406-.231-.38-.466-.316-.724-.207-.1.042.013.394-.166.214-.034-.2-.178-.309-.492-.38-.173.038-.343.209-.514-.058-.085-.133-.241-.025-.226.127.045.434-.151.36-.3.4-.07-.116-.165-.1-.252-.1-.373,0-.746.008-1.119.015-.11,0-.226.035-.3-.157.072-.11.169-.046.244-.092.108-.065.319.059.3-.243-.015-.234-.2-.192-.307-.158-.571.174-1.11-.583-1.689-.128-.007,0-.023-.006-.031-.016-.173-.228-.38-.136-.576-.149-.359-.127-.717.076-1.076,0a15.19,15.19,0,0,1-1.881-.283,1.131,1.131,0,0,0-.515.019c-.18.038-.369.221-.564.109-.362-.209-.755.027-1.119-.192a.12.12,0,0,0-.138.19c.391.514.177.844-.107,1.184a1.132,1.132,0,0,0-.735-.075c-.217-.156-.448-.085-.674-.106.025-.147.192-.246.079-.437-.1-.171-.221-.08-.334,0a2.119,2.119,0,0,1-.215.117l-.064-.106a1.215,1.215,0,0,0-.258-.419c-.163-.205-.157-.319.072-.313.079,0,.186,0,.192-.134.009-.187-.112-.146-.193-.176a1.561,1.561,0,0,0-.686-.106,4.187,4.187,0,0,0-2.464.245c.433.128.86.433,1.292.025.12.413-.106.784-.013,1.163.137,0,.134-.168.156-.259a1.766,1.766,0,0,1,.361-.589c.21-.331.244.2.385.266.116.185-.076.3-.05.44.086.475.3.187.466.168.118.265.329.258.49.4a.379.379,0,0,1,.061.025.062.062,0,0,1,.01.039.949.949,0,0,1-1,.53,4.8,4.8,0,0,0-1.444-.163c-.06-.392-.316-.5-.467-.758h0c.005-.387-.211-.532-.371-.556-.348-.054-.455-.5-.655-.789a.476.476,0,0,0-.37-.39c-.3-.074-.594.031-.879-.014-.576-.089-1.15.014-1.723-.074-.143-.022-.277.008-.257.313.016.242-.118.192-.2.25-.176.128-.1-.115-.126-.2-.04-.122-.1-.175-.191-.148l-.2.08c-.061-.093-.117-.2-.213-.207-.167-.176-.333-.035-.461.082-.083.075.072.2.1.317-.063.25-.316.293-.31.587.009.52-.229.576-.463.664.006-.253-.176-.143-.229-.282-.086-.331.2-.141.2-.339.028-.092.082-.237.012-.272-.2-.1-.114-.1,0-.214a.566.566,0,0,0,.108-.476.166.166,0,0,0-.3-.054c-.207.238-.5.318-.619.724.033.129-.105.244-.014.377.219.32.066.441-.122.544a.1.1,0,0,1-.057.019.314.314,0,0,0-.345.1c.095.083.221.029.262.189-.265.284-.47.1-.661-.2-.168-.314-.429.2-.617-.191.294-.057.312-.865.728-.557.011.008.045-.063.071-.093.211-.235,0-.377-.036-.576-.059-.359-.148-.312-.289-.138-.249-.367-.4.008-.6.185.087.167.243.273.193.537l-.051.13c-.082.2-.448.28-.127.665-.041.062-.045.234-.1.266h0c-.024.013-.058,0-.11-.068-.185-.236-.324-.371-.374.154,0,.048-.114.073-.176.109-.139-.158-.317,0-.509-.122.145-.14.3-.1.383-.266-.15-.025-.37-.149-.422-.055-.281.509-.53.218-.792,0a1.871,1.871,0,0,0-.27-.6l.263-.116c.108.012.218.069.318-.029-.01-.331-.229-.089-.307-.269a.757.757,0,0,1,.057-.11c.067-.087.16-.161.073-.323-.047-.087-.088-.228-.18-.183a.346.346,0,0,0-.121.371.331.331,0,0,1-.053.332l-.121.006c.045-.147.139-.352-.028-.4s-.135.244-.184.393a.289.289,0,0,0-.06.326q-.035.255-.071.51c-.06.056-.111.148-.194.119-.182-.067-.138.461-.35.317-.1-.111-.262,0-.326-.224-.032-.361-.266-.286-.4-.433.008-.134-.037-.285.056-.39.012.127.065.293.135.181a1.055,1.055,0,0,0,.2-.594c0-.225-.08-.256-.2-.211a.706.706,0,0,1-.363.094c-.194-.029-.3.134-.111.419a.283.283,0,0,0-.146.2c-.176-.191-.35.015-.526.007-.177-.212-.329-.163-.475.1.155.222.318.172.48.119l.653.021.092.077c.04.278.224.336.331.509.024.354-.2.252-.279.277-.505.157-1.036-.151-1.538.17-.014.008-.038-.028-.058-.045.057-.3.14-.627-.223-.512-.047.015-.116-.081-.137-.19l.005.008v-.007h0c-.084-.143-.181-.368-.3-.141a.5.5,0,0,0,.08.568c.066.062.186.075.146.276-.046.034-.038.13-.06.161-.076.106.172.338-.069.365-.139.016-.217-.038-.2-.269.011-.2-.084-.133-.152-.168-.307-.16-.573.143-.861.19-.213.034-.5-.119-.666.256-.138-.02-.225-.127-.244-.346-.008-.092-.031-.176-.1-.168s-.084.087-.084.185c0,.478-.193.431-.388.305a.272.272,0,0,0-.377.026c-.126.113-.251.276-.417.092-.053-.059-.129.019-.139.147-.008.1.028.157.093.17.383.079.765.178,1.15.219.094.011.331-.066.292-.2-.1-.33.062-.262.148-.324.02.358.282.508.357.391.189-.295.291-.252.532-.113a2.551,2.551,0,0,0,1.043.151c-.107.27-.244.555.084.7.145.067.1.236.044.372s-.132.123-.226.041-.078-.305-.211-.284a1.45,1.45,0,0,1-.11-.176c-.046-.1-.088-.212-.182-.161-.059.034-.069.131-.053.217.033.182.117.168.212.123.015-.007.042.049.064.077-.022.338-.355.19-.363.539-.01.4-.233.241-.26.153-.151-.5-.362-.295-.583-.184a.2.2,0,0,1-.287-.219c.037-.171.058-.575.324-.508.082.02.2-.023.167-.223-.031-.182-.175-.239-.244-.182-.3.241-.623.062-.923.205-.121.058-.324.031-.3.275.025.275.211.158.337.117.084-.027.167-.1.251-.1.122,0,.276-.1.342.18-.356.265-.739.1-1.106.167-.275.053-.5-.016-.376.645-.088-.269-.2-.306-.306-.195s.028.232.038.354c.014.162.1.467.04.458-.268-.046-.432.455-.708.282-.056-.035-.157.021-.152-.118,0-.068.09-.129.139-.194.154-.119.386-.168.209-.574-.063-.147-.6-.326-.693-.226a.321.321,0,0,0-.047.273c.017.133.025.268.037.4-.23.048-.462.081-.689.151-.136.041-.322-.194-.4.07-.066.235.23.154.231.4-.064.1-.158.124-.22.084-.217-.141-.412-.05-.631,0-.294.068-.608.215-.918-.157-.109-.131-.308-.388-.49-.329-.326.106-.71-.117-.975.379-.06.113-.147-.013-.217-.008a.85.85,0,0,0-.789.549c.052.144-.008.439.186.4.283-.063.573.1.855-.12a.8.8,0,0,1,.565-.134c-.12.109-.282.134-.257.341s.177.158.285.181c.365.075.731-.158,1.1.014.088.041.141-.1.149-.224.016-.286.14-.289.285-.311.307-.047.589.192.895.161.1-.011.112.11.072.256-.093.34-.311.461-.6.319a.578.578,0,0,0,.133-.311c0-.1-.006-.207-.086-.252s-.164-.059-.168.059a2.516,2.516,0,0,1-.172.546c-.03.039-.059.083-.088.124-.756.1-1.515.079-2.273.114-.138.006-.2-.111-.213-.313-.01-.147-.051-.265-.163-.277-.087-.009-.149.061-.194.167l0,.013c0-.3-.094-.332-.377-.316-.117.083-.241.2-.275-.129-.026-.169.356-.312.014-.5a.731.731,0,0,1,.057-.411.389.389,0,0,0,.106-.526c-.224-.241-.468-.073-.695.144.244-.028.324.17.326.487-.025.44-.267.242-.412.331-.159-.056-.243.223-.392.208-.244.16-.214-.126-.213-.327,0-.385-.084-.525-.32-.305-.059-.244-.061-.622-.317-.175-.084.146-.227.234-.3.44-.062.184-.191.293-.309.229-.333-.184-.568-.074-.7.444-.256.169-.6-.033-.785.441.044.1.158.02.181.17-.064.171-.235.293-.1.573a.548.548,0,0,1,.492-.273c.14.19.283.346.47.128h0l.005-.1h0c.355-.1.239.252.214.519.008.252-.092.218-.215.253-.214.06-.338-.311-.548-.2-.473.244-.985.229-1.456.507-.169.1-.372-.141-.552.048-.124-.055-.191.141-.3.162-.223.042-.221.059-.229.357.276.172.517-.176.787-.156a.221.221,0,0,0,.152.053c.09-.126.179-.13.265.009.138.323.232.63-.111.793-.006,0-.007.031-.01.046-.278.48-.671-.065-.968.256-.007.007-.035-.04-.055-.048-.066-.028-.127.038-.126.111,0,.468-.223.373-.37.314-.19-.076-.329.366-.517.081-.14-.513-.571-.007-.73-.487-.014-.042-.095.048-.106.143-.048.433-.189.235-.319.111.066-.208.009-.226-.114-.2-.288.065-.312.58-.545.732h0c-.129-.066-.277.034-.4-.113-.086-.1-.134-.056-.15.1-.167.264-.455.116-.609.424l-.338-.033c.046-.458.3-.361.464-.5.109-.094-.03-.566.292-.364-.137-.154-.278-.176-.357-.345.019-.144.065-.2.153-.107.175.062.378-.012.529.376.014-.245,0-.391.07-.486.113-.276.045-.4-.148-.387-.059,0-.127.13-.184.068-.318-.353-.582.1-.873.124-.119.109-.234-.014-.352-.018-.147,0-.266.023-.276.3h0c-.13.128.1.357-.036.439-.177.109-.2.347-.264.56-.131.428-.571.828-.75.6-.163-.208-.208-.06-.3.046-.072.081-.136.2-.216.236a1.792,1.792,0,0,1-.413.093,4.911,4.911,0,0,1,.049-.581c.018-.093.146-.14.088-.283-.038-.094-.123-.07-.188-.053-.1.028-.159.1-.152.279.007.207,0,.414-.2.235-.06-.054-.078.012-.061.09.054.243-.043.23-.138.182a.628.628,0,0,0-.729.177c-.15.14-.354-.194-.441.175a1.144,1.144,0,0,1-.668.224h0c-.417.134-.832.289-1.252.394-.212.053-.318.181-.306.513l-1.421.521c-.044,0-.1.015-.128-.02-.217-.31-.365-.23-.525.134a.452.452,0,0,1-.4.307c-.1,0-.208-.027-.224.2l-.188.127c-.185-.04-.32.079-.423.314.212-.208.478.015.682-.222l.657-.124c.176.127.269-.185.421-.189v.106a.769.769,0,0,1-.5.831c-.415.076-.415.076-.658.525a2.181,2.181,0,0,0,.41-.131c.313-.165.659-.176.945-.471a.777.777,0,0,0,.4-.131c.3-.072.607-.155.912-.211.267-.05.338.14.229.507a3.728,3.728,0,0,0-.478.255c-.2.124-.45-.027-.608.271-.084.045-.167.126-.252.127-.633.008-1.195.485-1.807.641a1.291,1.291,0,0,0-.647.366h0c-.143.036-.285.08-.429.109-.25.05-.517.011-.711.332-.053.088-.17.162-.109.311.049.121.149.121.244.076a7,7,0,0,0,.889-.411c.376-.242.814-.2,1.152-.6.54.021,1-.526,1.544-.5.046,0,.094-.077.14-.119a7.571,7.571,0,0,1,1.312-.521c.467-.214.942-.516,1.452-.248.109.057.186-.073.257-.184a2.528,2.528,0,0,0,1.36-.29h0c.269-.069.567.114.806-.216l.664-.221c.484.038.986-.121,1.435.314l-.148.21a7.691,7.691,0,0,0-1.377.351,2.091,2.091,0,0,1-1.134.276c-.217-.042.052.352-.1.461-.022.016-.086.077.02.09.192.025.378.144.578.055.246-.11.513-.1.754-.2.489-.195,1,.174,1.478-.219.056-.046.165-.05.244.109a2.129,2.129,0,0,1-.936.454.783.783,0,0,0-.676.381,1.312,1.312,0,0,0-.52-.035,4.4,4.4,0,0,0-1.236.286c-.557.242-1.139.264-1.7.478-.3.115-.317.155-.433.525.4-.337.8-.263,1.192-.361a10.958,10.958,0,0,1,2.466-.642,1.534,1.534,0,0,1,.3-.028.256.256,0,0,0,.069.028c.067.045.115.148.125.366-.426.11-.852-.126-1.3.218-.255.2-.662.138-1,.205-.828.163-1.64.444-2.464.627-.331.235-.725.1-1.061.4.054.131.3.075.117.334-.1.116-.22.1-.335.1-.323-.39-.375-.377-.63.17-.022.048-.041.074-.077.05-.144-.089-.312.038-.449-.12-.426-.21-.531.29-.67.715a.777.777,0,0,0-.631.228c-.076.083-.179.087-.215-.08-.081-.37-.074-.373-.3-.162-.319-.158-.583.16-.872.253-.086.028-.14.214-.063.38.018.127.107.133.153.21l-.01.02a1.29,1.29,0,0,1-.749.3.677.677,0,0,0-.611.31c-.338-.432-.335-.428-.584.141-.034.077-.139.218-.185.077-.165-.5-.266-.047-.478.025.207.063.328.111.3.37l-.254.221c-.2,0-.385.054-.556.413.239-.114.447.047.609-.211h0l.136-.016a1.359,1.359,0,0,1-.066.532h0c-.3.063-.452.535-.742.624h0c-.19.1-.394.163-.475.5-.135.086-.219-.32-.311-.146-.2.391-.543.361-.768.662h0c-.18-.2-.333-.151-.486.089-.2.312-.476.25-.717.27-.154.013-.272-.06-.342.229-.048.2-.129.272-.162-.031-.011-.1-.055-.1-.093-.038a1.325,1.325,0,0,1-.784.494.637.637,0,0,0-.466.424c-.106.047-.174.295-.289.212-.558-.394-.874.481-1.336.624-.174.053-.389.318-.612.388-.12.038-.24.048-.3.246-.269.285-.625.28-.879.618-.126.05-.305.054-.3.318.008.305.191.113.29.168.285.16.5-.163.741-.237a17.162,17.162,0,0,0,2.157-1.085,3.355,3.355,0,0,1,1.222-.449c.2,0,.314-.013.4-.275a2.9,2.9,0,0,1,.576-.376c.462-.232.969-.235,1.4-.642.394.1.7-.311,1.057-.431l.565.006c.111,0,.281-.224.319.014.041.257-.185.263-.3.354-.066.05-.158.02-.227.065-.135.087-.316.088-.35.39a7.174,7.174,0,0,1-.823.388c-.273.13-.66.219-.766.628-.206.793-.74,1.1-.987,1.8-.147.419-.491.518-.654.918a28.3,28.3,0,0,0-1.687,2.687c-.139.061-.2.284-.218.426-.1.875-.576,1.508-.627,2.406a.708.708,0,0,1-.163.488c-.064.009-.088.081-.117.158a2.881,2.881,0,0,0,.178,1.9,2.5,2.5,0,0,0,.623,1.243,2.894,2.894,0,0,0,1.239,1.246,2.649,2.649,0,0,1,.814.577,6.469,6.469,0,0,0,1.753,1.207,5.261,5.261,0,0,1,1.695,1.3c-.727.162-1.362.647-2.066.54.043-.123.253-.032.18-.265-.044-.138-.184-.029-.281-.027-.155,0-.153.136-.109.305a2.943,2.943,0,0,0-1.3.083c-.172.068-.333-.029-.495-.086-.132-.047-.236-.121-.2-.418a.567.567,0,0,0-.106-.493c-.321-.357-.659-.216-.986-.306a3.854,3.854,0,0,0-3.137.81.654.654,0,0,1-.417.047c-.295,0-.591-.407-.95.012.329.094.6.188.868.242a.5.5,0,0,1,.317.176c-.137.164.056.393-.023.512s-.24.1-.35.011c-.171-.133-.293-.046-.46.149a4.207,4.207,0,0,0,.818.263c.328.033.293.386.285.679-.009.343-.195.214-.328.212-.441,0-.883,0-1.325,0,.317.237.648.143.972.177.111.013.263-.027.264.194,0,.259.139.453.119.747l-1.212-.117c-.062-.006-.148-.065-.161.084-.017.2.088.138.16.142.332.02.664.049,1,.062.219.008.422,0,.255.489a1.05,1.05,0,0,0,.042.4c.057.474.3.864.338,1.288a1.975,1.975,0,0,0,.844,1.513,9.6,9.6,0,0,0,3.284,2.034c.054.174.2.066.266.209a.082.082,0,0,1-.058.015.734.734,0,0,0-.227.015,1.369,1.369,0,0,0-.774.989c-.049.169-.207.287-.133.513.068.205.208.13.326.107l.184.046c.1.15.221.079.335.093a.445.445,0,0,0,.417.192c.105.184.08.57.339.516l.331.218c.253.492.642.217.95.4a.357.357,0,0,1,.057.021.915.915,0,0,0,.106.77,1.822,1.822,0,0,1-.856.14.405.405,0,0,0-.39.32c-.388.309-.847.289-1.333.625a1.089,1.089,0,0,0,.579.121c.189.23.31.441-.058.53-.063.015-.147.034-.161.14-.021.153.086.175.145.231a1.07,1.07,0,0,0,.213.131c.005.068-.126.149-.03.175.31.084.583.427.919.322h0c-.012.437-.284.812-.1,1.31a.329.329,0,0,1-.238.352c-.068.008-.151.062-.074.188a.58.58,0,0,1,0,.6c-.081.17-.028.266.075.3.265.079.2.469.3.705-.2.136-.173.651-.4.664s-.164.241-.214.392c-.028.083.059.211-.033.271-.3.194-.072.333.022.473a.314.314,0,0,0,.4.137l.592.222c.053.16.257-.028.248.236a.358.358,0,0,1-.219.344.258.258,0,0,0-.12.088c-.139.2-.239.393.033.544.153.086.3.2.454.305-.11.34-.272.5-.49.492a.745.745,0,0,0-.576.356.927.927,0,0,0-.317.115c-.119.1-.35.033-.309.4.033.306.143.516.369.515h0a3.344,3.344,0,0,0,1.211,1.04h0a1.822,1.822,0,0,0,.748.509c.1.03.215.047.242.226.043.286.214.3.332.44.282.333.814.089.887.9,0,.035.052.087.079.086.472-.022.866.4,1.311.529a9.175,9.175,0,0,1,1.593.546,2.127,2.127,0,0,0,1.265.406,6.044,6.044,0,0,0,.592.161,16.674,16.674,0,0,0,2.7.674.928.928,0,0,0,.193.093,1.007,1.007,0,0,0-.294.225c-.232.059-.364.317-.505.56-.129-.058-.26-.108-.389-.169a1.242,1.242,0,0,0-.523-.237,2.1,2.1,0,0,0-.954-.4h0a1.88,1.88,0,0,0-.941-.437c-.28-.082-.534-.482-.853-.188-.025.022-.082-.04-.125-.056-.292-.11-.582-.233-.877-.32-.12-.035-.311-.119-.339.157a.406.406,0,0,0,.28.427,1.1,1.1,0,0,0,.468.023c.42-.04.741.167.939.774a.343.343,0,0,0,.373.26,1.213,1.213,0,0,1,.795.117h0c.094.636.421.493.7.5a.962.962,0,0,0,.2-.026c.382-.073.486.045.552.628.009.081.038.119.087.117.176-.007.333.14.523.1.073-.018.147-.041.219-.065a1.642,1.642,0,0,1-.554.322c-.24-.016-.393.2-.465.5s-.191.464-.393.489c-.075.009-.143.019-.133.167a1.9,1.9,0,0,1-.1.527c-.286.222-.451.676-.731.911-.055.046-.056.163-.088.234-.124.278-.18.677-.422.771-.49.189-.77.819-1.149,1.24a2.107,2.107,0,0,1-.4.438.55.55,0,0,0-.226.576,1.316,1.316,0,0,1-.224,1.016c-.073.114-.139.265-.205.387-.119.222-.2.534-.42.6-.141-.042-.185.19-.3.251a2.433,2.433,0,0,0-.7.674c-.073.092.007.515-.231.262,0,0-.03.055-.049.065-.287.138-.3.595-.442.9-.107.223-.021.284.106.3a.536.536,0,0,0,.156-.033c.251-.043.41.093.487.411.006.028.039.068.049.061.134-.08.189.061.29.155a1.033,1.033,0,0,1,.25.559,1.52,1.52,0,0,0,.476.879h0c.017.147.032.17.175.208.066.016.169,0,.163.127-.014.257.094.53,0,.763-.172.428.091.611.208.821.1.183.11-.161.187-.215a.1.1,0,0,1,.067-.015c.211.021.384-.16.574-.239a1.142,1.142,0,0,1,.612-.108c.188.032.363.126.543-.038.055-.049.123-.067.147.061a3.592,3.592,0,0,1,.094.6c.006.3.083.434.275.42.093.11.256.07.284.324.009.08.049.074.081.021.219-.359.409-.192.594.075a2.93,2.93,0,0,1,.058.611c.009.374.229.567.543.39-.205,0-.24-.226-.346-.289.074-.269.188-.144.295-.094.077-.013.162.446.235-.011.01-.06.064-.035.1-.033.06.006.036.067.04.12.038.5.119.608.447.627.126.036.254,0,.373.163a.2.2,0,0,0,.357-.073c.067-.275.188-.258.316-.295.021.111.134.134.116.279-.041.337.119.244.227.243.038,0,.094-.12.114-.054.11.346.243.053.339.008a.375.375,0,0,0,.253-.259.1.1,0,0,0-.048-.1c-.114-.088-.22-.008-.326.047-.025.012-.037.072-.061.1-.046.048-.1.08-.141,0-.081-.18-.243-.232-.293-.456-.014-.068-.04-.144.043-.146.106.153.258.021.37.147.136.151.31.027.453.137.014.047.06.08.066.053.049-.228.156-.164.258-.131a2.019,2.019,0,0,1,.3.131.157.157,0,0,1,.007.27.516.516,0,0,0-.258.466c-.005.072-.1.028-.069.126.023.073.083.084.121.056.2-.148.415-.026.621-.066.089.116.153.023.234-.1-.086.3-.047.406.14.305.05.023.071.088.088.156l.083.209c.025.088.079.147.122.075.162-.269.341-.1.514-.069.049.326.1.365.24.194-.017-.174.044-.221.142-.2a.344.344,0,0,0,.352-.138c.08-.067.043-.178.044-.275l0-.144c.112-.06.056-.239.1-.345a.3.3,0,0,1,.362.123.039.039,0,0,1,.031.014.305.305,0,0,1-.022.19c-.163.269-.161.265.077.384a.368.368,0,0,0,.167.069c-.038.05-.076.1-.115.154-.079.1-.038.219-.02.333.163-.158.189.231.322.191.093-.054.152-.264.282-.143.048.039.093.209.138-.02.041-.207.113-.4.171-.595.018-.069.04-.134.1-.146.185-.015.383-.287.547.07-.225.284.04.344.1.5-.053.08-.187.043-.149.257.016.089.013.195.085.216a.152.152,0,0,0,.173-.11c.019-.191.161-.245.173-.428.04-.039.076-.142.125-.015.079.185.183.053.277.052-.034-.2.164-.248.127-.448,0-.015-.023-.023-.036-.035-.114-.113-.331.025-.345-.333.037-.034.071,0,.107.014.438.225.493.367.387,1-.014.077-.027.174.034.214s.127.07.159-.042c.087-.31.165-.11.247,0,.012.376.164.162.268.15.055.066.106.144.185.122.028.183.1.187.176.082.045-.06.08-.136.146-.144a2.112,2.112,0,0,1,.594.418h0l-.1.148-.086-.087c-.082-.21-.16-.255-.231.012v.143c-.005.088-.035.2.034.244.157.107.386-.11.423-.391.144-.093-.049-.231.02-.352.131.1.252.12.336-.141-.012.074-.059.12-.031.176.123.244.266.052.4.023.15-.034.052-.149.016-.237a.113.113,0,0,1,.03-.143c.177-.1.079-.153-.012-.214-.075-.049-.1-.123-.046-.239.018-.043-.031-.184.03-.156.173.079.3-.081.454-.13.075-.025.115.059.14.141a.241.241,0,0,1-.047.216c-.155.19-.156.21-.009.434.1.123-.058.127-.041.21-.1.232-.164.454.082.569.113.122.2.155.186-.136-.006-.12-.017-.262.1-.1.109.191.2.211.274-.054.071-.021.126-.123.217,0s.218.09.33,0c.161-.295.331-.341.554-.163.038.031.11.07.125.046.185-.29.319-.041.472.08a.181.181,0,0,0,.2.016.634.634,0,0,1,.378-.062c-.021.219-.126.205-.233.214-.156.013-.217.2-.116.373.137.242.257.569.529.4.058.145.155.129.243.124.185-.011.363-.016.448.313.019.075.094.1.109.041a1.312,1.312,0,0,0,.052-.414.125.125,0,0,0-.166-.114c-.062.019-.136-.047-.2-.026-.163.054-.225-.074-.254-.286l0-.135.127-.111c-.028-.075-.088-.074-.122-.113-.076-.087-.193.059-.243-.116.133-.108.3-.028.425-.162.179.059.347.219.542.153.137.163.029.371.044.556a.308.308,0,0,0,.005.064,1.776,1.776,0,0,0,.7.194c.1-.013.143,0,.191.147a1.286,1.286,0,0,0-.323-.05c-.061.007-.153-.068-.185.049s.073.155.1.242c0,.068,0,.135,0,.2,0,.094-.059.212.029.27s.119-.074.153-.171c.008-.023.039-.028.059-.041.121.034.232.04.265-.2.141.155.3-.025.458.077.181.117.4.25.576.187s.272.008.386.147v.087c-.028.055-.063.109.008.151a.424.424,0,0,0,.262.05.494.494,0,0,1,.5.074h0c.138.08.276.189.411-.009.067.014,0-.3.134-.126.03.148.086.316.173.109s.206-.182.331-.19c.076,0,.161.056.225-.038,0-.163-.141-.1-.148-.257.106-.089.189-.239.339-.142a.415.415,0,0,0,.268.038c.109-.012.047.346.206.205.1-.084.02-.271.087-.344.1-.1.519.109.581.287s.153.271.287.278a.279.279,0,0,1,.3.237c.056.226.127.123.205.049.3-.279.336-.27.524.117.04-.081.08-.158.118-.238.091-.188.5-.15.524.068.041.323.17.367.34.36a.443.443,0,0,1,.064-.027c.241-.089.284-.169.171-.318-.159-.208.183-.284.036-.469a.166.166,0,0,0-.164-.08c-.089.014-.175.061-.265.074-.021.006-.042.018-.069.028a.034.034,0,0,1,0-.019c.023-.008.043-.015.062-.02.139-.033.284-.056.186-.372-.007-.022.028-.047.048-.062a.989.989,0,0,1,.113-.054,1.793,1.793,0,0,0,.182.065.376.376,0,0,1,.024.043c.215.035.435.129.616-.165a.12.12,0,0,1,.173-.041,1.259,1.259,0,0,0,.733.184c.1-.011.166.068.092.244a.568.568,0,0,0-.016.1,1.233,1.233,0,0,1-.17.2h-.083c-.091.021-.081-.093-.105-.174-.132-.446-.49-.551-.7-.2-.055.094-.1.119-.176.083s-.177-.057-.179.14c0,.161-.006.351.164.305.055-.148.1-.263.223-.08a.417.417,0,0,0,.356.184c.127,0,.208.11.37.168-.086.04-.128.076-.138.062-.11-.161-.262-.049-.382-.142-.065-.05-.124-.015-.134.1-.014.158.175.441.264.368.136-.11.243-.016.36.025.174.06.326.055.391-.276a.327.327,0,0,0,.49.141c.067-.029-.009-.268.112-.146.023.134.121.209.333.258.117-.026.232-.142.348.039.058.089.163.016.152-.087-.03-.293.1-.243.2-.273.047.079.112.067.17.067.253,0,.5-.006.757-.011.074,0,.153-.023.2.107-.049.075-.115.031-.165.062-.073.043-.216-.04-.2.164.01.158.133.13.208.107.386-.117.751.394,1.142.087,0,0,.016,0,.021.011.117.155.257.093.39.1.243.086.485-.05.728,0a10.273,10.273,0,0,1,1.272.191.767.767,0,0,0,.349-.013c.122-.026.25-.149.381-.074.245.142.511-.018.757.13a.081.081,0,0,0,.093-.129c-.265-.347-.12-.57.072-.8a.777.777,0,0,0,.5.05c.147.106.3.058.455.072-.017.1-.13.167-.053.3s.149.054.226,0a1.278,1.278,0,0,1,.146-.08l.043.072a.822.822,0,0,0,.175.284c.11.138.106.216-.048.211-.054,0-.126,0-.13.09-.006.127.076.1.131.119a1.026,1.026,0,0,0,.464.072,2.825,2.825,0,0,0,1.667-.165c-.293-.087-.582-.292-.874-.016-.08-.275.064-.521.01-.772.059.069.143.059.218.07s.142-.011.135-.153c-.012-.236-.132-.249-.245-.239-.075.007-.159.027-.165.2a.305.305,0,0,0,.046.113c-.081.013-.082.114-.1.173a1.2,1.2,0,0,1-.244.4c-.142.223-.165-.138-.26-.181-.079-.126.051-.2.034-.3-.058-.32-.2-.126-.316-.113-.068-.154-.179-.178-.279-.238a.8.8,0,0,0,.168-.155c-.03-.055-.062-.062-.093-.092a.592.592,0,0,1,.5-.185,3.294,3.294,0,0,0,.977.11c.041.265.214.337.316.513h0c0,.262.143.359.251.375.236.036.307.336.443.534a.321.321,0,0,0,.251.263c.2.05.4-.02.594.011.389.06.778-.009,1.166.05.1.015.188-.006.174-.212-.01-.164.08-.13.134-.169.119-.087.066.077.085.136.027.083.069.119.129.1l.138-.053c.042.062.08.133.144.138.113.12.226.025.312-.055.056-.052-.049-.135-.068-.214.043-.17.214-.2.21-.4a.742.742,0,0,1,.009-.084.431.431,0,0,1,.3.147c-.008.041-.009.079.017.093a.311.311,0,0,1,.064.038c0,.009.009.022.014.032s-.04.038-.076.075a.383.383,0,0,0-.073.323.113.113,0,0,0,.2.036c.14-.161.335-.215.419-.49-.023-.087.071-.164.009-.255-.149-.216-.045-.3.082-.367a.071.071,0,0,1,.039-.013.252.252,0,0,0,.186-.036,2.052,2.052,0,0,0,.642.185.849.849,0,0,0-.092.143c-.087-.014-.193-.074-.234.077a.2.2,0,0,0,0,.092c-.024-.006-.042.008-.072-.014-.008-.006-.031.042-.048.062-.143.158,0,.255.024.39.04.243.1.211.2.094.019.028.034.029.051.046-.006.136-.082.3.045.387.15.1.175-.11.226-.253.012-.034.058-.041.088-.061.179.052.344.059.392-.3.014.014.028.013.041.023-.007.074-.008.141.09.109a.472.472,0,0,0,.119-.042c.139-.011.284-.069.427.023.267.172.593.368.85.276s.4.012.571.217v.128c-.041.081-.093.161.013.224a.628.628,0,0,0,.386.074.728.728,0,0,1,.736.11h0c.2.117.408.279.607-.014.1.022.007-.439.2-.187.044.221.127.468.256.163.136-.324.305-.27.489-.282.112-.007.239.082.332-.056-.005-.241-.207-.143-.218-.379.156-.133.28-.353.5-.21a.607.607,0,0,0,.4.055c.161-.018.07.512.305.3.141-.124.029-.4.128-.507.143-.153.767.16.86.424s.226.4.425.411a.413.413,0,0,1,.447.35c.082.336.187.184.3.075.437-.413.5-.4.775.173.059-.12.118-.235.174-.352.135-.278.735-.223.775.1.06.478.251.543.5.534a.51.51,0,0,1,.1-.041c.356-.131.42-.25.253-.468-.235-.307.27-.421.053-.695a.247.247,0,0,0-.243-.119c-.132.021-.259.09-.391.109-.032.009-.062.026-.1.041a.049.049,0,0,1,0-.026.8.8,0,0,1,.092-.031c.2-.048.419-.083.273-.55-.01-.033.042-.069.071-.092a1.788,1.788,0,0,1,.166-.08,2.648,2.648,0,0,0,.27.1.57.57,0,0,1,.036.065c.318.052.644.191.91-.244a.18.18,0,0,1,.256-.061,1.841,1.841,0,0,0,1.082.271c.142-.014.246.1.136.361a.875.875,0,0,0-.023.143,1.761,1.761,0,0,1-.252.3h-.122c-.135.032-.12-.136-.155-.257-.195-.658-.725-.814-1.027-.3-.082.141-.152.175-.26.124-.129-.061-.262-.086-.265.205,0,.237-.009.519.242.453.082-.221.147-.391.33-.12a.61.61,0,0,0,.526.272c.188,0,.308.163.547.249-.127.06-.189.113-.2.092-.164-.237-.387-.073-.565-.21-.1-.075-.184-.022-.2.154-.02.232.258.65.39.543.2-.163.359-.023.532.036.257.089.483.082.579-.406.231.38.466.316.724.207.1-.042-.013-.4.166-.214.034.2.178.309.492.38.173-.038.343-.209.514.057.085.133.241.025.225-.128-.045-.433.151-.36.3-.4.07.116.165.1.252.1.373,0,.746-.008,1.119-.015.11,0,.226-.034.3.157-.072.111-.169.047-.244.093-.107.065-.319-.059-.3.243.015.234.2.192.307.158.571-.174,1.111.582,1.689.128.007,0,.022.006.03.016.173.228.381.136.577.149.358.127.717-.076,1.075,0a15.391,15.391,0,0,1,1.881.284,1.134,1.134,0,0,0,.516-.019c.18-.038.369-.221.563-.109.362.209.756-.027,1.119.192a.119.119,0,0,0,.137-.19c-.391-.514-.177-.844.107-1.184a1.147,1.147,0,0,0,.735.075c.216.156.448.084.674.1-.025.148-.192.248-.079.438.1.171.221.08.334,0a2.114,2.114,0,0,1,.215-.117l.063.106a1.228,1.228,0,0,0,.259.419c.163.205.157.319-.072.313-.079,0-.186,0-.192.134-.009.187.112.144.194.176a1.56,1.56,0,0,0,.686.106,4.187,4.187,0,0,0,2.464-.245c-.433-.129-.86-.433-1.292-.025-.119-.413.107-.784.013-1.164-.136.006-.133.169-.155.261a1.774,1.774,0,0,1-.361.589c-.21.331-.244-.2-.385-.266-.116-.185.076-.3.05-.44-.086-.475-.3-.187-.466-.168-.118-.265-.329-.258-.49-.4a.4.4,0,0,1-.062-.025.065.065,0,0,1-.01-.039.949.949,0,0,1,1-.53,4.87,4.87,0,0,0,1.444.163c.06.392.316.5.467.758h0c-.005.386.211.532.371.556.348.054.454.5.655.789a.473.473,0,0,0,.37.388,8.2,8.2,0,0,0,.879.014c.576.09,1.15-.013,1.722.075.143.022.278-.008.258-.313-.016-.242.117-.192.2-.251.176-.128.1.116.126.2.04.122.1.174.191.148l.2-.08c.061.093.117.2.213.205.167.177.334.036.462-.081.083-.075-.072-.2-.1-.317.063-.25.316-.293.31-.588-.009-.519.229-.575.463-.663-.007.252.176.143.229.282.086.331-.2.141-.2.339-.028.091-.082.237-.013.271.2.1.115.1,0,.215a.565.565,0,0,0-.108.476.167.167,0,0,0,.3.054c.207-.238.5-.318.619-.724-.033-.129.105-.245.014-.378-.22-.319-.066-.44.121-.543a.106.106,0,0,1,.057-.019.315.315,0,0,0,.346-.1c-.095-.083-.221-.029-.262-.19.264-.283.47-.1.661.2.168.313.429-.2.617.191-.294.057-.312.865-.728.557-.011-.008-.045.063-.071.092-.212.235,0,.378.036.577.059.359.148.312.289.138.25.367.4-.009.6-.185-.087-.167-.243-.273-.193-.537.017-.043.034-.088.051-.13.082-.2.448-.28.127-.665.041-.063.045-.234.1-.266h0c.024-.013.058,0,.109.067.185.237.324.371.375-.153,0-.048.114-.073.175-.109.139.158.317,0,.51.122-.145.14-.3.1-.383.266.15.025.369.149.421.055.281-.509.53-.218.792,0a1.883,1.883,0,0,0,.271.6l-.263.116c-.108-.013-.218-.069-.319.028.01.332.23.09.308.27a.706.706,0,0,1-.058.11c-.067.087-.16.161-.072.323.047.087.088.228.179.183a.346.346,0,0,0,.121-.371.329.329,0,0,1,.053-.332l.121-.007c-.045.148-.138.353.028.406s.135-.244.184-.393a.288.288,0,0,0,.059-.326l.071-.51c.06-.056.111-.148.193-.119.183.066.138-.461.35-.318.1.113.262,0,.326.225.032.361.266.286.4.433-.009.134.037.285-.056.39-.012-.127-.065-.293-.135-.182a1.063,1.063,0,0,0-.2.595c0,.225.08.256.2.21a.717.717,0,0,1,.363-.093c.194.029.3-.135.11-.419a.282.282,0,0,0,.146-.205c.176.192.35-.014.525-.006.178.211.329.163.475-.1-.154-.221-.317-.171-.48-.117l-.653-.022-.092-.076c-.04-.278-.224-.336-.331-.51-.024-.353.2-.251.278-.276.506-.157,1.036.151,1.539-.17.013-.008.038.028.058.043-.057.3-.14.628.223.513.047-.015.116.081.137.189l-.005-.007v.007h0c.084.143.181.368.3.142a.5.5,0,0,0-.08-.568c-.066-.063-.186-.075-.146-.276.046-.034.038-.13.061-.161.076-.106-.172-.338.069-.366.14-.015.218.038.2.27-.012.2.084.133.152.168.307.16.573-.143.861-.19.213-.034.5.117.665-.256.139.02.226.127.245.346.008.092.031.176.1.168s.084-.087.084-.185c0-.478.193-.431.388-.305a.274.274,0,0,0,.377-.026c.125-.113.251-.277.417-.092.053.059.129-.019.139-.147.008-.1-.028-.157-.093-.171-.383-.077-.765-.177-1.15-.218-.094-.011-.331.066-.292.2.1.33-.062.26-.148.324-.021-.359-.282-.508-.357-.391-.189.295-.291.252-.532.113a2.555,2.555,0,0,0-1.043-.151c.106-.271.244-.555-.084-.7-.145-.067-.1-.236-.044-.372s.132-.124.226-.041.078.3.211.284a1.458,1.458,0,0,1,.11.176c.046.1.088.212.181.16.06-.033.069-.13.053-.216-.034-.182-.118-.168-.212-.123-.015.007-.043-.049-.064-.077.022-.339.355-.19.363-.539.01-.4.233-.242.26-.153.151.5.362.295.583.184a.2.2,0,0,1,.287.219c-.037.17-.058.575-.324.508-.082-.021-.2.022-.167.223.031.182.175.239.244.182.3-.241.623-.062.923-.205.121-.058.323-.031.3-.275-.025-.275-.21-.158-.337-.117-.085.027-.167.094-.251.1-.122,0-.276.1-.342-.178.356-.265.739-.1,1.106-.167.275-.053.5.016.376-.645.088.269.2.306.306.195s-.028-.232-.038-.354c-.014-.162-.1-.467-.04-.458.269.046.432-.455.708-.282.056.035.157-.021.152.119,0,.068-.09.129-.139.194-.154.119-.386.167-.21.574.064.147.6.326.693.225a.321.321,0,0,0,.047-.272c-.017-.133-.025-.268-.037-.4.23-.048.462-.081.689-.151.136-.041.322.194.4-.07.066-.235-.23-.154-.231-.4.064-.1.158-.124.22-.084.216.141.412.05.631,0,.294-.069.608-.215.918.157.109.13.308.388.49.329.327-.106.71.117.975-.38.06-.111.147.013.217.009a.851.851,0,0,0,.789-.549c-.052-.144.008-.44-.186-.4-.283.063-.573-.1-.855.12a.793.793,0,0,1-.565.133c.12-.108.281-.133.257-.34s-.177-.158-.285-.181c-.365-.076-.731.158-1.1-.014-.088-.042-.141.1-.149.224-.016.286-.141.289-.285.311-.307.047-.589-.192-.895-.161-.1.011-.112-.11-.072-.257.093-.339.311-.46.6-.318a.582.582,0,0,0-.132.311c0,.1.006.207.086.252s.164.057.167-.059a2.534,2.534,0,0,1,.172-.546c.03-.039.059-.083.089-.126.756-.1,1.515-.077,2.272-.113.138-.006.2.111.213.313.01.147.051.265.162.277.087.009.149-.061.194-.167l0-.013c0,.3.094.332.377.316.117-.083.241-.2.275.129.025.169-.356.312-.014.5a.733.733,0,0,1-.058.411.386.386,0,0,0-.105.525c.224.242.468.074.695-.143-.244.028-.324-.17-.327-.487.025-.44.268-.243.412-.332.159.058.243-.222.392-.208.244-.158.214.127.213.329,0,.385.083.523.32.3.059.245.061.623.317.176.084-.146.227-.234.3-.44.062-.184.191-.293.309-.229.333.184.568.074.7-.444.256-.17.6.033.785-.442-.044-.1-.158-.019-.18-.169.064-.171.235-.295.1-.573a.544.544,0,0,1-.493.272c-.139-.189-.283-.345-.469-.128h0l-.005.1h0c-.355.1-.239-.252-.214-.519-.008-.253.092-.218.215-.253.214-.06.338.311.548.2a7.6,7.6,0,0,1,1.1-.349,6.81,6.81,0,0,0,2.237.392.326.326,0,0,1,.319.128,1.329,1.329,0,0,0,1.188.556c.1.006.2.02.293.032.055.158-.018.465.155.415.12-.034.088-.217.081-.387a1.885,1.885,0,0,1,.5.164,2.415,2.415,0,0,0,1.061.216c.9.025,1.792.063,2.687.042a42.716,42.716,0,0,0,6.613-.323c.923-.165,1.858-.187,2.776-.4,1.358-.313,2.706-.737,4.058-1.109.142-.039.3-.109.431-.047.41.2.794-.022,1.189-.093.506.126.992-.282,1.5-.15a.689.689,0,0,0,.622-.111.809.809,0,0,1,.588-.16,11.352,11.352,0,0,0,2.313-.176,5.281,5.281,0,0,0,1.138-.053,4.779,4.779,0,0,1,1.716-.419,3.182,3.182,0,0,0,1.011-.287,3.4,3.4,0,0,0,1.207-.371c.186-.06.391.09.551-.117a2.182,2.182,0,0,1,1.116-.785c.759-.255,1.491-.595,2.252-.054.2.142.4,0,.482-.279a.508.508,0,0,1,.511-.452,4.468,4.468,0,0,0,1.185-.3l1.662-.224c.331.076.635-.164.958-.194.069-.006.113-.065.081-.212a.54.54,0,0,1,.247-.609l.557-.062,0-.129-.554-.046c-.179-.185-.188-.2-.132-.277.165-.223.292-.506.551-.563.174-.039.386-.029.523-.28a1.1,1.1,0,0,0,.672-.211,2.189,2.189,0,0,1,.529.061,3.886,3.886,0,0,0,1.833-.264l.031,0,.029-.016c.582.036,1.161.146,1.74.225a22.417,22.417,0,0,1,2.411.122,4.721,4.721,0,0,0,1.81.043,2.7,2.7,0,0,1,.7-.114,34.27,34.27,0,0,0,3.479.367,10.18,10.18,0,0,0,4.14-.852,2.031,2.031,0,0,1,.753.358.494.494,0,0,0,.531.16c.153-.033.272-.143.1-.4-.072-.108-.172-.278-.115-.393.2-.41-.023-.49-.179-.635.156-.19.365-.08.531-.219.193.011.266-.288.148-.346-.281-.142-.388-.648-.693-.685a1.551,1.551,0,0,1-1.035-.319.338.338,0,0,1-.186-.263c-.145-.745-.24-.834-.723-.908-.385-.059-.751.2-1.134.119a.446.446,0,0,0-.391-.081,3.4,3.4,0,0,1-1.2-.156c.371-.183.669-.58.925-.337.224.211.373.126.568.076.429-.109.86-.2,1.29-.3.088.214.165.307.3.038a.684.684,0,0,1,.486-.363c.168-.05.475.167.5-.377l.075.086c-.02.154-.043.311.115.307-.089.216-.153.385.116.313.2-.054.457-.155.455.454.119-.3.071-.6.155-.832.007-.018.015-.033.021-.053a.247.247,0,0,0,.016-.1c.073-.386.261-.445.52-.316-.141.041-.312.034-.289.349s.2.195.315.259c.094.055.172-.007.244-.1a.629.629,0,0,0,.8-.2c.124-.17.308.08.433-.127.278.1.576-.022.842.142l.037-.414a.287.287,0,0,0,.045-.224c.052-.027.106-.08.158-.076a.231.231,0,0,0,.272-.253.307.307,0,0,0-.273-.295c-.239-.007-.48,0-.72-.029-.158-.018-.268-.233-.278-.21-.171.39-.259-.019-.356-.111-.138.221,0,.388-.007.567-.118-.028-.244-.11-.354-.076a1.981,1.981,0,0,1-1.4-.226c-.109-.129.09-.407-.116-.51-.178-.088-.016.305-.185.215a.618.618,0,0,0-.3-.54c.044-.082.168-.069.14-.228-.021-.119-.109-.091-.172-.081-.194.031-.389.07-.583.107-.342-.008-.684-.015-1.027-.026-.247-.008-.5-.09-.734.1h0l-.114.011c-.178-.51-.54-.649-.857-.338-.041.041-.106.027-.159.038v0c-.106-.266-.228-.1-.338-.019-.081.056-.178.191-.242.119-.265-.3-.513-.011-.768.006-.121-.1-.265-.11-.345.035-.181.33-.3.245-.486-.011a.323.323,0,0,0-.549-.048c-.163.2.1.263.1.428a2.292,2.292,0,0,1-.981.049,2.482,2.482,0,0,0-.507.047c-.162.042-.272-.117-.4-.236a1.11,1.11,0,0,0-1.51.211c-.1.142-.208.195-.294.048a.4.4,0,0,0-.462-.215c-.375.055-.593-.329-.859-.6.065-.147.116-.035.166-.046,1.14-.216,2.292-.106,3.435-.293.717-.117,1.447-.049,2.17-.1.635-.046,1.268-.21,1.9-.2a6.086,6.086,0,0,0,1.654-.275.953.953,0,0,0-.209-.069,15.71,15.71,0,0,0-2.465,0,21.073,21.073,0,0,1-2.6.093c-.5,0-1.009.268-1.52-.043a.55.55,0,0,0-.37-.039c-.933.257-1.883.148-2.819.313a8.724,8.724,0,0,1-1.271-.089c-.059-.076-.159.029-.2-.108l.055-.183c0-.295.188-.366.279-.553.4-.19.809-.036,1.213-.1l.532-.011c.177-.055.288-.181.217-.493.362-.081.654.458,1.044.358-.056-.275-.225-.221-.28-.381l.31-.2.069.1a.632.632,0,0,0,.075.427c.091.126.269.158.24-.054-.048-.358.137-.324.22-.458l.2-.211a1.025,1.025,0,0,0,.733.233.32.32,0,0,0,.013-.053l.008,0-.022.05c.158.419-.243.163-.219.447.225.1.408.068.476-.361.324.519.332.52.629.1.03-.042.04-.05.094-.034.186.055.391.128.523-.2.205.025.414.131.609-.07.094.108.189-.015.286,0,.081.014.2.046.2-.149.007-.175-.1-.216-.186-.219-.29-.012-.589-.146-.858.138-.14-.237-.306-.168-.472-.092h0a.628.628,0,0,0-.537-.1.1.1,0,0,0-.058-.021c-.126-.2-.238-.057-.347.041-.082.073-.142.219-.258.146-.026-.146.076-.285.015-.434l-.361.052a.091.091,0,0,1-.061-.016c-.245-.209-.358.077-.486.306h0c-.067-.19-.121-.449-.28-.111-.04.084-.087.129-.169.072a.43.43,0,0,0-.554.066c-.045.043-.271-.011-.367-.007-.057,0-.327-.232-.181.232.031.1-.077.023-.113.061a.587.587,0,0,0-.616-.293c-.22-.458-.336-.461-.551,0-.049.1-.105.108-.173.1-.22-.043-.326-.248-.325-.759-.115.338-.219.391-.364.367-.19-.032-.173.184-.14.383-.278.12-.568-.258-.857.073-.049.057-.228.011-.249.185s.123.2.206.275a.147.147,0,0,1,.063.163c-.353.276-.7-.035-1.047-.055-.051-.143-.27-.295.007-.42.063-.029.1-.055.062-.167-.028-.08-.065-.15-.125-.147-.151.008-.272.155-.373.292-.133.183.043.218.1.317.07.128-.068.14-.071.233l-.127.077c0-.194-.178-.286-.131-.5.04-.183.105-.373-.048-.487-.189-.143-.181.228-.295.293h0a2.436,2.436,0,0,1-.743-.222c-.222-.343-.251.055-.343.211l-.141,0a.5.5,0,0,1-.15-.106c-.26-.352-.5-.324-.773,0-.077.092-.226.3-.382.111-.029-.035-.088-.013-.109.063a.138.138,0,0,0,.072.184c.061.029.125.05.188.075.075.613.075.613-.323.6-.021-.191.045-.485-.2-.414a2.657,2.657,0,0,0-.669-.573c-.056-.007-.111-.026-.167-.031-.3-.023-.656-.2-.881-.082-.522.282-1.059.012-1.561.287-.067.461-.211.559-.707.478.364.034.364.034.486-.189a4.742,4.742,0,0,0-1.516-.64c.357-.177.673-.18.928-.442.206-.214.437-.009.642-.14.037.219.11.356.274.275a.515.515,0,0,0,.69-.108c.391.379.813-.046,1.223.115.3.116.609-.154.923-.1.208-.067.418.119.669,0l-.356-.379a1.333,1.333,0,0,1,.81-.1c.18.014-.008.1,0,.146-.042.006-.12.012-.1.076.043.134.12.251.231.245a3.322,3.322,0,0,1,.87.007c.053.012.123.031.129-.086a.178.178,0,0,0-.1-.175h0c-.017-.11-.132-.016-.141-.162.032-.02.062-.038.091-.057.072-.049.217.013.2-.183s-.147-.081-.227-.082c-.354,0-.708,0-1.061,0,.071-.084.156-.07.206-.182.093-.034.125-.107.019-.167a.761.761,0,0,0-.493-.043c-.311.06-.632-.108-.938.093a.8.8,0,0,0-.744.018l-.135-.009c-.6,0-1.217-.2-1.806.161.085.249.244.09.359.158s.264-.077.465.058a5.342,5.342,0,0,1-3.461.107c.829-.289,1.623-.035,2.392-.313-.305-.038-.6-.244-.894-.165a3.647,3.647,0,0,1-.958.092c-.735.008-1.473-.055-2.2-.036a7.675,7.675,0,0,1-2.295-.008c-.163-.045-.3.312-.49.162-.1-.467.225-.212.286-.4.207-.008.4-.207.62-.081.06.034.163.252.194-.011.015-.128.029-.381-.177-.346a.683.683,0,0,1-.46-.188,1.162,1.162,0,0,0-.8-.224.153.153,0,0,0-.072-.04,1.116,1.116,0,0,0-.586-.165c-.1.006-.273,0-.144.3.14.225.126.372-.094.345a12.711,12.711,0,0,1-1.7-.255,3.811,3.811,0,0,1-1.073-.284,4.888,4.888,0,0,1,2.8-.218.329.329,0,0,0-.277-.28c-.428-.124-.857-.249-1.288-.35a2.169,2.169,0,0,1-1.538-.774c-.033-.045-.137-.02-.067-.153.022-.041.082-.033.124-.048.084.173.144.012.213-.036a7.776,7.776,0,0,0,1.826-.411,10.748,10.748,0,0,0,1.437-.38c.259-.1.538-.029.779-.237a2.513,2.513,0,0,0,1.556-.615,2.675,2.675,0,0,0,2.157-1.044c.6.045,1.151-.453,1.754-.309a.093.093,0,0,0,.08-.054c-.006-.474.223-.264.354-.266a.955.955,0,0,0,.465-.059,3.212,3.212,0,0,1,1.593-.163c.883-.026,1.761.219,2.648.153a3.036,3.036,0,0,1,.735.047,2.41,2.41,0,0,0,1.134.02,2.415,2.415,0,0,1,.846-.173,12.474,12.474,0,0,0,2.708.165.771.771,0,0,1,.721.154.642.642,0,0,0,.715.134,1.28,1.28,0,0,1,.7-.047,8.778,8.778,0,0,0,2.757.195,2.463,2.463,0,0,0,.9-.136,1.3,1.3,0,0,0-.262-.16c-.481-.13-.965-.231-1.443-.379-.366-.113-.721-.334-1.089-.412-.908-.189-1.821-.324-2.731-.479-.081-.158-.313-.113-.289-.356.027-.27.225-.1.341-.165a1.959,1.959,0,0,0,.188-.131c-.108-.136-.2-.266-.3-.368-.065-.068-.149-.109-.127-.258a.177.177,0,0,1,.187-.167,3.038,3.038,0,0,0,.877-.412c.2.035.4-.126.6-.011.1.324.288.246.439.2a4.068,4.068,0,0,1,1.536-.083,1.9,1.9,0,0,0,1.343-.522c-.156-.437-.411-.712-.679-.712-.525,0-1.043-.121-1.567-.133-.246-.006-.5.2-.736,0a.39.39,0,0,0-.414-.082.044.044,0,0,1-.058-.014c-.066-.737-.271-1.278-.809-1.342-.2-.107-.372-.383-.611-.217-.173,0-.269-.062-.381-.343a1.159,1.159,0,0,0-1.072-.8,7.006,7.006,0,0,1-1.488-.34,8.077,8.077,0,0,0-1.685-.381c-.031,0-.06-.013-.09-.015a5.454,5.454,0,0,0,1.1-.23c-.293-.087-.582-.292-.874-.016a.7.7,0,0,1-.019-.253c.452.07.9.133,1.355.2a1.174,1.174,0,0,0,.067.115.322.322,0,0,0,.25.263c.2.05.4-.021.594.009.389.061.778-.009,1.166.05a.139.139,0,0,0,.137-.038,7.745,7.745,0,0,0,1.715.334,1.109,1.109,0,0,0-.779-.571.2.2,0,0,1-.024-.054c.043-.169.214-.2.21-.4-.006-.351.155-.388.313-.448,0,.171.119.1.155.19.058.224-.133.1-.138.23-.019.061-.055.16-.008.183.134.068.077.067,0,.146a.38.38,0,0,0-.073.322.113.113,0,0,0,.2.038c.14-.162.335-.216.419-.49-.023-.087.071-.165.009-.255-.149-.216-.045-.3.082-.368a.071.071,0,0,1,.039-.013.212.212,0,0,0,.234-.065c-.064-.056-.15-.02-.177-.128.178-.191.318-.069.447.133.114.214.29-.135.418.13-.2.039-.211.584-.493.377-.008-.006-.031.043-.048.062-.143.16,0,.256.024.39.04.244.1.212.2.1.169.248.272-.006.407-.126-.059-.113-.165-.185-.132-.364l.035-.089c.055-.137.3-.189.086-.449.028-.042.03-.157.065-.18h0c.016-.009.039,0,.074.046.125.16.219.251.253-.1,0-.033.077-.049.119-.073.094.107.214,0,.345.082-.1.1-.2.066-.259.18.1.018.25.1.285.038.19-.344.359-.148.536,0a1.249,1.249,0,0,0,.183.4l-.177.079c-.073-.008-.148-.047-.216.02.007.224.155.061.208.182a.514.514,0,0,1-.039.075c-.045.059-.108.108-.049.218.032.059.059.154.122.123a.235.235,0,0,0,.082-.251.224.224,0,0,1,.036-.224l.082,0c-.03.1-.094.238.019.275s.091-.165.124-.265a.2.2,0,0,0,.04-.221l.048-.346c.041-.038.075-.1.131-.08.124.045.093-.312.237-.215.066.075.177,0,.22.151.022.244.18.195.269.293-.006.09.025.192-.038.264-.008-.086-.044-.2-.091-.123a.714.714,0,0,0-.135.4c0,.153.054.174.133.143a.48.48,0,0,1,.246-.063c.132.02.2-.09.075-.283a.192.192,0,0,0,.1-.138c.12.129.237-.011.356,0,.12.143.223.11.321-.065-.1-.15-.215-.116-.325-.08l-.441-.015-.062-.052c-.027-.189-.151-.228-.224-.345-.016-.239.133-.17.188-.187.343-.107.7.1,1.041-.116.009,0,.026.02.039.031-.038.205-.095.425.151.346.031-.009.078.055.092.129l0-.006v0h0c.057.1.122.249.2.1a.34.34,0,0,0-.054-.384c-.045-.042-.125-.052-.1-.187.031-.023.026-.089.041-.109.051-.072-.116-.229.047-.248.094-.011.147.026.138.183-.008.135.057.089.1.113.207.108.388-.1.583-.128.144-.023.335.08.451-.174.094.014.152.086.165.234.005.063.02.12.067.115s.056-.059.057-.126c0-.324.131-.291.263-.207a.185.185,0,0,0,.255-.018c.085-.076.169-.187.283-.062.035.04.087-.013.094-.1.005-.069-.019-.106-.063-.115-.259-.053-.517-.12-.778-.148-.063-.007-.224.045-.2.135.066.223-.042.177-.1.219-.014-.243-.19-.344-.241-.265-.128.2-.2.171-.36.076a1.73,1.73,0,0,0-.705-.1c.072-.183.165-.375-.057-.476-.1-.045-.067-.16-.03-.252s.089-.083.153-.027.052.205.143.192a.92.92,0,0,1,.074.119c.031.068.06.144.123.109.04-.023.046-.089.035-.147-.022-.123-.079-.114-.143-.083-.01,0-.029-.034-.043-.053.015-.229.24-.129.245-.364.007-.271.158-.163.176-.1.1.34.245.2.395.124a.132.132,0,0,1,.194.148c-.025.116-.04.388-.219.344-.055-.014-.136.016-.113.151s.118.161.165.123c.2-.163.422-.042.625-.14.082-.039.219-.021.2-.185-.018-.185-.142-.107-.228-.08-.057.019-.113.065-.17.065-.082,0-.186.065-.231-.121.241-.18.5-.065.748-.111.186-.036.336.011.255-.438.045.138.1.164.155.147-.033.008-.066,0-.1.041a.106.106,0,0,0,.014.156c.1.072.206.1.307-.113a.354.354,0,0,0-.166-.108c.062-.077-.023-.151-.03-.231-.009-.109-.066-.316-.026-.31a.222.222,0,0,0,.177-.076,2.675,2.675,0,0,0,.4-.023c-.009.042-.058.081-.089.121-.1.08-.261.113-.141.388.043.1.407.221.468.153a.218.218,0,0,0,.032-.185c-.011-.089-.017-.181-.025-.271.155-.033.312-.055.466-.1.092-.028.217.131.268-.048.045-.158-.155-.1-.156-.271.043-.069.107-.083.149-.056.147.1.279.034.427,0a2.15,2.15,0,0,1,.248-.05,1.1,1.1,0,0,1,.179.089.127.127,0,0,0,.125.012.413.413,0,0,1,.068.056c.074.088.208.263.332.222h.005c.826.453.838.448,1.075.158a3.16,3.16,0,0,0-.922-.18c.179,0,.364.023.5-.236.041-.075.1.009.147.006a.575.575,0,0,0,.533-.371c-.035-.1.006-.3-.126-.268-.191.042-.387-.067-.579.081a.543.543,0,0,1-.382.09c.081-.074.191-.09.174-.231s-.12-.107-.193-.122c-.247-.052-.495.107-.744-.009-.06-.028-.1.065-.1.151-.011.194-.1.2-.193.21a.56.56,0,0,1-.251-.041.289.289,0,0,1-.012-.072c.044.02.1.028.1-.043a1.725,1.725,0,0,1,.116-.37c.021-.026.041-.055.06-.084.511-.066,1.025-.053,1.537-.076.094,0,.135.075.144.212.007.1.035.18.11.188.059.006.1-.042.132-.113l0-.009c0,.205.063.224.255.214.079-.056.163-.138.186.087.017.115-.241.211-.009.34a.494.494,0,0,1-.038.277.262.262,0,0,0-.071.356c.151.163.316.049.469-.1-.165.019-.219-.115-.221-.33.017-.3.181-.164.279-.224.108.039.164-.15.266-.141.165-.107.145.086.144.222,0,.26.056.354.216.206.04.165.041.421.214.119.057-.1.154-.157.2-.3s.129-.2.209-.155l.016,0a.707.707,0,0,0,.333.183c.217.029.241-.3.3-.543.135-.019.275-.02.361-.244-.03-.066-.107-.013-.122-.115.043-.116.159-.2.067-.387a.369.369,0,0,1-.333.184c-.095-.128-.191-.234-.318-.086h0l0,.07h0c-.24.069-.161-.171-.145-.352-.005-.17.062-.148.145-.17.145-.041.229.21.371.136.32-.165.666-.155.985-.344.115-.067.252.1.374-.033.084.038.129-.1.205-.109.151-.028.15-.039.155-.241-.187-.117-.35.119-.532.106a.151.151,0,0,0-.1-.036c-.061.085-.121.088-.179-.006-.094-.218-.157-.426.075-.536,0,0,0-.021.007-.032.188-.324.453.043.654-.172.005-.006.024.026.037.032.045.02.086-.025.086-.075,0-.317.151-.252.25-.212.128.05.222-.248.35-.055.1.347.386,0,.494.329.009.029.064-.032.071-.1.032-.293.128-.158.216-.075-.045.141-.006.154.077.135.195-.043.211-.392.369-.5h0c.087.045.187-.023.268.076.058.07.091.038.1-.067.113-.178.308-.079.412-.286l.229.021c-.031.311-.205.245-.314.338-.074.063.02.383-.2.246.093.1.188.12.242.234-.012.1-.044.133-.1.072-.119-.041-.256.008-.358-.253-.009.165,0,.264-.048.329-.076.187-.03.271.1.262.04,0,.086-.088.124-.046.215.239.394-.068.591-.084.081-.073.159.009.239.012.1,0,.18-.015.187-.2h0c.088-.086-.066-.241.025-.3.12-.073.135-.235.178-.378.088-.29.386-.56.507-.407s.141.041.2-.03c.048-.054.092-.136.146-.16a1.274,1.274,0,0,1,.28-.063,3.3,3.3,0,0,1-.033.393c-.012.063-.1.1-.059.192.025.063.083.048.127.035.065-.019.107-.067.1-.189,0-.14,0-.28.136-.158.041.036.052-.008.041-.061-.036-.165.029-.156.094-.123a.425.425,0,0,0,.494-.121c.1-.094.239.133.3-.117a.782.782,0,0,1,.452-.153c.282-.09.563-.195.847-.266.143-.035.215-.122.207-.347l.961-.352c.029,0,.07-.011.087.014.147.21.247.155.355-.09a.307.307,0,0,1,.268-.209c.065,0,.141.019.151-.133l.127-.086c.125.027.216-.053.286-.214-.143.141-.323-.011-.461.15l-.445.084c-.119-.086-.182.126-.284.128v-.072a.52.52,0,0,1,.335-.562c.281-.052.281-.052.446-.356a1.616,1.616,0,0,0-.278.089c-.212.111-.446.12-.639.319a.526.526,0,0,0-.274.088c-.206.049-.411.106-.617.144-.18.033-.229-.1-.155-.344a2.6,2.6,0,0,0,.324-.173c.136-.085.3.019.411-.183.057-.031.113-.084.17-.086.428-.006.808-.329,1.222-.434a.862.862,0,0,0,.438-.248c.1-.025.193-.054.29-.073.169-.035.35-.008.481-.225.036-.06.114-.109.073-.211-.033-.081-.1-.081-.165-.05a4.823,4.823,0,0,0-.6.277c-.255.164-.551.136-.78.408-.364-.015-.677.354-1.044.334-.031,0-.063.052-.1.08a5.091,5.091,0,0,1-.887.353c-.316.144-.637.349-.982.168-.074-.04-.126.049-.175.124a1.721,1.721,0,0,0-.92.195h0c-.182.048-.383-.076-.545.147l-.449.15c-.327-.026-.667.081-.971-.214l.1-.142a5.253,5.253,0,0,0,.932-.237,1.4,1.4,0,0,1,.767-.187c.147.028-.035-.238.064-.312.015-.011.058-.052-.014-.061-.13-.016-.256-.1-.39-.038-.167.074-.347.069-.511.135-.331.133-.68-.117-1,.149-.038.031-.112.033-.165-.074a1.428,1.428,0,0,1,.634-.307.532.532,0,0,0,.457-.258.887.887,0,0,0,.352.023,2.988,2.988,0,0,0,.835-.194c.377-.163.771-.178,1.149-.323.2-.079.215-.106.293-.354-.269.226-.543.177-.806.244a7.48,7.48,0,0,1-1.668.434,1.123,1.123,0,0,1-.2.019.2.2,0,0,0-.046-.019c-.045-.031-.079-.1-.085-.248.289-.075.576.084.881-.148.173-.133.448-.094.677-.138.56-.111,1.11-.3,1.667-.424.223-.16.49-.07.717-.269-.036-.089-.2-.052-.079-.228.068-.077.149-.065.226-.069.219.264.254.255.426-.115.015-.033.028-.049.053-.034.1.061.211-.026.3.081.288.142.359-.2.453-.483a.527.527,0,0,0,.427-.154c.051-.058.121-.059.146.054.055.25.05.252.2.109.216.108.394-.108.59-.171.059-.019.1-.144.043-.257-.012-.086-.072-.09-.1-.143l.007-.013a.882.882,0,0,1,.507-.2.455.455,0,0,0,.414-.209c.228.292.226.29.395-.1.023-.053.095-.148.126-.053.111.341.179.033.323-.016-.14-.042-.222-.075-.2-.25l.172-.15c.136,0,.26-.036.376-.278-.162.076-.3-.032-.412.142l-.092.012a.905.905,0,0,1,.045-.359h0c.2-.043.306-.363.5-.424h0c.128-.066.266-.11.322-.339.091-.059.148.216.21.1.139-.264.368-.244.52-.448h0c.122.137.226.1.329-.06.134-.211.322-.169.485-.182.1-.009.184.04.231-.155.032-.134.088-.184.11.02.008.07.037.065.063.026a.9.9,0,0,1,.53-.334.431.431,0,0,0,.315-.286c.071-.032.117-.2.195-.144.378.266.591-.325.9-.421.117-.036.263-.216.414-.263.082-.026.162-.033.2-.167.182-.194.423-.19.595-.419.085-.034.206-.036.2-.215-.005-.207-.129-.076-.2-.114-.193-.108-.335.11-.5.16a11.868,11.868,0,0,0-1.459.735,2.258,2.258,0,0,1-.827.3c-.133,0-.213.009-.271.187a1.922,1.922,0,0,1-.389.253c-.312.157-.656.158-.945.434-.266-.065-.474.21-.715.291l-.382,0c-.076,0-.191.151-.216-.011s.125-.178.2-.239c.044-.035.106-.013.153-.043.091-.059.214-.06.237-.264a4.828,4.828,0,0,1,.557-.263c.185-.088.447-.148.518-.425.14-.536.5-.745.668-1.222.1-.283.332-.35.442-.62a19.1,19.1,0,0,0,1.141-1.819c.094-.041.137-.191.148-.287.064-.593.389-1.021.424-1.628a.477.477,0,0,1,.11-.331c.044-.006.06-.054.079-.107a1.946,1.946,0,0,0-.12-1.283,1.7,1.7,0,0,0-.422-.841,1.969,1.969,0,0,0-.839-.844,1.778,1.778,0,0,1-.551-.39,4.38,4.38,0,0,0-1.185-.817,3.564,3.564,0,0,1-1.147-.882c.492-.11.922-.438,1.4-.365-.029.083-.171.021-.122.18.03.094.124.02.19.018.105,0,.1-.092.074-.205a1.985,1.985,0,0,0,.877-.057c.116-.046.226.02.335.059.089.032.16.082.138.283a.384.384,0,0,0,.072.333c.217.241.446.146.668.207a2.606,2.606,0,0,0,2.122-.547c.1-.062.185-.033.282-.033.2,0,.4.276.643-.007-.223-.065-.4-.127-.587-.163a.335.335,0,0,1-.214-.12c.093-.111-.038-.266.016-.346s.163-.065.237-.007c.116.089.2.031.311-.1a2.846,2.846,0,0,0-.554-.178c-.221-.022-.2-.261-.192-.459C256.757,182.541,256.882,182.628,256.973,182.629Zm-3.062-5.243,0,.009h-.007Zm-1.088-4.247h0Zm-13.48-12.9a.179.179,0,0,1-.021.007l0,0ZM92.762,158.789l.044,0c-.018.006-.034.014-.05.02ZM70.351,169.053c.126-.171.307-.108.374-.331.123.18.322.046.45.2A5.053,5.053,0,0,1,70.351,169.053Zm1.424-.419.02-.008c.072.163.242.212.24.474A3.511,3.511,0,0,1,71.775,168.634Zm3.267-1.476-.008-.009,0,0,.011,0Zm1.541-2.876a.409.409,0,0,1,.024.1l-.009.015a.527.527,0,0,1-.032-.072.135.135,0,0,0-.032,0A.111.111,0,0,0,76.583,164.281Zm-.234.14c0-.012-.005-.022-.007-.033.036-.042.1-.04.149-.049-.092.045-.1.183-.076.33.014.1.064.194.141.14.02-.014.04.077,0,.039C76.391,164.818,76.359,164.631,76.349,164.421Zm-18.6,43.465-.007-.014.01,0Zm1.608,6.277h0Zm8.68,15.05h.018l0,.015Zm.483,16.881h0v0Zm92.972,5.15-.044,0,.05-.021Zm68.618-17.1,0,.006-.036,0C230.089,234.145,230.1,234.143,230.113,234.142Zm-1.226.047a.519.519,0,0,0,.071.02l.022.014a.418.418,0,0,1-.094-.033Zm-4.283-4.558h0l-.023-.043Zm-12.812,10.024,0,.006v-.007Zm-6.181-1.142-.007.009-.025-.02A.182.182,0,0,0,205.611,238.513Zm-1.016,5.62c0-.008-.007-.016-.01-.026l.015.007Zm0-16.61-.009,0,0-.008Zm-.548-.387h0Zm-.513,13.667a.271.271,0,0,0,.016.04l-.048.02Zm-1.389,3.59.017.027h0v0l-.006-.013-.01-.015Zm-1.409-4.037-.01.013,0-.015ZM220.868,220l0,.007-.007,0Zm9.359-9.393-.03,0,.034-.014Zm-12.656,2.526a.445.445,0,0,0-.134-.061c-.033-.007,0-.1.008-.149a.558.558,0,0,0,.366-.031.421.421,0,0,0-.113-.07.411.411,0,0,0,.093-.007l0,.011a.542.542,0,0,0,.074.059c0,.086.011.17.018.256h0c-.019.02-.036.02-.055.031A1.4,1.4,0,0,0,217.571,213.129Zm1.954-.372h-.015l-.011-.026Zm16.355-4.139c-.087-.146-.232-.124-.321-.217.056.023.118.1.19.013v.02c.043.072.108.094.16.144A.063.063,0,0,0,235.881,208.618Zm1.95-32.13a.146.146,0,0,1,.005.059l-.027-.008A.441.441,0,0,1,237.83,176.489Zm-.715-1.251.014.011-.014.006Zm-.453-1.145v.008h-.008Zm-.134.351c0,.007-.005.016-.007.025-.005-.008-.01-.016-.016-.025Zm-1.055-9.192,0,.009-.007,0Zm-.226,5.54a.276.276,0,0,0,0,.029l-.02-.019Zm-77.961-10.76a.22.22,0,0,1-.018-.025l.253.009A.144.144,0,0,1,157.285,160.031Zm17.476,1.182c.015-.059.036-.066.059-.052A.514.514,0,0,0,174.761,161.213ZM67.024,216.771l.006.011-.008,0ZM155.88,161.05a.734.734,0,0,0,.058-.089.251.251,0,0,1,0,.055.121.121,0,0,0-.034.072C155.894,161.073,155.887,161.065,155.88,161.05Zm-1.341-.031c0,.023.034.035.053.052.083.081.2.075.3.108a1.16,1.16,0,0,1-.3.116c-.011,0-.025,0-.037,0a.659.659,0,0,1-.239-.454l.251-.033A.346.346,0,0,0,154.539,161.019Zm44.577-6.5a.107.107,0,0,1,.169.008,1.95,1.95,0,0,0-.217.039A.6.6,0,0,0,199.116,154.518Zm-2.143,4.314,0,.009h-.009ZM196,156.091h0l0,.008.007.011h0l-.012-.019ZM195.1,158.5l-.022.04a.2.2,0,0,0-.011-.027Zm-.741-2.213.007.019-.009-.006Zm-.683,3.8.017.014-.021-.008Zm-4.185-.77v0h0Zm-19.667.786c.231-.246.438.059.656.1.049.009,0,.142-.011.219a.825.825,0,0,0-.542.045.488.488,0,0,0,.56.162l0,.008a.111.111,0,0,0,.136.035.531.531,0,0,1,.034-.042.367.367,0,0,1,.03.333l-.058-.038c-.242-.149-.507-.164-.753-.3l-.027-.012a2.677,2.677,0,0,0-.027-.516Zm-2.409.562q.008.019.017.039l-.038-.038Zm-9.271.216a.3.3,0,0,0-.161-.053c.056-.076.112-.154.169-.228a.3.3,0,0,0,.031-.063.67.67,0,0,1,.065.081C158.257,160.794,158.2,160.855,158.14,160.875Zm-8.019-.129a1.411,1.411,0,0,1-.246.123c-.111.036-.17-.087-.207-.208a.2.2,0,0,1,0-.027l.088-.015c.074-.022.179-.1.216-.055A1.314,1.314,0,0,0,150.121,160.746Zm-26.41-4.81a.412.412,0,0,1,.056.1l-.062-.009C123.707,155.991,123.709,155.962,123.712,155.936Zm-1.848-1.129.011.023-.006.008-.011,0Zm-.317,1.355h.006l-.008,0-.006,0Zm-.04.03h0Zm-5.5-.088a.51.51,0,0,0-.059.052C115.966,156.1,115.987,156.091,116.011,156.1Zm-5-1.063c.231-.248.439.057.656.1.049.009,0,.142-.012.219a.825.825,0,0,0-.541.046.489.489,0,0,0,.56.161l0,.008a.111.111,0,0,0,.136.035.425.425,0,0,1,.033-.042.369.369,0,0,1,.03.333c-.02-.012-.04-.026-.059-.038-.242-.149-.507-.164-.753-.3l-.027-.012a2.686,2.686,0,0,0-.027-.516Zm-2.409.561c.006.013.011.026.017.039l-.038-.038Zm-21.492,6.08a.208.208,0,0,1-.115-.047C87.052,161.516,87.08,161.6,87.109,161.682Zm-1.954-.2c-.005-.015-.008-.028-.011-.041l.006-.008c.009.092.094.1.117.182C85.193,161.634,85.183,161.539,85.154,161.479Zm.031-.99a.074.074,0,0,0,.069-.009c-.08.221-.083.566-.354.488C85.009,160.82,85.255,160.854,85.186,160.489Zm-.781,1.232c.128.215.343.183.475.32-.083-.034-.175-.144-.281-.019v-.029c-.064-.106-.16-.138-.237-.214A.1.1,0,0,0,84.4,161.721Zm-6.78,4.788.007.012-.01,0Zm-8.284,62.605a.126.126,0,0,0,.045-.027h0c.145.028.237-.173.368-.2h0c.065.028.116-.032.166-.077a.923.923,0,0,1,.2-.121c.071,0,.142,0,.213,0,.34.052.682.076,1.023.106a.222.222,0,0,1-.086.148c-.1.107-.235.158-.3.346a.358.358,0,0,1-.2-.041c-.151-.094-.7.123-.735.34a.832.832,0,0,1-.082.259,1.971,1.971,0,0,0-.83-.224,1.851,1.851,0,0,0-.4-.236A1.9,1.9,0,0,0,69.341,229.114Zm8.794,17.441-.008-.009.011-.011Zm19.665,5.2a.309.309,0,0,1-.037-.067l.042.006C97.8,251.714,97.8,251.734,97.8,251.752Zm1.251.764-.008-.016,0-.006.008,0Zm.214-.918h0l.006,0,0,0Zm.028-.02h0Zm7.1.778c-.156.168-.3-.039-.444-.069-.033-.006,0-.1.008-.148a.559.559,0,0,0,.367-.03.331.331,0,0,0-.379-.11l0,0a.076.076,0,0,0-.092-.025.2.2,0,0,1-.022.029.247.247,0,0,1-.02-.225l.04.026c.164.1.343.11.509.2l.018.008a1.8,1.8,0,0,0,.018.35Zm1.63-.38-.011-.026.026.026Zm1.709.32a.953.953,0,0,1,.155-.073.138.138,0,0,0,.023.094.288.288,0,0,0-.172-.022Zm1.83.225a.252.252,0,0,0,.1-.161c.074.013.122.065.172.217C111.736,252.56,111.648,252.538,111.562,252.521Zm18.982,1.576a.429.429,0,0,1-.056-.1l.062.008C130.55,254.042,130.547,254.071,130.545,254.1Zm1.848,1.129-.012-.025.006-.007.012,0C132.4,255.206,132.4,255.217,132.393,255.226Zm.316-1.355H132.7l.008,0,.006,0Zm.041-.031h0Zm5.5.087a.447.447,0,0,0,.059-.052C138.29,253.935,138.269,253.941,138.246,253.927Zm5,1.064c-.231.246-.439-.058-.656-.1-.049-.009,0-.142.011-.219a.826.826,0,0,0,.542-.046.49.49,0,0,0-.56-.162l0-.008a.113.113,0,0,0-.136-.035.378.378,0,0,1-.034.043.369.369,0,0,1-.03-.333c.02.012.04.026.058.038.243.149.507.164.754.3l.027.012a2.647,2.647,0,0,0,.026.516Zm2.409-.562c-.005-.012-.01-.025-.017-.038l.038.038Zm21.493-6.078a.207.207,0,0,1,.115.047C167.205,248.518,167.177,248.437,167.148,248.351Zm1.954.2a.359.359,0,0,1,.011.041l-.006.008c-.009-.092-.094-.1-.117-.182C169.064,248.4,169.074,248.494,169.1,248.554Zm-.031.99a.075.075,0,0,0-.07.009c.081-.221.083-.567.355-.489C169.247,249.213,169,249.179,169.071,249.544Zm.781-1.232c-.128-.216-.343-.184-.475-.32.084.033.175.144.282.019v.029c.063.106.159.138.237.214A.09.09,0,0,0,169.852,248.312Zm27.7-1.569a.159.159,0,0,1-.25-.013,2.953,2.953,0,0,0,.321-.056A.879.879,0,0,0,197.557,246.743Zm8.652-23.235h0a.149.149,0,0,1,.02-.038h0A.214.214,0,0,0,206.209,223.508Zm7.315-10.074a.444.444,0,0,1-.037-.295,10.954,10.954,0,0,1,1.6.2.913.913,0,0,0,.09.147c.11.14.106.216-.048.212-.054,0-.126,0-.13.09v0A9.208,9.208,0,0,0,213.524,213.434Zm2.525.15c-.116.183-.154-.018-.216-.123l.277.043A.8.8,0,0,0,216.049,213.584Zm15.652-4.667,0-.013.009,0Zm2.35-.273a.141.141,0,0,1,.078.032C234.09,208.758,234.07,208.7,234.051,208.644Zm1.322.137a.239.239,0,0,1,.008.028l0,.006c-.006-.062-.064-.069-.08-.123C235.347,208.677,235.354,208.742,235.373,208.782Zm-.021.67a.049.049,0,0,0-.047.007c.054-.15.056-.384.24-.331C235.471,209.229,235.3,209.205,235.352,209.452Zm3.62-38.216-.008-.008h.012Zm.055-5.028v0h0Zm1.44,39.173,0-.008h.007Zm4.921-1.721c-.085.116-.208.073-.253.223-.083-.121-.217-.03-.3-.134A3.382,3.382,0,0,1,245.388,203.658Zm-.964.284-.014,0c-.049-.11-.164-.143-.163-.32A2.255,2.255,0,0,1,244.424,203.942Zm-2.21,1,.006.007h-.009Zm-1.042,1.947a.31.31,0,0,1-.016-.067l.006-.009a.314.314,0,0,1,.022.048l.022,0A.07.07,0,0,0,241.172,206.886Zm.159-.1a.144.144,0,0,0,0,.022c-.025.028-.065.027-.1.034.062-.031.064-.124.051-.224-.009-.07-.043-.13-.1-.094-.013.009-.026-.053,0-.026C241.3,206.524,241.323,206.649,241.331,206.791Zm0-33.591v-.006l0,0Zm.144-.111.007-.038h.012Zm1.193-4.6,0-.008,0,.007Zm.822-.241-.006-.029.01,0Zm.739,3.834-.01-.014.013-.006Zm.833-5.509-.015-.019.019,0Zm1.742,1.265,0-.021.007.014Zm.836,3.534,0-.007h.006Zm.281-1.6v-.006l.005,0Z" transform="translate(0)" fill="#fff"/>
    <path id="Trazado_1888" data-name="Trazado 1888" d="M415.775,160.169c.33.156.659-.007.989,0a5.521,5.521,0,0,0,.554.025,12.67,12.67,0,0,1,1.7.191l1.652.272a.992.992,0,0,0,.134.1,4.278,4.278,0,0,0,1.919.192,29.22,29.22,0,0,1,3.031.475,9.265,9.265,0,0,0,1.692.229,9.611,9.611,0,0,0,1.237.28,3.411,3.411,0,0,0,.8.161,5.93,5.93,0,0,0,1.456.266,5.069,5.069,0,0,0,1.437.3c.427.055.816.326,1.3.127.039-.015.126.027.191.038.446.075.889.158,1.34.217.183.025.474.08.516-.107.036-.16-.218-.257-.427-.289a3.916,3.916,0,0,0-.715-.016,1.564,1.564,0,0,1-1.435-.523.681.681,0,0,0-.569-.176,4,4,0,0,1-1.213-.08h0c-.143-.431-.643-.333-1.074-.336-.1,0-.2.008-.3.018-.584.048-.743-.031-.842-.425-.014-.055-.059-.081-.134-.08a7.8,7.8,0,0,0-.8-.063,8.216,8.216,0,0,1-1.494.134h-.305a2.286,2.286,0,0,0-1.03-.217,2.091,2.091,0,0,1-1.457-.373.483.483,0,0,0-.268-.089c-.786.006-1.549-.18-2.339-.136-.115.007-.236.054-.292-.054.066-.14.366-.049.428-.232a9.375,9.375,0,0,1-1-.093c-.116-.083-.286-.169-.155-.293.11-.1.271-.006.412,0a3.728,3.728,0,0,0,1.669-.153,5.564,5.564,0,0,0-1.885-.148c-.333.047-.754.1-.925-.059-.324-.291-.759-.17-1.13-.256-.069-.015-.18-.012-.212.059s.052.12.128.124c.387.022.406.228.489.408a.428.428,0,0,1-.356.018c-.351-.313-.969-.021-1.34-.289-.088-.063-.142.053-.214.087-.332.156-.462.541-1.043.426-.124-.025-.326-.04-.364.114C415.5,160.059,415.652,160.11,415.775,160.169Zm13.322,1.753h-.028l-.006-.009Zm-10.162-2.093a.722.722,0,0,0-.028.234l-.006-.006C418.672,159.875,418.772,159.838,418.935,159.828Z" transform="translate(-211.959 1.036)" fill="#fff"/>
    <path id="Trazado_1889" data-name="Trazado 1889" d="M437.423,163.672h0a3.491,3.491,0,0,0,1.878.379.174.174,0,0,1,.175.043c.147.2.414.207.694.221.106,0,.278.057.3.109.13.365.519.278.844.215a5.673,5.673,0,0,1,.854-.061h0l.4.149c.093.165.709.129.383.461-.039.039.026.079.1.094a3.479,3.479,0,0,0,2.183.023,3.093,3.093,0,0,1,.56-.123,1.41,1.41,0,0,1-.223-.08,3.126,3.126,0,0,0-2.262-.537h0a3.291,3.291,0,0,0-2.376-.231c.016-.069.011-.106.028-.111.191-.072.332-.156.263-.325-.081-.2-.276-.11-.452-.09-.161.018-.178-.034-.18-.142,0-.259-.222-.367-.6-.347-.306.018-.61-.041-.909-.05-.325-.009-.467-.271-.779-.216a5.718,5.718,0,0,1-1.291-.007,2.154,2.154,0,0,0-.7.04C436.749,163.266,437.307,163.287,437.423,163.672Z" transform="translate(-192.283 1.74)" fill="#fff"/>
    <path id="Trazado_1890" data-name="Trazado 1890" d="M441.067,172.037c-.253.012-.4.021-.557.025-.122,0-.252,0-.311.088s.068.14.144.2a1.49,1.49,0,0,0,1.51.08c.1-.05.264-.1.235-.207-.034-.126-.219-.128-.361-.141C441.475,172.055,441.221,172.045,441.067,172.037Z" transform="translate(-191.611 3.302)" fill="#fff"/>
    <path id="Trazado_1891" data-name="Trazado 1891" d="M425.816,195.028a2.314,2.314,0,0,0,1.346-.234,1.1,1.1,0,0,1,.79-.249c.367-.025.73-.42,1.107-.007a.194.194,0,0,0,.092-.02.3.3,0,0,1,.413.036c.042.039.161.06.171.023.116-.4.593-.173.893-.243h.1a.916.916,0,0,0,.149.016c.431-.016.631-.378,1.112-.344.062,0-.023-.122-.114-.143a.935.935,0,0,0-.5.039c-.237.075-.248-.022-.251-.136.04-.11.218-.122.329-.2a.832.832,0,0,0-.546-.048c-1.077.322-2.248.413-3.364.637a1.87,1.87,0,0,0-.931.388c-.154,0-.277-.23-.295-.14-.057.3-.467.147-.623.279v.13C425.735,194.891,425.742,195,425.816,195.028Zm2.654-.725.2-.013a2.12,2.12,0,0,1-.3.031A.366.366,0,0,1,428.47,194.3Z" transform="translate(-209.73 7.024)" fill="#fff"/>
    <path id="Trazado_1892" data-name="Trazado 1892" d="M392.266,203.91c-.054-.155-.255-.11-.422-.1q-.76.046-1.52.087c-.113.006-.279-.028-.282.083s.175.165.3.136a4.565,4.565,0,0,1,1.239.011,1.751,1.751,0,0,0,.351-.031C392.058,204.054,392.33,204.1,392.266,203.91Z" transform="translate(-249.942 8.81)" fill="#fff"/>
    <path id="Trazado_1893" data-name="Trazado 1893" d="M413.485,199.456c.1.006.075.175.178.108a.739.739,0,0,0,.287-.347c.03-.083-.113-.128-.252-.092a10.963,10.963,0,0,0-1.476.164c-.5.028-.351.2-.17.37h0c.563.187.891.124,1.171-.214C413.307,199.35,413.4,199.456,413.485,199.456Z" transform="translate(-226.935 7.997)" fill="#fff"/>
    <path id="Trazado_1894" data-name="Trazado 1894" d="M401.785,202.486c-.008-.1-.12-.08-.226-.084a6.646,6.646,0,0,0-2.269.189,16.651,16.651,0,0,0,2.253.014C401.67,202.6,401.8,202.6,401.785,202.486Z" transform="translate(-240.063 8.565)" fill="#fff"/>
    <path id="Trazado_1895" data-name="Trazado 1895" d="M426.226,194.379a12.9,12.9,0,0,0-1.812.293c-.265.2-.665.155-.992.249a12.937,12.937,0,0,1-2.551.351c-.155.012-.361-.018-.344.12.014.1.02.238.326.276a6.376,6.376,0,0,0,1.193-.086,1.373,1.373,0,0,0,.933-.138l.5-.076a1.274,1.274,0,0,0,.648-.027c.127-.04.314-.013.334-.167.034-.266.049-.269.417-.154a1.105,1.105,0,0,0,1.391-.345c.09-.061.151-.153.311-.14C426.567,194.38,426.407,194.359,426.226,194.379Z" transform="translate(-215.513 7.175)" fill="#fff"/>
    <path id="Trazado_1896" data-name="Trazado 1896" d="M425.69,194.518l.007-.005h-.01l0,.008h0Z" transform="translate(-213.565 7.2)" fill="#fff"/>
    <path id="Trazado_1897" data-name="Trazado 1897" d="M398.579,203.839c-.266.043-.169.252-.265.378-.032.041.077.106.114.087a2.992,2.992,0,0,1,1.223-.087c-.127-.121-.275-.134-.32-.23C399.192,203.7,398.85,203.794,398.579,203.839Z" transform="translate(-241.548 8.808)" fill="#fff"/>
    <path id="Trazado_1898" data-name="Trazado 1898" d="M414.447,200.02c-.313-.015-.656-.11-.9.1a.578.578,0,0,1-.622.185c-.093-.026-.2.02-.169.116.289-.079.468.287.786.089a1.047,1.047,0,0,1,.609.07c.19.076-.012.364.295.325.255-.033.061-.258.144-.385.165-.011.336-.009.5-.035.128-.019.318-.137.21-.171C415,200.222,414.937,199.82,414.447,200.02Z" transform="translate(-225.77 8.145)" fill="#fff"/>
    <path id="Trazado_1899" data-name="Trazado 1899" d="M394.837,202.651c0-.1-.162-.119-.27-.117a5.164,5.164,0,0,0-1.143.092,4.692,4.692,0,0,0,1.139.2C394.7,202.839,394.833,202.751,394.837,202.651Z" transform="translate(-246.654 8.591)" fill="#fff"/>
    <path id="Trazado_1900" data-name="Trazado 1900" d="M388.638,204.471c.093.093.131.241.347.21s.292-.192.257-.3.019-.175-.006-.258a.525.525,0,0,0-.4.1C388.743,204.3,388.462,204.293,388.638,204.471Z" transform="translate(-251.972 8.866)" fill="#fff"/>
    <path id="Trazado_1901" data-name="Trazado 1901" d="M398.034,201.975a.291.291,0,0,0-.3-.282c-.257,0-.237.158-.268.256.024.122-.02.257.208.255C397.875,202.2,398.06,202.128,398.034,201.975Z" transform="translate(-242.723 8.445)" fill="#fff"/>
    <path id="Trazado_1902" data-name="Trazado 1902" d="M418.551,196.186l1.68-.2-.022-.094a5.976,5.976,0,0,0-1.682.2Z" transform="translate(-220.117 7.439)" fill="#fff"/>
    <path id="Trazado_1903" data-name="Trazado 1903" d="M410.817,202.539a.291.291,0,0,0-.344.157c.075.164.283.188.488.188.143,0,.34,0,.326-.153C411.267,202.536,410.989,202.573,410.817,202.539Z" transform="translate(-229.02 8.591)" fill="#fff"/>
    <path id="Trazado_1904" data-name="Trazado 1904" d="M410.952,201.079c-.013-.114-.109-.178-.3-.188-.491-.021-.373.23-.447.428.177-.041.268-.162.472-.1C410.79,201.248,410.966,201.206,410.952,201.079Z" transform="translate(-229.333 8.306)" fill="#fff"/>
    <path id="Trazado_1905" data-name="Trazado 1905" d="M400.067,203.717c-.113,0-.277.068-.227.143a.55.55,0,0,0,.415.295c.106-.02.283-.063.23-.1C400.314,203.956,400.366,203.724,400.067,203.717Z" transform="translate(-240.215 8.796)" fill="#fff"/>
    <path id="Trazado_1906" data-name="Trazado 1906" d="M309.383,156.976a2.06,2.06,0,0,0-1.263-.007A2.957,2.957,0,0,0,309.383,156.976Z" transform="translate(-123.477 0.672)" fill="#fff"/>
    <path id="Trazado_1907" data-name="Trazado 1907" d="M382.209,204.986c.146-.021.384-.023.351-.131-.038-.127-.249-.221-.454-.253-.12-.019-.184.039-.143.13C382.141,204.772,381.8,205.044,382.209,204.986Z" transform="translate(-258.918 8.949)" fill="#fff"/>
    <path id="Trazado_1908" data-name="Trazado 1908" d="M430.524,195.374c.038.083.147.084.25.082.27-.009.449-.08.438-.326-.232.045-.368.148-.58.12C430.538,195.238,430.495,195.31,430.524,195.374Z" transform="translate(-193.287 7.307)" fill="#fff"/>
    <path id="Trazado_1909" data-name="Trazado 1909" d="M419.093,198.556c-.158.012-.31.033-.324.172a.183.183,0,0,0,.208.167c.181-.006.33-.069.346-.205C419.336,198.587,419.236,198.545,419.093,198.556Z" transform="translate(-220.477 7.901)" fill="#fff"/>
    <path id="Trazado_1910" data-name="Trazado 1910" d="M420.893,198.29c-.157.031-.227.106-.219.208.007.129.154.137.294.136s.243-.045.228-.144C421.179,198.374,421.059,198.311,420.893,198.29Z" transform="translate(-218.504 7.855)" fill="#fff"/>
    <path id="Trazado_1911" data-name="Trazado 1911" d="M443.068,180.662c-.03.164.194.056.283.094.167-.009.392.027.4-.131,0-.1-.2-.12-.323-.115C443.282,180.515,443.088,180.553,443.068,180.662Z" transform="translate(-191.111 4.771)" fill="#fff"/>
    <path id="Trazado_1912" data-name="Trazado 1912" d="M412.982,200.692a.277.277,0,0,0-.283.215c-.016.076.027.137.155.151.164-.019.3-.072.317-.192A.162.162,0,0,0,412.982,200.692Z" transform="translate(-226.858 8.271)" fill="#fff"/>
    <path id="Trazado_1913" data-name="Trazado 1913" d="M396.906,204.174a.141.141,0,0,0,.094.077c.291.056.6.178.83-.075.069-.029.181-.069.13-.122-.13-.135-.344-.106-.541-.09-.114.015-.273.069-.331.038-.175-.1-.351-.25-.509-.034C396.433,204.167,396.864,204.048,396.906,204.174Z" transform="translate(-243.366 8.82)" fill="#fff"/>
    <path id="Trazado_1914" data-name="Trazado 1914" d="M432.284,194.914c-.163.011-.292.067-.293.188,0,.08.113.107.223.108.18,0,.306-.073.331-.176S432.412,194.923,432.284,194.914Z" transform="translate(-193.032 7.269)" fill="#fff"/>
    <path id="Trazado_1915" data-name="Trazado 1915" d="M391.351,204.391a.641.641,0,0,0,.672-.238c-.326.053-.584-.046-.753.13C391.229,204.327,391.285,204.379,391.351,204.391Z" transform="translate(-249.144 8.872)" fill="#fff"/>
    <path id="Trazado_1916" data-name="Trazado 1916" d="M376.848,154.705c.022-.014.014-.083-.011-.094a.782.782,0,0,0-.684.052C376.45,154.709,376.634,154.841,376.848,154.705Z" transform="translate(-264.956 0.27)" fill="#fff"/>
    <path id="Trazado_1917" data-name="Trazado 1917" d="M411.688,199.419c-.138.013-.305,0-.38.114.018.1.135.136.242.155a.245.245,0,0,0,.29-.142C411.881,199.461,411.807,199.409,411.688,199.419Z" transform="translate(-228.275 8.05)" fill="#fff"/>
    <path id="Trazado_1918" data-name="Trazado 1918" d="M381.12,204.612c.016.111.1.165.27.158.1-.006.211-.007.211-.1,0-.131-.163-.127-.286-.153S381.125,204.525,381.12,204.612Z" transform="translate(-259.819 8.933)" fill="#fff"/>
    <path id="Trazado_1919" data-name="Trazado 1919" d="M395.436,202.551a1.581,1.581,0,0,0-.665.1.967.967,0,0,0,.681.02A.061.061,0,0,0,395.436,202.551Z" transform="translate(-245.485 8.591)" fill="#fff"/>
    <path id="Trazado_1920" data-name="Trazado 1920" d="M404.226,202.784c-.124-.011-.242,0-.3.119a.248.248,0,0,0,.217.1c.13,0,.246-.032.259-.129C404.415,202.8,404.308,202.791,404.226,202.784Z" transform="translate(-236.011 8.634)" fill="#fff"/>
    <path id="Trazado_1921" data-name="Trazado 1921" d="M420.386,198.408c-.117-.006-.185.043-.2.122a.189.189,0,0,0,.216.12c.087-.006.167-.04.171-.107C420.578,198.461,420.5,198.414,420.386,198.408Z" transform="translate(-219.088 7.875)" fill="#fff"/>
    <path id="Trazado_1922" data-name="Trazado 1922" d="M397.114,201.99c.023-.011.014-.1-.02-.124-.15-.12-.292.031-.451.028C396.788,201.959,396.918,202.074,397.114,201.99Z" transform="translate(-243.613 8.467)" fill="#fff"/>
  </g>
</svg>
